<?xml version="1.0" standalone="no"?>
<!DOCTYPE svg PUBLIC "-//W3C//DTD SVG 1.1//EN" "http://www.w3.org/Graphics/SVG/1.1/DTD/svg11.dtd" >
<svg>
<metadata>
Created by FontForge 20090622 at Sat Nov 24 02:55:24 2012
 By root
Copyright (c) Grayhood, 2011. All rights reserved.
</metadata>
<defs>
<font id="Ribbon" horiz-adv-x="600" >
  <font-face 
    font-family="Ribbon"
    font-weight="400"
    font-stretch="normal"
    units-per-em="1000"
    panose-1="2 0 0 0 0 0 0 0 0 0"
    ascent="800"
    descent="-200"
    x-height="784"
    cap-height="784"
    bbox="-329 -271 1266 1289"
    underline-thickness="50"
    underline-position="-100"
    unicode-range="U+0020-U+2665"
  />
<missing-glyph 
 />
    <glyph glyph-name=".notdef" 
 />
    <glyph glyph-name=".null" horiz-adv-x="0" 
 />
    <glyph glyph-name="nonmarkingreturn" horiz-adv-x="333" 
 />
    <glyph glyph-name="space" unicode=" " 
 />
    <glyph glyph-name="space" unicode="&#xa0;" 
 />
    <glyph glyph-name="exclam" unicode="!" horiz-adv-x="456" 
d="M231 724l61 61v-671l-61 61v549zM222 724v-549l-61 -61v671zM227 -30l65 66l-65 65l-66 -65z" />
    <glyph glyph-name="quotedbl" unicode="&#x22;" 
d="M301 591v192h61v-131zM231 591v192h61v-131z" />
    <glyph glyph-name="numbersign" unicode="#" horiz-adv-x="956" 
d="M713 804l70 50l-41 -235h160l-61 -61h-172zM386 804l71 50l-42 -235h194l45 258l50 -71l-44 -248h-318zM285 231l56 318h318l-56 -318h-318zM586 488h-194l-34 -196h193zM902 488h-183l-35 -196h183l-61 -61h-195l57 318h173zM334 558h-196l-62 61h206l46 258l49 -71z
M610 222h196l61 -61h-206l-45 -258l-50 71zM558 -24l-71 -50l41 235h-193l-46 -258l-49 71l43 248h318zM231 -24l-71 -50l41 235h-160l62 61h171zM276 231h-173l-62 61h184l34 196h-183l62 61h194z" />
    <glyph glyph-name="dollar" unicode="$" 
d="M452 221q0 -64 -44.5 -106t-109.5 -44v316q63 -20 109 -63.5t45 -102.5zM364 158q27 25 27 63q0 32 -32 63v-131zM134 565q0 64 45 106t110 44v-316q-62 19 -108.5 63t-46.5 103zM222 628q-26 -26 -26 -63q0 -32 32 -63v130q-1 0 -3 -2t-3 -2zM359 775q71 -21 117 -81.5
t46 -137.5v-61l-61 61q0 68 -47.5 117t-115.5 51v87l61 62v-62v-36zM448 381q74 -68 74 -160q0 -98 -69 -159q-39 -37 -94 -53v-35v-61l-61 61v88q68 2 115.5 47t47.5 112q0 63 -49 109t-114 66v319q64 -2 109 -48.5t45 -110.5l-61 -61v61q0 43 -32 72v-190q48 -21 89 -57z
M140 405q-76 69 -76 160q0 95 69 159q42 39 95 52v35v62l61 -62v-87q-69 -2 -116 -47t-47 -112q0 -63 49.5 -109.5t113.5 -65.5v-319q-65 2 -110 48t-45 111l62 61v-61q0 -45 32 -72v190q-48 20 -88 57zM228 -87v61v36q-72 22 -118 82.5t-46 137.5v61l62 -61
q0 -69 47.5 -117.5t115.5 -50.5v-88z" />
    <glyph glyph-name="percent" unicode="%" horiz-adv-x="1123" 
d="M950 790l-790 -790h-86l876 876v-86zM956 784h87l-877 -877v87zM303 826q65 0 111.5 -46.5t46.5 -112.5t-46 -112t-112 -47q-66 1 -112.5 47t-46.5 112t46.5 112.5t112.5 46.5zM372 598q28 30 28 69q0 41 -28 69q-29 29 -69 29q-41 0 -70 -29q-28 -28 -28 -69
q0 -39 28 -69q28 -28 70 -28q41 0 69 28zM464 829q67 -65 67 -162q0 -95 -67 -162t-161 -67q-95 0 -162 67t-67 162q0 97 67 162q65 67 162 67q96 0 161 -67zM303 500q69 0 118 49t49 118q0 70 -49 119t-118 49q-70 0 -119 -49t-49 -119q0 -69 49 -118t119 -49zM814 275
q66 0 112.5 -46.5t46.5 -112.5t-46.5 -112.5t-112.5 -46.5t-112.5 46.5t-46.5 112.5t46.5 112.5t112.5 46.5zM883 47q28 28 28 69q0 43 -28 69q-29 29 -69 29q-42 0 -69 -29q-29 -27 -29 -69q0 -40 29 -69q28 -28 69 -28q39 0 69 28zM976 278q67 -67 67 -162q0 -93 -67 -162
q-69 -67 -162 -67q-95 0 -162 67t-67 162q0 97 67 162q65 67 162 67q95 0 162 -67zM814 -51q69 0 118 49t49 118q0 70 -49 119t-118 49q-70 0 -119 -49t-49 -119q0 -69 49 -118t119 -49z" />
    <glyph glyph-name="ampersand" unicode="&#x26;" horiz-adv-x="741" 
d="M538 112l54 -92l-21 -84l-53 88q-63 -33 -140 -33q-79 0 -149 35q-74 39 -115 107q-36 60 -36 133q0 79 43 152q38 64 101 106l-13 22q-34 59 -18 124q17 65 75.5 99.5t123.5 18.5q65 -17 99.5 -75.5t18.5 -123.5q-16 -66 -75 -100q-15 -9 -28 -16l135 -228q5 22 5 40
q0 41 -22 78l-31 52l84 -21v0q30 -52 30 -109q0 -94 -67 -159l-220 372q75 37 83 43v0q36 23 46 63q10 41 -11 77t-62 47q-41 10 -77 -11t-47 -62q-11 -42 11 -78l45 -75q-5 -3 -19 -10.5t-22 -12.5q-58 -35 -92.5 -92.5t-34.5 -120.5q0 -55 28 -102q32 -53 89 -82.5
t122 -29.5q68 0 122 32q17 10 38 28zM314 506l-31 53l-14 23q-19 32 -10 70q10 37 43 57t71 11q38 -10 57.5 -43.5t9.5 -70.5q-9 -38 -43 -57q-11 -8 -22.5 -14t-29.5 -14t-31 -15zM318 637q-3 -12 4 -24l16 -27l2 1q2 1 2 2q17 7 24 13q10 6 15 19q3 13 -4 24.5t-20 14.5
q-13 4 -24 -3t-15 -20zM619 112l64 -109l-83 21l-56 94q71 68 71 167q0 62 -32 113v1l22 83l31 -52q40 -68 40 -145q0 -79 -38 -144q-12 -20 -19 -29zM311 494l31 -52l75 -127l116 -195q-15 -15 -38 -28q-52 -31 -117 -31q-62 0 -118 28.5t-86 79.5q-26 45 -26 97
q0 60 33.5 116t88.5 89q40 23 41 23zM451 138l-162 273q-37 -29 -55 -60q-25 -41 -25 -85q0 -37 18 -66q21 -36 62 -57q44 -21 89 -21q41 0 73 16z" />
    <glyph glyph-name="quotesingle" unicode="'" 
d="M231 591v192h61v-131z" />
    <glyph glyph-name="parenleft" unicode="(" horiz-adv-x="474" 
d="M346 -117v-87l-43 43v1q-108 108 -168.5 251t-60.5 301q0 159 60.5 302t168.5 251l43 43v-86q-100 -100 -155.5 -232t-55.5 -278t55.5 -277.5t155.5 -231.5zM396 -68l43 -43h-87v0q-98 99 -153 229t-55 274q0 145 55 275t153 228l1 1h86l-43 -44q-90 -90 -140.5 -208.5
t-50.5 -251.5t50.5 -251.5t140.5 -208.5z" />
    <glyph glyph-name="parenright" unicode=")" horiz-adv-x="462" 
d="M118 902v86l43 -43q108 -108 168.5 -251t60.5 -302q0 -158 -60.5 -301t-168.5 -252l-43 -43v87q100 100 155.5 231.5t55.5 277.5t-55.5 278t-155.5 232zM68 852l-43 43h86q99 -98 154 -228t55 -275q0 -144 -55 -274t-154 -229h-86l43 43q90 90 140.5 208.5t50.5 251.5
t-50.5 251.5t-140.5 208.5z" />
    <glyph glyph-name="asterisk" unicode="*" horiz-adv-x="705" 
d="M287 682l61 -61v-218l-154 154v87l93 -93v131zM363 397l154 154h87l-93 -93h132l-62 -61h-218zM643 327h-132l93 -94h-87l-154 155v0h218zM123 397l-61 61h132l-93 93h86l155 -154v0h-219zM194 227l154 155v-219l-61 -61v132l-93 -93v86zM511 557l-154 -154v218l61 62
v-132l93 93v-87zM357 382l154 -155v-86l-93 93v-132l-61 61v219zM123 388h219l-155 -155h-86l93 94h-132z" />
    <glyph glyph-name="plus" unicode="+" horiz-adv-x="690" 
d="M569 397h-225v224l62 62v-225h224zM336 397h-225l-61 61h224v225l62 -62v-224zM569 388l61 -61h-224v-225l-62 61v225h225zM111 388h225v-225l-62 -61v225h-224z" />
    <glyph glyph-name="comma" unicode="," horiz-adv-x="181" 
d="M34 131h131v-131l-61 -61v61h-70v131z" />
    <glyph glyph-name="hyphen" unicode="-" horiz-adv-x="713" 
d="M587 388l61 -61h-580l61 61h458zM587 397h-458l-61 61h580z" />
    <glyph glyph-name="hyphen" unicode="&#xad;" horiz-adv-x="713" 
d="M587 388l61 -61h-580l61 61h458zM587 397h-458l-61 61h580z" />
    <glyph glyph-name="period" unicode="." horiz-adv-x="201" 
d="M163 0v131h-131v-131h131z" />
    <glyph glyph-name="slash" unicode="/" horiz-adv-x="1018" 
d="M904 790l-789 -790h-87l876 876v-86zM911 784h86l-876 -877v87z" />
    <glyph glyph-name="zero" unicode="0" 
d="M298 714q66 0 112.5 -46.5t46.5 -112.5v-326q0 -66 -46.5 -112.5t-112.5 -46.5t-112.5 46.5t-46.5 112.5v326q0 66 46.5 112.5t112.5 46.5zM396 229v326q0 42 -29 69q-29 29 -69 29t-69 -29q-29 -27 -29 -69v-326q0 -40 29 -69t69 -29t69 29t29 69zM460 717
q67 -67 67 -162v-326q0 -93 -67 -162q-69 -67 -162 -67t-162 67q-67 69 -67 162v326q0 95 67 162t162 67t162 -67zM466 229v326q0 70 -49 119t-119 49t-119 -49t-49 -119v-326q0 -70 49 -119t119 -49t119 49t49 119z" />
    <glyph glyph-name="one" unicode="1" 
d="M287 61l-61 -61v653l61 61v-653zM357 784v-784l-61 61v662z" />
    <glyph glyph-name="two" unicode="2" 
d="M128 61h333l61 -61h-455v136q0 69 33 122q28 45 77 80q32 23 88 51.5t71 37.5q41 23 51 45q7 12 7 27v56q0 42 -29 69q-29 29 -69 29t-69 -29q-29 -27 -29 -69v-61l-61 61q0 66 46.5 112.5t112.5 46.5t112.5 -46.5t46.5 -112.5v-56q0 -29 -11 -52.5t-35.5 -43
t-45.5 -31.5t-57 -31l-12 -6q-38 -19 -62 -34t-51 -39t-40 -55.5t-13 -70.5v-75zM458 717q67 -67 67 -162v-56q0 -73 -46 -124q-28 -34 -91 -70l-46 -23.5l-47 -24t-35 -21.5t-30 -24q-31 -32 -32 -76v-5h324l-61 -61h-324v66q0 38 12.5 67.5t38.5 52.5t49 37.5t61 33.5
q89 45 117 70q48 43 49 102v56q0 70 -49 119t-119 49t-119 -49t-49 -119l-61 -61v61q0 95 67 162t162 67t162 -67z" />
    <glyph glyph-name="three" unicode="3" 
d="M143 229l61 61v-61q0 -40 29 -69t69 -29t69 29t29 69t-29 69t-69 29h-61l61 61q66 0 112.5 -46.5t46.5 -112.5t-46.5 -112.5t-112.5 -46.5t-112.5 46.5t-46.5 112.5zM302 458q39 0 69 28q29 29 29 69q0 42 -29 69q-29 29 -69 29t-69 -29q-29 -27 -29 -69v-61l-61 61
q0 66 46.5 112.5t112.5 46.5t112.5 -46.5t46.5 -112.5q0 -65 -46.5 -111.5t-112.5 -47.5l-61 62h61zM462 392h1l1 -1q67 -69 67 -162t-67 -162q-69 -67 -162 -67t-162 67q-67 69 -67 162v61l61 -61q0 -70 49 -119t119 -49t119 49t49 119q0 76 -57 126q-13 11 -20 15
q-26 16 -53 22q41 11 72 37q58 50 58 126q0 70 -49 119t-119 49t-119 -49t-49 -119l-61 -61v61q0 95 67 162t162 67t162 -67t67 -162q0 -94 -67 -161z" />
    <glyph glyph-name="four" unicode="4" horiz-adv-x="720" 
d="M493 61l-61 -61v194h-316l-71 72l518 518v-459h132l-61 -61h-132v373l-381 -382h372v-194zM634 255l61 -61h-132v-194l-61 61v194h132zM493 264h-351l351 351v-351zM432 325v143l-142 -143h142z" />
    <glyph glyph-name="five" unicode="5" 
d="M127 723v-313l-61 -61v435h455l-61 -61h-333zM295 70q-66 0 -112.5 46.5t-46.5 112.5l61 61v-61q0 -40 29 -69t69 -29t69 29t29 69v83q0 40 -29 69t-69 29q-38 0 -63.5 -20.5t-34.5 -40.5l-59 60q14 16 31 27q53 35 126 35q66 0 112.5 -46.5t46.5 -112.5v-83
q0 -66 -46.5 -112.5t-112.5 -46.5zM457 474q67 -67 67 -162v-83q0 -93 -67 -162q-69 -67 -162 -67t-162 67q-67 69 -67 162v61l61 -61q0 -70 49 -119t119 -49t119 49t49 119v83q0 70 -49 119t-119 49q-103 0 -159 -60v294h324l61 -61h-324v-127q47 15 98 15q93 0 162 -67z
" />
    <glyph glyph-name="six" unicode="6" 
d="M499 340q46 -82 20 -174q-27 -92 -109 -137q-84 -47 -175 -20q-89 25 -137 109q-46 85 -19 174l135 470l17 59l41 -75l-134 -470v-1q-7 -21 -7 -46q0 -55 33.5 -100t87.5 -61q22 -7 47 -7q55 0 100 33.5t61 88.5q7 26 7 46q0 55 -33.5 100t-88.5 61q-21 7 -46 7
q-41 0 -78 -19.5t-60 -53.5l119 419l77 42l-17 -59l-78 -271q53 8 100 -6q91 -25 137 -109zM140 229q0 21 6 44v0q15 52 58 83.5t95 31.5q21 0 44 -6q52 -15 83.5 -58t31.5 -95q0 -21 -6 -44q-16 -52 -58.5 -83.5t-94.5 -31.5q-21 0 -44 6q-52 15 -83.5 58t-31.5 95z
M205 256q-12 -38 8 -74q19 -35 59 -47q40 -11 74 9q35 19 47 58q10 38 -9 74q-19 35 -58 47q-41 11 -74 -9q-35 -19 -47 -58z" />
    <glyph glyph-name="seven" unicode="7" 
d="M337 531q29 19 37 29q15 18 15 52v41h-323l61 61h324v-102q0 -39 -14.5 -67t-30 -40t-46.5 -31q-7 -4 -10 -6q-33 -20 -52 -37t-36 -54.5t-17 -88.5v-227l-61 -61v288q-1 104 55 169q10 11 20.5 20.5t22 18t19 13.5t20.5 12.5t16 9.5zM66 784h455v-172q0 -46 -16 -88
q-15 -36 -44 -63q-15 -14 -32 -26t-34.5 -22.5t-24.5 -15.5q-23 -14 -35 -31q-20 -28 -20 -78v-288l-61 61v227q0 50 16 85.5t34 51.5t51 35q28 17 39.5 25t30.5 27t26.5 43t7.5 57v111h-332z" />
    <glyph glyph-name="eight" unicode="8" 
d="M462 392h1l1 -1q67 -69 67 -162q0 -95 -67 -162t-162 -67t-162 67t-67 162q0 93 67 162l1 1h1l-2 2q-67 67 -67 161q0 95 67 162t162 67t162 -67t67 -162q0 -94 -67 -161zM302 61q70 0 119 49t49 119q0 59 -37 104.5t-93 58.5q56 13 93 58.5t37 104.5q0 70 -49 119
t-119 49t-119 -49t-49 -119q0 -59 37 -104.5t93 -58.5q-56 -13 -93 -58.5t-37 -104.5q0 -70 49 -119t119 -49zM302 397h-2q-65 1 -111 47t-46 111q0 66 46.5 112.5t112.5 46.5t112.5 -46.5t46.5 -112.5q0 -65 -46 -111t-111 -47h-2zM204 555q0 -40 29 -69q30 -28 69 -28
t69 28q29 29 29 69q0 42 -29 69q-29 29 -69 29t-69 -29q-29 -27 -29 -69zM304 388q65 -1 111 -47.5t46 -111.5q0 -66 -46.5 -112.5t-112.5 -46.5t-112.5 46.5t-46.5 112.5q0 65 46 111.5t111 47.5h2h2zM371 160q29 27 29 69q0 40 -29 69q-29 28 -69 29v-1v1q-42 -2 -69 -29
q-29 -29 -29 -69q0 -42 29 -69q29 -29 69 -29t69 29z" />
    <glyph glyph-name="nine" unicode="9" 
d="M460 556v162l61 61v-779l-61 61v494v1zM292 714q66 0 112 -46t47 -112v-1v0q0 -65 -46.5 -111.5t-112.5 -46.5t-112.5 46.5t-46.5 111.5q0 66 46.5 112.5t112.5 46.5zM361 486q29 29 29 69q0 42 -29 69q-29 29 -69 29t-69 -29q-29 -27 -29 -69q0 -40 29 -69
q30 -28 69 -28t69 28zM451 502v-441l-61 -61v348q-44 -20 -98 -22q-96 2 -162 68q-67 67 -67 161q0 95 67 162t162 67q93 0 159 -64v-111q-17 50 -60.5 82t-98.5 32q-70 0 -119 -49t-49 -119q0 -69 49 -118t119 -49q55 0 98.5 32t60.5 82z" />
    <glyph glyph-name="colon" unicode=":" 
d="M357 0v131h-131v-131h131zM357 257v131h-131v-131h131z" />
    <glyph glyph-name="semicolon" unicode=";" 
d="M362 257v131h-131v-131h131zM231 131h131v-131l-61 -61v61h-70v131z" />
    <glyph glyph-name="semicolon" unicode="&#x37e;" 
d="M362 257v131h-131v-131h131zM231 131h131v-131l-61 -61v61h-70v131z" />
    <glyph glyph-name="less" unicode="&#x3c;" horiz-adv-x="800" 
d="M310 399l438 254l-84 22l-477 -276l477 -275l84 23zM170 399l490 -283l22 -83l-635 366l635 367l-22 -83z" />
    <glyph glyph-name="equal" unicode="=" horiz-adv-x="690" 
d="M631 233l-61 62h-458l-62 -62h581zM570 303h-458l-62 62h581zM570 481l61 -61h-581l62 61h458zM570 490h-458l-62 61h581z" />
    <glyph glyph-name="greater" unicode="&#x3e;" horiz-adv-x="795" 
d="M496 407l-438 -254l84 -22l477 276l-477 275l-84 -23zM636 407l-490 283l-22 83l635 -366l-635 -367l22 83z" />
    <glyph glyph-name="question" unicode="?" 
d="M294 -34l66 66l-66 66l-65 -66zM290 173v0l-61 -61v61v38q0 46 9.5 84.5t29.5 69t34 46.5t38 40q34 32 46.5 52.5t12.5 53.5q0 21 -7 38q-14 37 -52 54q-36 16 -75 1q-38 -15 -53 -52q-17 -38 -1 -75l22 -57l-79 35q-25 62 2 121q25 61 86.5 85t121.5 -2q45 -19 71 -60
t25 -88q0 -35 -12.5 -64.5t-25.5 -45.5t-39 -40q-31 -30 -46.5 -48.5t-31 -58.5t-15.5 -89v-38zM514 644q17 -44 16 -87q0 -49 -17.5 -90.5t-34 -61t-46.5 -48.5q-27 -26 -39 -40.5t-22.5 -42t-10.5 -63.5v-38v-61l-61 61v38q0 48 15.5 86.5t30 56t44.5 46.5q28 28 40.5 43
t26 46t13.5 68q1 50 -26.5 93t-74.5 63q-64 28 -128.5 2.5t-92.5 -89.5q-27 -65 -1 -128v-1l-35 -79l-23 57q-34 88 3 175q38 88 126 122q88 36 175 -2q88 -38 122 -126z" />
    <glyph glyph-name="at" unicode="@" horiz-adv-x="931" 
d="M599 598l-4 -267q0 -36 21 -57q18 -19 40 -19q16 0 28 10q20 15 31 40q16 41 16 92q0 111 -78.5 190.5t-189.5 79.5q-110 0 -188.5 -79.5t-78.5 -190.5t78.5 -190t188.5 -79h62l-62 -60q-136 0 -232.5 96.5t-96.5 232.5t96.5 232.5t232.5 96.5t233 -96.5t97 -232.5
q0 -58 -20 -112q-38 -91 -117 -91q-50 0 -85 37q-37 40 -37 100h-1v132q0 29 -20.5 49.5t-49.5 20.5t-49 -20.5t-21 -49.5v-132q0 -29 20.5 -49.5t49.5 -20.5q45 0 64 41q9 -48 38 -76q39 -41 91 -41q38 0 71.5 24t53.5 73q20 55 20 115q0 140 -99 239t-239 99
q-139 0 -238 -99t-99 -239t99 -239t238 -99v0l62 -58h-62q-168 0 -282 114q-117 117 -117 282t117 282q114 114 282 114q169 0 283 -114q117 -117 117 -282q0 -70 -25 -139l-3 -6q-25 -58 -73 -93q-49 -35 -105 -35h-1q-79 0 -135 59q-7 7 -19 23q-18 -6 -39 -6
q-54 0 -92.5 38.5t-38.5 92.5v0v132q0 54 38.5 92.5t92.5 38.5q55 0 93 -38zM463 524q26 0 44 -18t18 -43v-132q0 -25 -18.5 -43t-43.5 -18t-43 18t-18 43v132q0 25 18 43t43 18zM468 331v132q0 4 -5 4q-4 0 -4 -4v-132q0 -4 4 -4q5 0 5 4z" />
    <glyph glyph-name="A" unicode="A" horiz-adv-x="772" 
d="M702 191h-77l77 -189l-80 34l-87 216h106zM240 261h-109l-62 61h130l186 463l187 -463h130l-62 -61h-109l-146 360zM236 252l-87 -216l-80 -34l77 189h-77l62 61h105zM385 598l137 -337h-273zM340 322h91l-46 112zM525 252l89 -219l-34 -80l-96 238h-197l-96 -238l-34 80
l89 219h279z" />
    <glyph glyph-name="B" unicode="B" 
d="M458 392l2 -2q67 -67 67 -162q0 -94 -67 -161t-162 -67h-229v784h229q95 0 162 -67t67 -162q0 -93 -67 -162l-1 -1h-1zM298 61q70 0 119 49t49 119q0 59 -37 104.5t-93 58.5q56 13 93 58.5t37 104.5q0 70 -49 119t-119 49h-168v-662h168v0zM300 388q65 -2 111 -48
t46 -111q0 -66 -46.5 -112.5t-112.5 -46.5h-159v318h161zM367 160q29 27 29 68t-29 70q-28 28 -68 28h-99v-195h98q40 0 69 29zM300 396h-161v318h159q66 0 112.5 -46.5t46.5 -112.5q0 -63 -49.5 -110.5t-107.5 -48.5zM298 653h-98v-195h98q41 0 69 28q29 29 29 69
q0 42 -29 69q-29 29 -69 29z" />
    <glyph glyph-name="C" unicode="C" 
d="M531 494l-61 62q0 69 -49 118t-119 49q-69 0 -118 -49t-49 -118v-327q0 -69 49 -118t118 -49q70 0 119 49t49 118l61 62v-62q0 -95 -67 -162t-162 -67q-93 0 -162 67q-67 69 -67 162v327q0 93 67 162q69 67 162 67q95 0 162 -67t67 -162v-62zM461 556l-61 -61v61
q0 40 -29 69q-28 28 -69 28q-39 0 -69 -28q-29 -31 -29 -69v-327q0 -38 29 -69q28 -28 69 -28q43 0 69 28q29 29 29 69v62l61 -62q0 -66 -46.5 -112t-112.5 -47q-66 1 -112.5 47t-46.5 112v327q0 65 46.5 112t112.5 47t112.5 -47t46.5 -112z" />
    <glyph glyph-name="D" unicode="D" 
d="M303 714q66 0 112.5 -46.5t46.5 -112.5v-326q0 -66 -46.5 -112.5t-112.5 -46.5v0h-159v644h159v0zM401 229v326q-2 43 -29 69q-29 29 -69 29h-98v-522h98q40 0 69 29q27 26 29 69zM465 717q67 -67 67 -162v-326q0 -95 -67 -162q-69 -67 -162 -67h-229v784h229
q95 0 162 -67zM471 229v326q0 70 -49 119t-119 49v0h-168v-662h168q70 0 119 49t49 119z" />
    <glyph glyph-name="E" unicode="E" 
d="M136 62h332l62 -62h-456v785h456l-62 -62h-332v-661zM530 653h-324v-185h262l-61 -61h-262v308h323zM206 337v-205h324l-62 -62h-323v328h262l61 -61h-262z" />
    <glyph glyph-name="F" unicode="F" 
d="M133 61l-61 -61v784h455l-61 -61h-333v-662zM527 653h-324v-186h263l-61 -61h-263v308h324zM203 336v-336l-61 61v336h263l61 -61h-263z" />
    <glyph glyph-name="G" unicode="G" 
d="M282 406h243v-178q0 -96 -67 -161q-65 -67 -162 -67q-96 0 -161 67q-67 65 -67 161v327q0 95 67 162t161 67q95 0 162 -67t67 -162v-61l-61 61q0 70 -49 119t-119 49q-69 0 -118 -49t-49 -119v-327q0 -69 49 -118t118 -49q70 0 119 49t49 118v0v117h-121zM455 555
l-61 -61v61q0 39 -28 69q-29 29 -70 29q-40 0 -69 -29q-28 -30 -28 -69v-327q0 -40 28 -68q29 -29 69 -29q41 0 70 29q28 28 28 68v47h-112l61 61h112v-108v0q0 -65 -46.5 -111.5t-112.5 -46.5q-65 0 -111.5 46.5t-46.5 111.5v327q0 66 46.5 112.5t111.5 46.5
q66 0 112.5 -46.5t46.5 -112.5z" />
    <glyph glyph-name="H" unicode="H" 
d="M74 784l61 -61v-662l-61 -61v784zM398 784l61 -61v-317h-315v317l61 61v-317h193v317zM144 61v337h315v-337l-61 -61v336h-193v-336zM468 723l61 61v-784l-61 61v662z" />
    <glyph glyph-name="I" unicode="I" horiz-adv-x="472" 
d="M232 70h-102l-61 61h102v522h-102l61 62h102v-1v-644zM130 61h213l61 -61h-335zM343 715l61 -62h-102v-522h102l-61 -61h-102v0v645h102zM343 723h-213l-61 61h335z" />
    <glyph glyph-name="J" unicode="J" 
d="M470 723l61 61v-555q0 -97 -67 -162q-65 -67 -162 -67q-95 0 -162 67t-67 162v61l62 -61q0 -70 49 -119t118 -49q70 0 119 49t49 119v494zM302 70q-66 0 -112.5 46.5t-46.5 112.5l62 61v-61q0 -41 28 -69q29 -29 69 -29q42 0 69 29q29 27 29 69v555l61 -61v-494
q0 -66 -46.5 -112.5t-112.5 -46.5z" />
    <glyph glyph-name="K" unicode="K" 
d="M73 785l61 -62v-662l-61 -61v785zM435 696l-292 -292v319l61 62v-234l231 231v-86zM528 689l-298 -298l298 -298h-87l-298 298v0l298 298h87zM143 379l292 -292v-87l-231 231v-231l-61 61v318z" />
    <glyph glyph-name="L" unicode="L" 
d="M146 70v656l61 61v-656h324l-61 -61h-324zM137 61h333l61 -61h-455v787l61 -61v-665v0z" />
    <glyph glyph-name="M" unicode="M" horiz-adv-x="767" 
d="M382 314l334 470v-784l-62 61v531l-272 -384l-272 384v-531l-61 -61v784zM646 61l-62 -61v372l-202 -285l-202 285v-372l-61 61v503l263 -371l264 371v-503z" />
    <glyph glyph-name="N" unicode="N" 
d="M526 785v-788l-327 413v-410l-62 62v524l328 -413v551zM129 611v-549l-62 -62v787l328 -413v411l61 -61v-526z" />
    <glyph glyph-name="O" unicode="O" 
d="M295 715q65 0 111.5 -47t46.5 -112v-327q0 -66 -46 -112t-112 -47q-66 1 -112.5 47t-46.5 112v327q0 65 46.5 112t112.5 47zM392 229v327q0 39 -28 69q-30 28 -69 28q-40 0 -70 -28q-28 -30 -28 -69v-327q0 -39 28 -69q28 -28 70 -28q41 0 69 28q28 30 28 69zM456 718
q68 -68 68 -162v-327q0 -94 -68 -162q-67 -67 -161 -67q-95 0 -162 67t-67 162v327q0 95 67 162t162 67q94 0 161 -67zM462 229v327q0 69 -49 118t-118 49q-70 0 -119 -49t-49 -118v-327q0 -69 49 -118t119 -49q69 0 118 49t49 118z" />
    <glyph glyph-name="P" unicode="P" 
d="M306 396h-98h-61v106v212h159q66 0 112.5 -46.5t46.5 -112.5t-46.5 -112.5t-112.5 -46.5zM208 653v-196h99q41 2 68 29q29 29 29 69q0 42 -29 69q-29 29 -69 29h-98zM535 555q0 -93 -67 -162q-67 -67 -161 -67v0h-1h-98v-326l-61 61v327h159v0q70 0 119 49t49 118
q0 70 -49 119t-119 49h-168v-662l-61 -61v784h229q95 0 162 -67t67 -162z" />
    <glyph glyph-name="Q" unicode="Q" horiz-adv-x="631" 
d="M292 70q-66 0 -112.5 46.5t-46.5 112.5v326q0 66 46.5 112.5t112.5 46.5t112.5 -46.5t46.5 -112.5v-326q0 -27 -9 -51q-10 -30 -32 -55l-6 -6q-24 -24 -52 -35q-27 -12 -60 -12zM194 555v-326q0 -40 29 -69q27 -29 69 -29q40 0 69 29t29 69v326q0 41 -29 70
q-30 28 -69 28q-41 0 -69 -28q-29 -29 -29 -70zM495 124l125 -124h-87l-117 117q22 22 33 54q11 28 11 58v326q0 70 -49 119t-119 49t-119 -49t-49 -119v-326q0 -70 49 -119t119 -49q34 0 67 14q30 14 51 35l117 -116v-87l-123 123q-52 -30 -112 -30q-95 0 -162 67t-67 162
v326q0 95 67 162q65 67 162 67q95 0 162 -67t67 -162v-326q0 -56 -26 -105z" />
    <glyph glyph-name="R" unicode="R" 
d="M300 388v0v0zM402 350q56 -48 56 -121v-168l-61 -61v229q0 39 -28 69q-30 28 -69 28h-98v-326l-61 61v327h159q58 -1 102 -38zM460 392l1 -1q68 -68 68 -162v-229l-62 61v168q0 76 -57 126q-33 28 -72 37q41 9 72 37q57 50 57 126q0 70 -49 119t-118 49h-168v-662
l-61 -61v784h229q96 0 161 -67q68 -66 68 -162q0 -94 -68 -162zM402 434q-44 -38 -102 -38h-98h-61v106v212h159q65 0 111.5 -46.5t46.5 -112.5q0 -73 -56 -121zM202 653v-195h98q39 0 69 28q28 30 28 69q0 41 -28 69q-29 29 -69 29h-98z" />
    <glyph glyph-name="S" unicode="S" 
d="M447 380q75 -69 75 -160q0 -95 -69 -159q-67 -61 -160 -61q-95 0 -162 67t-67 162v61l61 -61q0 -69 49 -118.5t119 -49.5t118 45q49 44 49 114q0 65 -55 115q-45 42 -111 61q-66 20 -113 65t-47 103q0 64 45.5 107t113.5 43q65 0 111.5 -46.5t46.5 -111.5v-1l-61 -61v62
q0 40 -28.5 68.5t-68.5 28.5q-43 0 -70.5 -25t-27.5 -64q0 -37 36.5 -66.5t79.5 -42.5q80 -23 136 -75zM293 784q95 0 162 -67t67 -161v-62l-62 62q0 69 -49 118t-118 49q-70 0 -119 -44q-49 -46 -49 -115q0 -62 49 -109t117 -67q66 -20 113 -65t47 -103q0 -64 -45.5 -107
t-112.5 -43q-66 0 -112.5 46.5t-46.5 112.5l61 61v-61q0 -41 28.5 -69.5t69.5 -28.5q42 0 69.5 25.5t27.5 63.5q0 36 -35 66t-81 43q-78 23 -135 75q-75 69 -75 160q0 95 68 160q66 60 161 60z" />
    <glyph glyph-name="T" unicode="T" 
d="M74 784h458l-62 -61h-335zM298 61l-61 -61v653h-163l61 61h163v-653zM307 714h163l62 -61h-164v-653l-61 61v653z" />
    <glyph glyph-name="U" unicode="U" 
d="M467 729l61 61v-561q0 -95 -67 -162t-162 -67q-93 0 -162 67q-67 69 -67 162v561l62 -61v-500q0 -69 49 -118t118 -49q70 0 119 49t49 118v500zM299 70q-66 1 -112.5 47t-46.5 112v500l62 61v-561q0 -39 28 -69q28 -28 69 -28q43 0 69 28q29 29 29 69v561l61 -61v-500
q0 -66 -46.5 -112t-112.5 -47z" />
    <glyph glyph-name="V" unicode="V" horiz-adv-x="733" 
d="M597 749l80 34l-317 -783l-316 783l80 -34l236 -585zM360 187l-228 566l34 79l194 -481l195 481l34 -79z" />
    <glyph glyph-name="W" unicode="W" horiz-adv-x="979" 
d="M481 490l-122 -303l-228 565l34 80l194 -481l56 139l-98 244l79 -34zM849 749l80 34l-316 -783l-127 314l-127 -314l-316 783l80 -34l236 -585l127 314l127 -314zM491 490l85 210l79 34l-98 -244l56 -139l194 481l34 -80l-228 -565zM486 501l-81 202l33 80l48 -118
l48 118l33 -80z" />
    <glyph glyph-name="X" unicode="X" 
d="M528 0l-61 62v165v3q0 59 -37 104.5t-93 58.5q56 13 93 58.5t37 104.5v167l61 62v-229v0q0 -93 -67 -162q-1 0 -1 -0.5t-1 -0.5l2 -2q67 -67 67 -162v-229zM458 229v0v-167l-61 -62v229q0 42 -29 69q-29 29 -69 29v0v0v0q-42 0 -69 -29q-29 -27 -29 -69v-229l-61 62v167
v0v1q0 65 46 111t111 47h4q65 -1 111 -47t46 -111v-1zM297 397q-58 1 -107.5 48.5t-49.5 110.5v167l61 62v-229q0 -40 29 -69t69 -29t69 29t29 69v229l61 -62v-167q0 -63 -49.5 -110.5t-107.5 -48.5h-4zM261 393q-56 -13 -93 -58.5t-37 -104.5v-3v-165l-61 -62v229
q0 95 67 162l2 2q-1 0 -1 0.5t-1 0.5q-67 69 -67 162v0v229l61 -62v-167q0 -59 37 -104.5t93 -58.5z" />
    <glyph glyph-name="Y" unicode="Y" 
d="M459 556q-1 -66 -47.5 -112.5t-111.5 -46.5q-66 0 -112.5 46.5t-46.5 112.5v167l61 61v-228q0 -42 29 -69q27 -29 69 -29q40 0 69 29q28 28 28 69v228l62 -61v-167zM132 556q0 -68 47.5 -117t115.5 -51v-327l-61 -61v336q-56 17 -96 58q-67 65 -67 162v228l61 -61v-167z
M467 723l62 61v-228q0 -96 -68 -162q-40 -41 -96 -58v-336l-61 61v327q68 2 115.5 51t47.5 117v167z" />
    <glyph glyph-name="Z" unicode="Z" horiz-adv-x="579" 
d="M431 723h-307l-61 61h458l-263 -653h263l-61 -61h-293zM521 0h-458l264 653h-264l62 61h293l-264 -653h306z" />
    <glyph glyph-name="bracketleft" unicode="[" 
d="M271 -61h324l-61 -61h-324v1029h324l61 -61h-324v-907zM595 -193h-455v1170h455l-61 -61h-333v-1047h333z" />
    <glyph glyph-name="backslash" unicode="\" horiz-adv-x="1005" 
d="M896 0l-790 789v87l876 -876h-86zM890 -7v-86l-877 876h87z" />
    <glyph glyph-name="bracketright" unicode="]" 
d="M324 846h-324l61 61h324v-1029h-324l-61 61h324v907zM0 977h455v-1170h-455l61 62h333v1047h-333z" />
    <glyph glyph-name="asciicircum" unicode="^" 
d="M531 932h-87l-140 140l-140 -140h-87l227 227zM438 839l-134 134l-134 -134v87l134 134l134 -134v-87z" />
    <glyph glyph-name="underscore" unicode="_" 
d="M611 -136h-617l-61 61h739z" />
    <glyph glyph-name="grave" unicode="`" 
d="M217 1079v87l194 -194l43 -130zM211 1073l237 -237l-130 43l-194 194h87z" />
    <glyph glyph-name="a" unicode="a" horiz-adv-x="785" 
d="M702 191h-77l77 -189l-80 34l-87 216h106zM240 261h-109l-62 61h130l186 463l187 -463h130l-62 -61h-109l-146 360zM236 252l-87 -216l-80 -34l77 189h-77l62 61h105zM385 598l137 -337h-273zM340 322h91l-46 112zM525 252l89 -219l-34 -80l-96 238h-197l-96 -238l-34 80
l89 219h279z" />
    <glyph glyph-name="b" unicode="b" 
d="M458 392l2 -2q67 -67 67 -162q0 -94 -67 -161t-162 -67h-229v784h229q95 0 162 -67t67 -162q0 -93 -67 -162l-1 -1h-1zM298 61q70 0 119 49t49 119q0 59 -37 104.5t-93 58.5q56 13 93 58.5t37 104.5q0 70 -49 119t-119 49h-168v-662h168zM300 388q65 -2 111 -48t46 -111
q0 -66 -46.5 -112.5t-112.5 -46.5h-159v318h161zM367 160q29 27 29 68t-29 70q-28 28 -68 28h-99v-195h98q40 0 69 29zM300 396h-161v318h159q66 0 112.5 -46.5t46.5 -112.5q0 -63 -49.5 -110.5t-107.5 -48.5zM298 653h-98v-195h98q41 0 69 28q29 29 29 69q0 42 -29 69
q-29 29 -69 29z" />
    <glyph glyph-name="c" unicode="c" 
d="M531 494l-61 62q0 69 -49 118t-119 49q-69 0 -118 -49t-49 -118v-327q0 -69 49 -118t118 -49q70 0 119 49t49 118l61 62v-62q0 -95 -67 -162t-162 -67q-93 0 -162 67q-67 69 -67 162v327q0 93 67 162q69 67 162 67q95 0 162 -67t67 -162v-62zM461 556l-61 -61v61
q0 40 -29 69q-28 28 -69 28q-39 0 -69 -28q-29 -31 -29 -69v-327q0 -38 29 -69q28 -28 69 -28q43 0 69 28q29 29 29 69v62l61 -62q0 -66 -46.5 -112t-112.5 -47q-66 1 -112.5 47t-46.5 112v327q0 65 46.5 112t112.5 47t112.5 -47t46.5 -112z" />
    <glyph glyph-name="d" unicode="d" 
d="M303 714q66 0 112.5 -46.5t46.5 -112.5v-326q0 -66 -46.5 -112.5t-112.5 -46.5v0h-159v644h159zM401 229v326q-2 43 -29 69q-29 29 -69 29h-98v-522h98q40 0 69 29q27 26 29 69zM465 717q67 -67 67 -162v-326q0 -95 -67 -162q-69 -67 -162 -67h-229v784h229q95 0 162 -67
zM471 229v326q0 70 -49 119t-119 49v0h-168v-662h168q70 0 119 49t49 119z" />
    <glyph glyph-name="e" unicode="e" 
d="M136 62h332l62 -62h-456v785h456l-62 -62h-332v-661zM530 653h-324v-185h262l-61 -61h-262v308h323zM206 337v-205h324l-62 -62h-323v328h262l61 -61h-262z" />
    <glyph glyph-name="f" unicode="f" 
d="M133 61l-61 -61v784h455l-61 -61h-333v-662zM527 653h-324v-186h263l-61 -61h-263v308h324zM203 336v-336l-61 61v336h263l61 -61h-263z" />
    <glyph glyph-name="g" unicode="g" 
d="M282 406h243v-178q0 -96 -67 -161q-65 -67 -162 -67q-96 0 -161 67q-67 65 -67 161v327q0 95 67 162t161 67q95 0 162 -67t67 -162v-61l-61 61q0 70 -49 119t-119 49q-69 0 -118 -49t-49 -119v-327q0 -69 49 -118t118 -49q70 0 119 49t49 118v0v117h-121zM455 555
l-61 -61v61q0 39 -28 69q-29 29 -70 29q-40 0 -69 -29q-28 -30 -28 -69v-327q0 -40 28 -68q29 -29 69 -29q41 0 70 29q28 28 28 68v47h-112l61 61h112v-108v0q0 -65 -46.5 -111.5t-112.5 -46.5q-65 0 -111.5 46.5t-46.5 111.5v327q0 66 46.5 112.5t111.5 46.5
q66 0 112.5 -46.5t46.5 -112.5z" />
    <glyph glyph-name="h" unicode="h" 
d="M74 784l61 -61v-662l-61 -61v784zM398 784l61 -61v-317h-315v317l61 61v-317h193v317zM144 61v337h315v-337l-61 -61v336h-193v-336zM468 723l61 61v-784l-61 61v662z" />
    <glyph glyph-name="i" unicode="i" horiz-adv-x="479" 
d="M232 70h-102l-61 61h102v522h-102l61 62h102v-1v-644zM130 61h213l61 -61h-335zM343 715l61 -62h-102v-522h102l-61 -61h-102v0v645h102zM343 723h-213l-61 61h335z" />
    <glyph glyph-name="j" unicode="j" 
d="M470 723l61 61v-555q0 -97 -67 -162q-65 -67 -162 -67q-95 0 -162 67t-67 162v61l62 -61q0 -70 49 -119t118 -49q70 0 119 49t49 119v494zM302 70q-66 0 -112.5 46.5t-46.5 112.5l62 61v-61q0 -41 28 -69q29 -29 69 -29q42 0 69 29q29 27 29 69v555l61 -61v-494
q0 -66 -46.5 -112.5t-112.5 -46.5z" />
    <glyph glyph-name="k" unicode="k" 
d="M73 785l61 -62v-662l-61 -61v785zM435 696l-292 -292v319l61 62v-234l231 231v-86zM528 689l-298 -298l298 -298h-87l-298 298v0l298 298h87zM143 379l292 -292v-87l-231 231v-231l-61 61v318z" />
    <glyph glyph-name="l" unicode="l" 
d="M146 70v656l61 61v-656h324l-61 -61h-324zM137 61h333l61 -61h-455v787l61 -61v-665z" />
    <glyph glyph-name="m" unicode="m" horiz-adv-x="774" 
d="M382 314l334 470v-784l-62 61v531l-272 -384l-272 384v-531l-61 -61v784zM646 61l-62 -61v372l-202 -285l-202 285v-372l-61 61v503l263 -371l264 371v-503z" />
    <glyph glyph-name="n" unicode="n" 
d="M526 785v-788l-327 413v-410l-62 62v524l328 -413v551zM129 611v-549l-62 -62v787l328 -413v411l61 -61v-526z" />
    <glyph glyph-name="o" unicode="o" 
d="M295 715q65 0 111.5 -47t46.5 -112v-327q0 -66 -46 -112t-112 -47q-66 1 -112.5 47t-46.5 112v327q0 65 46.5 112t112.5 47zM392 229v327q0 39 -28 69q-30 28 -69 28q-40 0 -70 -28q-28 -30 -28 -69v-327q0 -39 28 -69q28 -28 70 -28q41 0 69 28q28 30 28 69zM456 718
q68 -68 68 -162v-327q0 -94 -68 -162q-67 -67 -161 -67q-95 0 -162 67t-67 162v327q0 95 67 162t162 67q94 0 161 -67zM462 229v327q0 69 -49 118t-118 49q-70 0 -119 -49t-49 -118v-327q0 -69 49 -118t119 -49q69 0 118 49t49 118z" />
    <glyph glyph-name="p" unicode="p" 
d="M306 396h-98h-61v106v212h159q66 0 112.5 -46.5t46.5 -112.5t-46.5 -112.5t-112.5 -46.5zM208 653v-196h99q41 2 68 29q29 29 29 69q0 42 -29 69q-29 29 -69 29h-98zM535 555q0 -93 -67 -162q-67 -67 -161 -67v0h-1h-98v-326l-61 61v327h159v0q70 0 119 49t49 118
q0 70 -49 119t-119 49h-168v-662l-61 -61v784h229q95 0 162 -67t67 -162z" />
    <glyph glyph-name="q" unicode="q" horiz-adv-x="636" 
d="M292 70q-66 0 -112.5 46.5t-46.5 112.5v326q0 66 46.5 112.5t112.5 46.5t112.5 -46.5t46.5 -112.5v-326q0 -27 -9 -51q-10 -30 -32 -55l-6 -6q-24 -24 -52 -35q-27 -12 -60 -12zM194 555v-326q0 -40 29 -69q27 -29 69 -29q40 0 69 29t29 69v326q0 41 -29 70
q-30 28 -69 28q-41 0 -69 -28q-29 -29 -29 -70zM495 124l125 -124h-87l-117 117q22 22 33 54q11 28 11 58v326q0 70 -49 119t-119 49t-119 -49t-49 -119v-326q0 -70 49 -119t119 -49q34 0 67 14q30 14 51 35l117 -116v-87l-123 123q-52 -30 -112 -30q-95 0 -162 67t-67 162
v326q0 95 67 162q65 67 162 67q95 0 162 -67t67 -162v-326q0 -56 -26 -105z" />
    <glyph glyph-name="r" unicode="r" 
d="M300 388zM402 350q56 -48 56 -121v-168l-61 -61v229q0 39 -28 69q-30 28 -69 28h-98v-326l-61 61v327h159q58 -1 102 -38zM460 392l1 -1q68 -68 68 -162v-229l-62 61v168q0 76 -57 126q-33 28 -72 37q41 9 72 37q57 50 57 126q0 70 -49 119t-118 49h-168v-662l-61 -61
v784h229q96 0 161 -67q68 -66 68 -162q0 -94 -68 -162zM402 434q-44 -38 -102 -38h-98h-61v106v212h159q65 0 111.5 -46.5t46.5 -112.5q0 -73 -56 -121zM202 653v-195h98q39 0 69 28q28 30 28 69q0 41 -28 69q-29 29 -69 29h-98z" />
    <glyph glyph-name="s" unicode="s" 
d="M447 380q75 -69 75 -160q0 -95 -69 -159q-67 -61 -160 -61q-95 0 -162 67t-67 162v61l61 -61q0 -69 49 -118.5t119 -49.5t118 45q49 44 49 114q0 65 -55 115q-45 42 -111 61q-66 20 -113 65t-47 103q0 64 45.5 107t113.5 43q65 0 111.5 -46.5t46.5 -111.5v-1l-61 -61v62
q0 40 -28.5 68.5t-68.5 28.5q-43 0 -70.5 -25t-27.5 -64q0 -37 36.5 -66.5t79.5 -42.5q80 -23 136 -75zM293 784q95 0 162 -67t67 -161v-62l-62 62q0 69 -49 118t-118 49q-70 0 -119 -44q-49 -46 -49 -115q0 -62 49 -109t117 -67q66 -20 113 -65t47 -103q0 -64 -45.5 -107
t-112.5 -43q-66 0 -112.5 46.5t-46.5 112.5l61 61v-61q0 -41 28.5 -69.5t69.5 -28.5q42 0 69.5 25.5t27.5 63.5q0 36 -35 66t-81 43q-78 23 -135 75q-75 69 -75 160q0 95 68 160q66 60 161 60z" />
    <glyph glyph-name="t" unicode="t" 
d="M74 784h458l-62 -61h-335zM298 61l-61 -61v653h-163l61 61h163v-653zM307 714h163l62 -61h-164v-653l-61 61v653z" />
    <glyph glyph-name="u" unicode="u" 
d="M467 729l61 61v-561q0 -95 -67 -162t-162 -67q-93 0 -162 67q-67 69 -67 162v561l62 -61v-500q0 -69 49 -118t118 -49q70 0 119 49t49 118v500zM299 70q-66 1 -112.5 47t-46.5 112v500l62 61v-561q0 -39 28 -69q28 -28 69 -28q43 0 69 28q29 29 29 69v561l61 -61v-500
q0 -66 -46.5 -112t-112.5 -47z" />
    <glyph glyph-name="v" unicode="v" horiz-adv-x="723" 
d="M597 749l80 34l-317 -783l-316 783l80 -34l236 -585zM360 187l-228 566l34 79l194 -481l195 481l34 -79z" />
    <glyph glyph-name="w" unicode="w" horiz-adv-x="972" 
d="M481 490l-122 -303l-228 565l34 80l194 -481l56 139l-98 244l79 -34zM849 749l80 34l-316 -783l-127 314l-127 -314l-316 783l80 -34l236 -585l127 314l127 -314zM491 490l85 210l79 34l-98 -244l56 -139l194 481l34 -80l-228 -565zM486 501l-81 202l33 80l48 -118
l48 118l33 -80z" />
    <glyph glyph-name="x" unicode="x" 
d="M528 0l-61 62v165v3q0 59 -37 104.5t-93 58.5q56 13 93 58.5t37 104.5v167l61 62v-229v0q0 -93 -67 -162q-1 0 -1 -0.5t-1 -0.5l2 -2q67 -67 67 -162v-229zM458 229v-167l-61 -62v229q0 42 -29 69q-29 29 -69 29v0v0v0q-42 0 -69 -29q-29 -27 -29 -69v-229l-61 62v167v0
v1q0 65 46 111t111 47h4q65 -1 111 -47t46 -111v-1zM297 397q-58 1 -107.5 48.5t-49.5 110.5v167l61 62v-229q0 -40 29 -69t69 -29t69 29t29 69v229l61 -62v-167q0 -63 -49.5 -110.5t-107.5 -48.5h-4zM261 393q-56 -13 -93 -58.5t-37 -104.5v-3v-165l-61 -62v229
q0 95 67 162l2 2q-1 0 -1 0.5t-1 0.5q-67 69 -67 162v0v229l61 -62v-167q0 -59 37 -104.5t93 -58.5z" />
    <glyph glyph-name="y" unicode="y" 
d="M459 556q-1 -66 -47.5 -112.5t-111.5 -46.5q-66 0 -112.5 46.5t-46.5 112.5v167l61 61v-228q0 -42 29 -69q27 -29 69 -29q40 0 69 29q28 28 28 69v228l62 -61v-167zM132 556q0 -68 47.5 -117t115.5 -51v-327l-61 -61v336q-56 17 -96 58q-67 65 -67 162v228l61 -61v-167z
M467 723l62 61v-228q0 -96 -68 -162q-40 -41 -96 -58v-336l-61 61v327q68 2 115.5 51t47.5 117v167z" />
    <glyph glyph-name="z" unicode="z" 
d="M431 723h-307l-61 61h458l-263 -653h263l-61 -61h-293zM521 0h-458l264 653h-264l62 61h293l-264 -653h306z" />
    <glyph glyph-name="braceleft" unicode="{" 
d="M183 401l-62 61h62q40 0 69 29q28 28 28 69v192q0 95 67 162q69 67 162 67h61l-61 -61q-69 0 -118 -49t-49 -119v-192q0 -73 -57 -122q-45 -37 -102 -37zM350 560v192q0 66 47 112.5t112 46.5l61 -61h-61q-40 0 -69 -29q-28 -30 -28 -69v-192q0 -95 -67 -162l-2 -2l2 -1
q67 -69 67 -162v-193q0 -39 28 -69q30 -28 69 -28h61l-61 -61q-65 0 -112 46.5t-47 111.5v1v192q0 76 -57 126q-31 28 -72 37q41 11 72 37q57 50 57 127zM509 -127l61 -61h-61q-95 0 -162 67t-67 161v193q0 39 -28 69q-29 29 -69 29h-62l62 61q57 0 102 -37q56 -49 57 -122
v-193q0 -69 49 -118t118 -49z" />
    <glyph glyph-name="bar" unicode="|" 
d="M303 848l61 61v-1027l-61 62v904zM294 848v-904l-61 -62v1027z" />
    <glyph glyph-name="braceright" unicode="}" 
d="M451 392l62 -61h-62q-40 0 -69 -29q-28 -28 -28 -69v-192q0 -95 -67 -162q-69 -67 -162 -67h-61l61 61q69 0 118 49t49 119v192q0 73 57 122q45 37 102 37zM284 233v-192q0 -66 -47 -112.5t-112 -46.5l-61 61h61q40 0 69 29q28 30 28 69v192q0 95 67 162l2 2l-2 1
q-67 69 -67 162v193q0 39 -28 69q-30 28 -69 28h-61l61 61q65 0 112 -46.5t47 -111.5v-1v-192q0 -76 57 -126q31 -28 72 -37q-41 -11 -72 -37q-57 -50 -57 -127zM125 920l-61 61h61q95 0 162 -67t67 -161v-193q0 -39 28 -69q29 -29 69 -29h62l-62 -61q-57 0 -102 37
q-56 49 -57 122v193q0 69 -49 118t-118 49z" />
    <glyph glyph-name="asciitilde" unicode="~" 
d="M430 291h86l-43 -43q-48 -48 -115.5 -48t-115.5 48q-9 9 -22.5 9t-22.5 -9l-44 -43v86q28 28 66.5 28t65.5 -28v0q30 -30 72.5 -30t72.5 30zM292 297q-30 30 -72.5 30t-72.5 -30v0h-86l43 44q48 47 115.5 47t115.5 -47q9 -10 22.5 -10t22.5 9l44 44v-87
q-28 -27 -66.5 -27t-65.5 27z" />
    <glyph glyph-name="exclamdown" unicode="&#xa1;" 
d="M231 32l61 -61v671l-61 -61v-549zM222 32v549l-61 61v-671zM227 786l65 -66l-65 -65l-66 65z" />
    <glyph glyph-name="cent" unicode="&#xa2;" horiz-adv-x="721" 
d="M362 811l62 62v-169q105 -15 178 -90l43 -43h-86q-75 75 -182 75h-15v165zM552 215q-71 -73 -175 -73q-9 0 -15 1v494q3 0 8 0.5t7 0.5q103 0 176 -73v-87l-44 44q-36 36 -85 48v-361q50 13 85 49l44 44zM559 209h86l-43 -44q-74 -74 -178 -89v-169l-62 62v165h15
q107 0 182 75v0zM130 390q0 96 64.5 166.5t159.5 79.5v-492q-95 9 -159.5 79.5t-64.5 166.5zM292 555q-46 -23 -73.5 -67.5t-27.5 -97.5t27.5 -97.5t73.5 -68.5v331zM354 -31l-62 -62v177q-102 28 -167 113t-65 193t65 193t167 113v177l62 -62v-166q-99 -9 -166 -82.5
t-67 -172.5q0 -100 67 -173t166 -82v-166z" />
    <glyph glyph-name="sterling" unicode="&#xa3;" 
d="M221 200q0 47 -18 130h83l61 -62h-70q5 -37 5 -68q0 -38 -8 -69h272l-61 -61h-336q72 28 72 130zM110 131q22 5 30 17q11 13 11 52q0 24 -7 68h-90l61 62h79q18 -83 18 -130q0 -55 -22 -88t-75 -42l-61 61h56zM480 717q67 -67 67 -162v-61l-62 61q0 70 -49 119t-118 49
q-70 0 -119 -49t-49 -119h9q0 66 46.5 112.5t112.5 46.5q65 0 112 -46.5t47 -112.5l-62 -61v61q0 40 -28 70q-30 28 -69 28q-41 0 -69 -28q-29 -29 -29 -70q-1 -35 29 -154q0 -1 1 -1h97l-61 -62h-85l-14 58.5l-14 61t-9.5 50.5t-4.5 47h-9q0 -20 4.5 -48t9.5 -50
t14.5 -60.5t13.5 -58.5h-77l-61 62h60q-25 102 -25 155q0 97 67 162q65 67 162 67q95 0 162 -67zM115 61h370l61 -61h-492z" />
    <glyph glyph-name="currency" unicode="&#xa4;" horiz-adv-x="785" 
d="M217 389q0 -68 46 -116l-105 -105h-87l112 112q-28 50 -28 109q0 58 28 108l-112 112h87l105 -105q-46 -48 -46 -115zM552 389q0 66 -46 115l105 105h86l-111 -112q27 -51 27 -108q0 -58 -27 -109l111 -112h-86l-105 105q46 49 46 116zM499 267l106 -105v-87l-112 112
q-51 -27 -109 -27q-57 0 -109 27l-111 -112v87l105 105q48 -46 115 -46q69 0 115 46zM543 389q0 -66 -46.5 -112.5t-112.5 -46.5t-112.5 46.5t-46.5 112.5q0 65 46.5 111.5t112.5 46.5t112.5 -46.5t46.5 -111.5zM287 389q0 -40 28 -70q30 -28 69 -28q41 0 69 28q29 29 29 70
q0 40 -29 69q-28 28 -69 28q-39 0 -69 -28q-28 -30 -28 -69zM269 510l-44 43l-61 62v87l111 -112q49 27 109 27q61 0 109 -27l112 112l-1 -87h1l-105 -105q-48 46 -116 46q-67 0 -115 -46z" />
    <glyph glyph-name="yen" unicode="&#xa5;" 
d="M286 172h-164l-61 61h163v64h-163l61 62h164v-187zM286 61l-62 -61v102h-163l61 61h164v-102zM290 499q-66 0 -112.5 46.5t-46.5 111.5v66l61 61v-127q0 -41 29 -68q29 -29 69 -29t69 29q29 27 29 68v127l61 -61v-66q0 -65 -46.5 -111.5t-112.5 -46.5zM61 429h163v9
q-55 17 -96 58q-67 67 -67 161v127l61 -61v-66q0 -68 48 -116.5t116 -50.5v-9v-114h-164zM458 723l61 61v-127q0 -94 -67 -161q-41 -41 -96 -58v-9h163l-61 -62h-164v123q68 2 116 50.5t48 116.5v66zM294 359h164l61 -62h-163v-64h163l-61 -61h-164v187zM294 163h164l61 -61
h-163v-102l-62 61v102z" />
    <glyph glyph-name="brokenbar" unicode="&#xa6;" 
d="M303 252l61 61v-431l-61 62v308zM294 252v-308l-61 -62v431zM303 840l61 61v-431l-61 62v308zM294 840v-308l-61 -62v431z" />
    <glyph glyph-name="section" unicode="&#xa7;" horiz-adv-x="687" 
d="M550 382q75 -69 75 -160q0 -95 -69 -159q-13 -11 -26 -20q-5 -90 -69 -150q-65 -60 -160 -60t-162 67t-67 161v62l61 -62q0 -69 49.5 -118t118.5 -49q70 0 119 44q31 30 44 74q5 22 5 41q0 7 -2 25q26 11 47 30l6 6q43 45 43 108q0 65 -55 115q-45 42 -111 61
q-66 20 -113 65t-47 103q0 65 45.5 108t113.5 43q65 0 112 -47t47 -112l-62 -62v62q0 40 -28.5 68.5t-68.5 28.5q-43 0 -70.5 -25t-27.5 -64q0 -37 37 -66.5t79 -42.5q79 -23 136 -75zM396 787q94 0 161.5 -67.5t67.5 -161.5v-62l-62 62q0 69 -49 118t-118 49
q-70 0 -119 -44q-33 -32 -44 -74q-5 -22 -5 -41q0 -7 2 -25q-26 -11 -47 -30q-4 -4 -7 -6q-43 -46 -43 -108t49 -109t118 -68q66 -19 113 -63.5t47 -103.5q0 -64 -45.5 -107t-113.5 -43q-65 0 -112 46.5t-47 111.5l61 62v-62q0 -40 29 -68.5t69 -28.5q43 0 70.5 25t27.5 64
q0 36 -35 65.5t-82 43.5q-80 24 -134 75q-76 68 -76 160q0 95 69 159q8 8 26 20q3 89 69 150t160 61zM517 124q-21 -24 -52 -38q-7 29 -27 55q-12 15 -24 26q-45 42 -112 62q-65 19 -112.5 64t-47.5 104q0 58 38 99q22 23 52 37q6 -26 27 -55q47 -62 135 -88
q66 -20 113.5 -64.5t47.5 -103.5q0 -57 -38 -98zM455 212q13 -11 29 -30q9 18 9 40q0 36 -35 66t-81 43q-81 25 -135 75q-14 13 -29 31q-10 -20 -10 -40q0 -37 37.5 -67t79.5 -42q82 -26 135 -76z" />
    <glyph glyph-name="dieresis" unicode="&#xa8;" 
d="M107 849h131v131h-131v-131zM364 849h131v131h-131v-131z" />
    <glyph glyph-name="copyright" unicode="&#xa9;" horiz-adv-x="930" 
d="M460 722q136 0 232.5 -96.5t96.5 -232.5t-96.5 -232.5t-232.5 -96.5t-232.5 96t-96.5 233q0 136 96.5 232.5t232.5 96.5zM460 123q110 0 189 79.5t79 190.5t-79 190t-189 79q-111 0 -189.5 -79t-78.5 -190t78.5 -190.5t189.5 -79.5zM742 675q117 -117 117 -282t-117 -282
q-114 -114 -282 -114q-170 0 -282 114q-117 115 -117 282t117 282q113 113 282 113q167 0 282 -113zM460 55q140 0 239 99.5t99 238.5t-99 238.5t-239 99.5t-239 -99t-99 -239t99 -239t239 -99zM591 387v-60v0q0 -54 -38.5 -92.5t-92.5 -38.5q-55 0 -93.5 38.5t-38.5 92.5h1
h-1v132q0 54 38.5 92.5t93.5 38.5q54 0 92.5 -38.5t38.5 -92.5v-60l-61 60v0q-1 29 -21.5 49.5t-48.5 20.5q-29 0 -49.5 -20.5t-20.5 -49.5v-132q0 -29 20.5 -49.5t49.5 -20.5q28 0 49 20.5t21 49.5zM521 459l-57 -57v57q0 4 -4 4q-5 0 -5 -4v-132q0 -4 5 -4q4 0 4 4v57
l57 -57q0 -25 -18 -43t-43 -18t-43.5 18t-18.5 43v132q0 25 18.5 43t43.5 18t43 -18t18 -43z" />
    <glyph glyph-name="ordfeminine" unicode="&#xaa;" 
d="M431 755v-70v-131v-70v-61l-38 38q-38 -38 -93 -38q-54 0 -92.5 38t-38.5 93v0v131q0 55 38.5 93t92.5 38q55 0 93 -38l38 38v-61zM370 554v132q0 29 -20.5 49t-49.5 20q-28 0 -48.5 -20t-21.5 -49v-132q0 -29 20.5 -49.5t49.5 -20.5t49.5 20.5t20.5 49.5zM300 746
q26 0 43.5 -18t17.5 -43v-131q0 -26 -17.5 -43.5t-43.5 -17.5t-43.5 17.5t-17.5 43.5v131q0 25 17.5 43t43.5 18zM305 554v131q0 5 -5 5q-4 0 -4 -5v-131q0 -4 4 -4q5 0 5 4zM431 291l62 -61h-385l61 61h262zM431 300h-262l-62 61h386z" />
    <glyph glyph-name="guillemotleft" unicode="&#xab;" horiz-adv-x="1238" 
d="M352 426l438 253l-84 22l-477 -275l477 -276l84 23zM212 426l490 -283l22 -84l-635 367l635 367l-22 -84zM737 426l438 253l-84 22l-477 -275l477 -276l84 23zM597 426l490 -283l22 -84l-635 367l635 367l-22 -84z" />
    <glyph glyph-name="logicalnot" unicode="&#xac;" horiz-adv-x="903" 
d="M756 417h-656l-62 -61h656v-324l62 62v323zM764 426v-332l62 -62v455h-788l62 -61h664v0z" />
    <glyph glyph-name="registered" unicode="&#xae;" horiz-adv-x="898" 
d="M444 722q136 0 232.5 -96.5t96.5 -233.5q0 -136 -96.5 -232.5t-232.5 -96.5t-232.5 96.5t-96.5 232.5t96.5 233t232.5 97zM444 123q111 0 189.5 79t78.5 190t-78.5 190.5t-189.5 79.5q-110 0 -189 -79.5t-79 -190.5q0 -110 79 -189.5t189 -79.5zM726 675
q117 -117 117 -283q0 -165 -117 -282q-113 -113 -282 -113t-282 113q-117 119 -117 282q0 164 117 283q113 113 282 113t282 -113zM444 54q140 0 239 99t99 239t-99 239t-239 99t-239 -99t-99 -239t99 -239t239 -99zM450 523q-29 0 -49.5 -20.5t-20.5 -49.5v-201l-61 -62
v394l38 -38q40 38 93 38q54 0 92.5 -38.5t38.5 -92.5q0 -56 -39 -93l77 -77h-87l-102 103q9 -3 20 -3q29 0 49.5 20.5t20.5 49.5v0q0 29 -20.5 49.5t-49.5 20.5zM450 391q-25 0 -43 18t-18 44v0q0 25 18 43t43 18t43 -18t18 -43q0 -26 -18 -44t-43 -18zM389 414l137 -137
v-87l-76 77v-77l-61 62v162z" />
    <glyph glyph-name="overscore" unicode="&#xaf;" 
d="M611 900h-617l-61 61h739z" />
    <glyph glyph-name="overscore" unicode="&#x2c9;" 
d="M611 900h-617l-61 61h739z" />
    <glyph glyph-name="degree" unicode="&#xb0;" horiz-adv-x="626" 
d="M307 724q-39 0 -66 27.5t-27 66.5q0 38 27 65.5t66 27.5t66 -27.5t27 -65.5q0 -39 -27 -66.5t-66 -27.5zM307 850q-13 0 -22.5 -9.5t-9.5 -22.5q0 -14 9.5 -23.5t22.5 -9.5t22.5 9.5t9.5 23.5q0 13 -9.5 22.5t-22.5 9.5zM307 654q-68 0 -115.5 48t-47.5 116t48 115.5
t115 47.5t115 -47.5t48 -115.5t-47.5 -116t-115.5 -48zM307 920q-42 0 -72 -30t-30 -72q0 -43 30 -73t72 -30t72 30t30 73q0 42 -30 72t-72 30z" />
    <glyph glyph-name="plusminus" unicode="&#xb1;" horiz-adv-x="695" 
d="M576 61l61 -61h-580l61 61h458zM576 70h-458l-61 61h580zM576 462h-225v225l62 61v-225h224zM342 462h-224l-61 61h224v225l61 -61v-225zM576 453l61 -61h-224v-225l-62 62v224h225zM118 453h224v-224l-61 -62v225h-224z" />
    <glyph glyph-name="twosuperior" unicode="&#xb2;" horiz-adv-x="405" 
d="M202 925q-29 0 -49.5 -20.5t-20.5 -49.5h-61q0 54 38 92.5t93 38.5t93 -38.5t38 -92.5v0q1 -41 -21 -77q-15 -25 -41 -50q-2 -1 -6 -5h68l-61 -61h-131q1 26 17 45.5t47 44.5q24 21 33.5 30t21.5 30t12 43q0 29 -20.5 49.5t-49.5 20.5zM272 653l61 -61h-262v66
q0 41 21 76q17 28 42 49l25.5 22.5t23 20.5t12.5 13q7 9 7 16h-61q0 25 17.5 43t43.5 18t43.5 -18t17.5 -43v0q0 -28 -16 -49t-48 -47q-23 -19 -33 -29t-22 -30.5t-12 -41.5v-5h140z" />
    <glyph glyph-name="threesuperior" unicode="&#xb3;" horiz-adv-x="390" 
d="M254 854q0 -25 -18 -43t-43 -18v0v61h-62v0q0 26 18.5 44t43.5 18t43 -18.5t18 -43.5v0zM193 662q-26 0 -44 18t-18 43h62v61v1v-1v0q25 0 43 -18t18 -43v0q0 -25 -18 -43t-43 -18zM324 723v0q0 -54 -38.5 -92.5t-92.5 -38.5q-55 0 -93.5 38.5t-38.5 92.5h61
q0 -29 21 -49.5t50 -20.5t49.5 20.5t20.5 49.5q0 22 -13 40t-33 26q20 8 33 25.5t13 39.5v1q0 29 -20.5 49.5t-49.5 20.5t-50 -21t-21 -50v0h-61q0 55 38.5 93.5t93.5 38.5q54 0 92.5 -38.5t38.5 -93.5q0 -34 -18 -65q18 -33 18 -66z" />
    <glyph glyph-name="acute" unicode="&#xb4;" 
d="M361 1079v87l-194 -194l-43 -130zM367 1073l-237 -237l130 43l194 194h-87z" />
    <glyph glyph-name="mu" unicode="&#xb5;" horiz-adv-x="674" 
d="M149 435l-62 61v-767l62 61v645zM219 104q-60 47 -62 124v207l62 61v-267q0 -39 28 -69q29 -29 69 -29q42 0 69 29q29 29 29 69v267l61 -61v-206q0 -71 -53 -118q-46 -41 -106 -41q-53 0 -97 34zM484 162v273l61 61v-334q0 -13 9 -22t22 -9h61l-61 -61q-42 0 -69 32
q-23 26 -23 60zM576 61l61 -61h-61q-40 0 -75 19q-22 11 -42 31q-63 -50 -143 -50q-51 0 -97 22v-293l-62 61v386q19 -53 62 -83q43 -32 97 -32q61 0 110 41q36 31 49 74v-14q0 -39 26 -67q10 -11 28 -22q24 -12 47 -12z" />
    <glyph glyph-name="mu" unicode="&#x3bc;" horiz-adv-x="674" 
d="M149 435l-62 61v-767l62 61v645zM219 104q-60 47 -62 124v207l62 61v-267q0 -39 28 -69q29 -29 69 -29q42 0 69 29q29 29 29 69v267l61 -61v-206q0 -71 -53 -118q-46 -41 -106 -41q-53 0 -97 34zM484 162v273l61 61v-334q0 -13 9 -22t22 -9h61l-61 -61q-42 0 -69 32
q-23 26 -23 60zM576 61l61 -61h-61q-40 0 -75 19q-22 11 -42 31q-63 -50 -143 -50q-51 0 -97 22v-293l-62 61v386q19 -53 62 -83q43 -32 97 -32q61 0 110 41q36 31 49 74v-14q0 -39 26 -67q10 -11 28 -22q24 -12 47 -12z" />
    <glyph glyph-name="paragraph" unicode="&#xb6;" horiz-adv-x="862" 
d="M128 556q0 -70 49 -119t119 -49h81v-449l-62 -61v449h-19q-97 0 -162 67q-67 67 -67 162q0 94 67 161q65 67 162 67h505l-61 -61h-444q-70 0 -119 -49t-49 -118zM740 714l61 -61h-96v-775l-61 61v775h96zM137 556q0 65 46.5 111.5t112.5 46.5h81v-317h-81
q-66 0 -112.5 46.5t-46.5 112.5zM315 653h-19q-41 0 -69 -28q-29 -29 -29 -69q0 -41 29 -70q28 -28 69 -28h19v195zM385 -61v775h250v-775l-61 -61v775h-127v-775z" />
    <glyph glyph-name="periodcentered" unicode="&#xb7;" horiz-adv-x="713" 
d="M364 308v131h-131v-131h131z" />
    <glyph glyph-name="periodcentered" unicode="&#x2219;" horiz-adv-x="713" 
d="M364 308v131h-131v-131h131z" />
    <glyph glyph-name="cedilla" unicode="&#xb8;" horiz-adv-x="823" 
d="M383 -25q34 -18 45 -54t-7 -70t-54 -45t-70 6l-26 83l54 -28q11 -6 23.5 -2.5t18.5 14.5t2 23.5t-15 18.5l-58 31l48 89h69l-34 -64zM490 41l-23 -47q29 -37 34 -84.5t-18 -91.5q-21 -41 -60 -63.5t-84 -22.5q-40 0 -75 19l-54 28l83 26q21 -12 46 -12q62 0 90 54
q19 35 7.5 74.5t-45.5 59.5l32 60h67z" />
    <glyph glyph-name="onesuperior" unicode="&#xb9;" horiz-adv-x="282" 
d="M135 653l-61 -54v254l61 62v-262zM205 985v-393l-61 62v269z" />
    <glyph glyph-name="ordmasculine" unicode="&#xba;" horiz-adv-x="505" 
d="M380 300l62 -61h-385l61 61h262zM380 309h-262l-61 61h385zM249 755q25 0 43 -17.5t18 -43.5v-131q0 -26 -18 -44t-43 -18t-43 18t-18 44v131q0 26 18 43.5t43 17.5zM254 563v131q0 4 -5 4q-4 0 -4 -4v-131q0 -5 4 -5q5 0 5 5zM380 694v-131v0q0 -55 -38 -93.5t-93 -38.5
q-54 0 -92.5 38.5t-38.5 93.5v0v131q0 55 38.5 93t92.5 38q55 0 93 -38t38 -93zM319 563v132q0 29 -20.5 49t-49.5 20q-28 0 -48.5 -20t-21.5 -49v-132q0 -29 20.5 -49.5t49.5 -20.5t49.5 20.5t20.5 49.5z" />
    <glyph glyph-name="guillemotright" unicode="&#xbb;" horiz-adv-x="1228" 
d="M352 426l438 253l-84 22l-477 -275l477 -276l84 23zM212 426l490 -283l22 -84l-635 367l635 367l-22 -84zM737 426l438 253l-84 22l-477 -275l477 -276l84 23zM597 426l490 -283l22 -84l-635 367l635 367l-22 -84z" />
    <glyph glyph-name="onequarter" unicode="&#xbc;" horiz-adv-x="971" 
d="M876 790l-789 -790h-87l876 876v-86zM883 784h86l-876 -877v87zM677 0v130h-50l-72 71l192 192h61v-132h61l-61 -61h-61v107l-116 -116h107v-130zM808 191l62 -61h-62v0v-130l-61 61v130h61zM738 200h-86l86 86v-86zM215 453l-61 -54v254l61 61v-261zM285 784v-392
l-61 61v270z" />
    <glyph glyph-name="onehalf" unicode="&#xbd;" horiz-adv-x="973" 
d="M876 790l-789 -790h-87l876 876v-86zM883 784h86l-876 -877v87zM215 453l-61 -54v254l61 61v-261zM285 784v-392l-61 61v270zM741 333q-29 0 -49.5 -20.5t-20.5 -49.5h-61q0 54 38.5 92.5t92.5 38.5q55 0 93 -38.5t38 -92.5v0q1 -41 -21 -77q-15 -25 -41 -50
q-1 -1 -3 -2.5t-3 -2.5h69l-62 -61h-131q1 26 17 45.5t47 44.5l33 29t23 31.5t11 42.5q0 29 -20.5 49.5t-49.5 20.5zM811 61l62 -61h-263v66q0 39 21 76q15 24 42 49l25 21.5t24 21t12 13.5q7 8 7 16v0h-61q0 25 18 43t43 18t43 -18t18 -43h1q0 -28 -16.5 -49t-48.5 -47
q-23 -19 -33 -29t-22 -30.5t-12 -41.5v-5h140z" />
    <glyph glyph-name="threequarters" unicode="&#xbe;" horiz-adv-x="969" 
d="M876 790l-789 -790h-87l876 876v-86zM883 784h86l-876 -877v87zM677 0v130h-50l-72 71l192 192h61v-132h61l-61 -61h-61v107l-116 -116h107v-130zM808 191l62 -61h-62v0v-130l-61 61v130h61zM738 200h-86l86 86v-86zM275 653q0 -25 -18 -43t-43 -18v0v61h-62v0
q0 25 18 43t44 18q25 0 43 -18t18 -43v0zM214 461q-26 0 -44 18t-18 43h62v61v0v0q25 0 43 -18t18 -43v0q0 -25 -18 -43t-43 -18zM345 522v0q0 -55 -38.5 -93t-92.5 -38q-55 0 -93.5 38t-38.5 93h62q0 -29 20.5 -49.5t49.5 -20.5t49.5 20.5t20.5 49.5q0 22 -13 40t-33 25
q20 8 33 26t13 40q0 29 -20.5 49.5t-49.5 20.5t-49.5 -20.5t-20.5 -49.5v0h-62q0 55 38.5 93t93.5 38q54 0 92.5 -38t38.5 -93q0 -33 -18 -66q18 -31 18 -65z" />
    <glyph glyph-name="questiondown" unicode="&#xbf;" 
d="M310 796l-66 -66l66 -66l65 66zM314 589l61 61v-61v-38q0 -46 -9.5 -84.5t-29.5 -69t-34 -46.5t-38 -40q-34 -32 -46.5 -52.5t-12.5 -53.5q0 -21 7 -38q14 -37 52 -54q36 -16 75 -1q38 15 53 52q17 38 1 75l-22 57l79 -35q25 -62 -2 -121q-25 -61 -86.5 -85t-121.5 2
q-45 19 -71 60t-25 88q0 35 12.5 64.5t25.5 45.5t39 40q31 30 46.5 48.5t31 58.5t15.5 89v38zM90 118q-17 44 -16 87q0 49 17.5 90.5t34 61t46.5 48.5q27 26 39 40.5t22.5 42t10.5 63.5v38v61l61 -61v-38q0 -48 -15.5 -86.5t-30 -56t-44.5 -46.5q-28 -28 -40.5 -43t-26 -46
t-13.5 -68q-1 -50 26.5 -93t74.5 -63q64 -28 128.5 -2.5t92.5 89.5q27 65 1 128v1l35 79l23 -57q34 -88 -3 -175q-38 -88 -126 -122q-88 -36 -175 2q-88 38 -122 126z" />
    <glyph glyph-name="Agrave" unicode="&#xc0;" horiz-adv-x="785" 
d="M702 191h-77l77 -189l-80 34l-87 216h106zM240 261h-109l-62 61h130l186 463l187 -463h130l-62 -61h-109l-146 360zM236 252l-87 -216l-80 -34l77 189h-77l62 61h105zM385 598l137 -337h-273zM340 322h91l-46 112zM525 252l89 -219l-34 -80l-96 238h-197l-96 -238l-34 80
l89 219h279zM313 1082v87l194 -194l43 -130zM307 1076l237 -237l-130 43l-194 194h87z" />
    <glyph glyph-name="Aacute" unicode="&#xc1;" horiz-adv-x="772" 
d="M702 191h-77l77 -189l-80 34l-87 216h106zM240 261h-109l-62 61h130l186 463l187 -463h130l-62 -61h-109l-146 360zM236 252l-87 -216l-80 -34l77 189h-77l62 61h105zM385 598l137 -337h-273zM340 322h91l-46 112zM525 252l89 -219l-34 -80l-96 238h-197l-96 -238l-34 80
l89 219h279zM458 1082v87l-194 -194l-43 -130zM464 1076l-237 -237l130 43l194 194h-87z" />
    <glyph glyph-name="Acircumflex" unicode="&#xc2;" horiz-adv-x="769" 
d="M702 191h-77l77 -189l-80 34l-87 216h106zM240 261h-109l-62 61h130l186 463l187 -463h130l-62 -61h-109l-146 360zM236 252l-87 -216l-80 -34l77 189h-77l62 61h105zM385 598l137 -337h-273zM340 322h91l-46 112zM525 252l89 -219l-34 -80l-96 238h-197l-96 -238l-34 80
l89 219h279zM612 932h-87l-140 140l-140 -140h-87l227 227zM519 839l-134 134l-135 -134v87l135 134l134 -134v-87z" />
    <glyph glyph-name="Atilde" unicode="&#xc3;" horiz-adv-x="782" 
d="M702 191h-77l77 -189l-80 34l-87 216h106zM240 261h-109l-62 61h130l186 463l187 -463h130l-62 -61h-109l-146 360zM236 252l-87 -216l-80 -34l77 189h-77l62 61h105zM385 598l137 -337h-273zM340 322h91l-46 112zM525 252l89 -219l-34 -80l-96 238h-197l-96 -238l-34 80
l89 219h279zM522 931h86l-43 -43q-48 -48 -115.5 -48t-115.5 48q-9 9 -22.5 9t-22.5 -9l-44 -43v86q28 28 66.5 28t65.5 -28v0q30 -30 72.5 -30t72.5 30zM384 937q-30 30 -72.5 30t-72.5 -30v0h-86l43 44q48 47 115.5 47t115.5 -47q9 -10 22.5 -10t22.5 9l44 44v-87
q-28 -27 -66.5 -27t-65.5 27z" />
    <glyph glyph-name="Adieresis" unicode="&#xc4;" horiz-adv-x="767" 
d="M702 191h-77l77 -189l-80 34l-87 216h106zM240 261h-109l-62 61h130l186 463l187 -463h130l-62 -61h-109l-146 360zM236 252l-87 -216l-80 -34l77 189h-77l62 61h105zM385 598l137 -337h-273zM340 322h91l-46 112zM525 252l89 -219l-34 -80l-96 238h-197l-96 -238l-34 80
l89 219h279zM191 839h131v131h-131v-131zM448 839h131v131h-131v-131z" />
    <glyph glyph-name="Aring" unicode="&#xc5;" horiz-adv-x="782" 
d="M385 902q-39 0 -66 27.5t-27 66.5q0 38 27 65.5t66 27.5t66 -27.5t27 -65.5q0 -39 -27 -66.5t-66 -27.5zM385 1028q-13 0 -22.5 -9.5t-9.5 -22.5q0 -14 9.5 -23.5t22.5 -9.5t22.5 9.5t9.5 23.5q0 13 -9.5 22.5t-22.5 9.5zM385 832q-68 0 -115.5 48t-47.5 116t48 115.5
t115 47.5t115 -47.5t48 -115.5t-47.5 -116t-115.5 -48zM385 1098q-42 0 -72 -30t-30 -72q0 -43 30 -73t72 -30t72 30t30 73q0 42 -30 72t-72 30zM702 191h-77l77 -189l-80 34l-87 216h106zM240 261h-109l-62 61h130l186 463l187 -463h130l-62 -61h-109l-146 360zM236 252
l-87 -216l-80 -34l77 189h-77l62 61h105zM385 598l137 -337h-273zM340 322h91l-46 112zM525 252l89 -219l-34 -80l-96 238h-197l-96 -238l-34 80l89 219h279z" />
    <glyph glyph-name="AE" unicode="&#xc6;" horiz-adv-x="762" 
d="M684 653h-254v-194h193l-62 -62h-192v318h254zM299 723q-70 0 -119 -49t-49 -118v-495l-61 -61v555q0 94 67 163q67 67 162 67h385l-61 -62h-209h-115zM430 327v-196h254l-61 -61h-254v319h192l62 -62h-193zM360 715v-318h-220v159q0 65 46.5 111.5t112.5 47.5h61z
M299 459v194q-41 0 -69 -28q-29 -29 -29 -70v-96h98zM360 61h263l61 -61h-385v327h-98v-327l-61 61v328h220v-328z" />
    <glyph glyph-name="Ccedilla" unicode="&#xc7;" 
d="M397 497l62 61q0 66 -47 112.5t-112 46.5q-66 0 -112.5 -46.5t-46.5 -112.5v-327q0 -65 46.5 -111.5t112.5 -47.5q65 1 112 47.5t47 111.5l-62 62v-62q0 -39 -28 -69q-30 -28 -69 -28q-41 0 -69 28q-29 29 -29 69v327q0 40 29 69q27 29 69 29q40 0 69 -29q28 -30 28 -69
v-61zM467 231l62 62v-62q0 -94 -67 -161q-49 -49 -118 -63l-1 -3q29 -37 33.5 -84.5t-18.5 -91.5q-21 -41 -60 -63.5t-83 -22.5q-41 0 -76 19l-54 28l83 26q22 -12 47 -12q60 0 89 54q19 35 8 74.5t-46 59.5l39 73q68 2 115 51t47 116zM462 720q67 -69 67 -162v-61l-62 61
q0 70 -49 119t-118 49q-70 0 -119 -49t-49 -119v-327q0 -68 47.5 -117t115.5 -50l-41 -77l4 -2q34 -17 45 -53.5t-7 -70.5q-17 -34 -53.5 -45t-70.5 6l-25 83l54 -28q11 -6 23 -2.5t18 14.5t2 23.5t-15 18.5l-57 31l32 61q-39 19 -66 47q-67 65 -67 161v327q0 95 67 162
t162 67q93 0 162 -67z" />
    <glyph glyph-name="Egrave" unicode="&#xc8;" 
d="M136 62h332l62 -62h-456v785h456l-62 -62h-332v-661zM530 653h-324v-185h262l-61 -61h-262v308h323zM206 337v-205h324l-62 -62h-323v328h262l61 -61h-262zM217 1081v87l194 -194l43 -130zM211 1075l237 -237l-130 43l-194 194h87z" />
    <glyph glyph-name="Eacute" unicode="&#xc9;" 
d="M136 62h332l62 -62h-456v785h456l-62 -62h-332v-661zM530 653h-324v-185h262l-61 -61h-262v308h323zM206 337v-205h324l-62 -62h-323v328h262l61 -61h-262zM391 1082v87l-194 -194l-43 -130zM397 1076l-237 -237l130 43l194 194h-87z" />
    <glyph glyph-name="Ecircumflex" unicode="&#xca;" 
d="M136 62h332l62 -62h-456v785h456l-62 -62h-332v-661zM530 653h-324v-185h262l-61 -61h-262v308h323zM206 337v-205h324l-62 -62h-323v328h262l61 -61h-262zM531 931h-87l-140 140l-140 -140h-87l227 227zM438 838l-134 134l-135 -134v87l135 134l134 -134v-87z" />
    <glyph glyph-name="Edieresis" unicode="&#xcb;" 
d="M136 62h332l62 -62h-456v785h456l-62 -62h-332v-661zM530 653h-324v-185h262l-61 -61h-262v308h323zM206 337v-205h324l-62 -62h-323v328h262l61 -61h-262zM107 839h131v131h-131v-131zM364 839h131v131h-131v-131z" />
    <glyph glyph-name="Igrave" unicode="&#xcc;" horiz-adv-x="492" 
d="M232 70h-102l-61 61h102v522h-102l61 62h102v-1v-644zM130 61h213l61 -61h-335zM343 715l61 -62h-102v-522h102l-61 -61h-102v0v645h102zM343 723h-213l-61 61h335zM165 1082v87l194 -194l43 -130zM159 1076l237 -237l-130 43l-194 194h87z" />
    <glyph glyph-name="Iacute" unicode="&#xcd;" horiz-adv-x="482" 
d="M232 70h-102l-61 61h102v522h-102l61 62h102v-1v-644zM130 61h213l61 -61h-335zM343 715l61 -62h-102v-522h102l-61 -61h-102v0v645h102zM343 723h-213l-61 61h335zM307 1081v87l-194 -194l-43 -130zM313 1075l-237 -237l130 43l194 194h-87z" />
    <glyph glyph-name="Icircumflex" unicode="&#xce;" horiz-adv-x="482" 
d="M232 70h-102l-61 61h102v522h-102l61 62h102v-1v-644zM130 61h213l61 -61h-335zM343 715l61 -62h-102v-522h102l-61 -61h-102v0v645h102zM343 723h-213l-61 61h335zM464 930h-87l-140 140l-140 -140h-87l227 227zM371 837l-134 134l-135 -134v87l135 134l134 -134v-87z
" />
    <glyph glyph-name="Idieresis" unicode="&#xcf;" horiz-adv-x="467" 
d="M232 70h-102l-61 61h102v522h-102l61 62h102v-1v-644zM130 61h213l61 -61h-335zM343 715l61 -62h-102v-522h102l-61 -61h-102v0v645h102zM343 723h-213l-61 61h335zM42 837h131v131h-131v-131zM299 837h131v131h-131v-131z" />
    <glyph glyph-name="Eth" unicode="&#xd0;" horiz-adv-x="656" 
d="M376 70v0h-159v318h127l61 -61h-126v-196h97q42 0 69 29q29 29 29 69v326q0 41 -29 70q-28 28 -69 28h-97v-195h126l-61 -61h-127v318h159v0q66 -1 112.5 -47.5t46.5 -112.5v-326q0 -66 -46.5 -112.5t-112.5 -46.5zM538 717q67 -65 67 -162v-326q0 -95 -67 -162t-162 -67
h-229v327h-127l61 61h128v-327h167q70 0 119 49.5t49 118.5v326q0 70 -49 119t-119 49v0h-167v-326h-128l-61 61h127v327h229q96 0 162 -68z" />
    <glyph glyph-name="Ntilde" unicode="&#xd1;" 
d="M526 785v-788l-327 413v-410l-62 62v524l328 -413v551zM129 611v-549l-62 -62v787l328 -413v411l61 -61v-526zM432 944h86l-43 -43q-48 -48 -115.5 -48t-115.5 48q-9 9 -22.5 9t-22.5 -9l-44 -43v86q28 28 66.5 28t65.5 -28v0q30 -30 72.5 -30t72.5 30v0zM294 950
q-30 30 -72.5 30t-72.5 -30v0h-86l43 44q48 47 115.5 47t115.5 -47q9 -10 22.5 -10t22.5 9l44 44v-87q-28 -27 -66.5 -27t-65.5 27v0z" />
    <glyph glyph-name="Ograve" unicode="&#xd2;" 
d="M295 715q65 0 111.5 -47t46.5 -112v-327q0 -66 -46 -112t-112 -47q-66 1 -112.5 47t-46.5 112v327q0 65 46.5 112t112.5 47zM392 229v327q0 39 -28 69q-30 28 -69 28q-40 0 -70 -28q-28 -30 -28 -69v-327q0 -39 28 -69q28 -28 70 -28q41 0 69 28q28 30 28 69zM456 718
q68 -68 68 -162v-327q0 -94 -68 -162q-67 -67 -161 -67q-95 0 -162 67t-67 162v327q0 95 67 162t162 67q94 0 161 -67zM462 229v327q0 69 -49 118t-118 49q-70 0 -119 -49t-49 -118v-327q0 -69 49 -118t119 -49q69 0 118 49t49 118zM217 1081v87l194 -194l43 -130zM211 1075
l237 -237l-130 43l-194 194h87z" />
    <glyph glyph-name="Oacute" unicode="&#xd3;" 
d="M295 715q65 0 111.5 -47t46.5 -112v-327q0 -66 -46 -112t-112 -47q-66 1 -112.5 47t-46.5 112v327q0 65 46.5 112t112.5 47zM392 229v327q0 39 -28 69q-30 28 -69 28q-40 0 -70 -28q-28 -30 -28 -69v-327q0 -39 28 -69q28 -28 70 -28q41 0 69 28q28 30 28 69zM456 718
q68 -68 68 -162v-327q0 -94 -68 -162q-67 -67 -161 -67q-95 0 -162 67t-67 162v327q0 95 67 162t162 67q94 0 161 -67zM462 229v327q0 69 -49 118t-118 49q-70 0 -119 -49t-49 -118v-327q0 -69 49 -118t119 -49q69 0 118 49t49 118zM361 1082v87l-194 -194l-43 -130z
M367 1076l-237 -237l130 43l194 194h-87z" />
    <glyph glyph-name="Ocircumflex" unicode="&#xd4;" 
d="M295 715q65 0 111.5 -47t46.5 -112v-327q0 -66 -46 -112t-112 -47q-66 1 -112.5 47t-46.5 112v327q0 65 46.5 112t112.5 47zM392 229v327q0 39 -28 69q-30 28 -69 28q-40 0 -70 -28q-28 -30 -28 -69v-327q0 -39 28 -69q28 -28 70 -28q41 0 69 28q28 30 28 69zM456 718
q68 -68 68 -162v-327q0 -94 -68 -162q-67 -67 -161 -67q-95 0 -162 67t-67 162v327q0 95 67 162t162 67q94 0 161 -67zM462 229v327q0 69 -49 118t-118 49q-70 0 -119 -49t-49 -118v-327q0 -69 49 -118t119 -49q69 0 118 49t49 118zM521 930h-87l-140 140l-140 -140h-87
l227 227zM428 837l-134 134l-135 -134v87l135 134l134 -134v-87z" />
    <glyph glyph-name="Otilde" unicode="&#xd5;" 
d="M295 715q65 0 111.5 -47t46.5 -112v-327q0 -66 -46 -112t-112 -47q-66 1 -112.5 47t-46.5 112v327q0 65 46.5 112t112.5 47zM392 229v327q0 39 -28 69q-30 28 -69 28q-40 0 -70 -28q-28 -30 -28 -69v-327q0 -39 28 -69q28 -28 70 -28q41 0 69 28q28 30 28 69zM456 718
q68 -68 68 -162v-327q0 -94 -68 -162q-67 -67 -161 -67q-95 0 -162 67t-67 162v327q0 95 67 162t162 67q94 0 161 -67zM462 229v327q0 69 -49 118t-118 49q-70 0 -119 -49t-49 -118v-327q0 -69 49 -118t119 -49q69 0 118 49t49 118zM437 946h86l-43 -43q-48 -48 -115.5 -48
t-115.5 48q-9 9 -22.5 9t-22.5 -9l-44 -43v86q28 28 66.5 28t65.5 -28v0q30 -30 72.5 -30t72.5 30v0zM299 952q-30 30 -72.5 30t-72.5 -30v0h-86l43 44q48 47 115.5 47t115.5 -47q9 -10 22.5 -10t22.5 9l44 44v-87q-28 -27 -66.5 -27t-65.5 27v0z" />
    <glyph glyph-name="Odieresis" unicode="&#xd6;" 
d="M295 715q65 0 111.5 -47t46.5 -112v-327q0 -66 -46 -112t-112 -47q-66 1 -112.5 47t-46.5 112v327q0 65 46.5 112t112.5 47zM392 229v327q0 39 -28 69q-30 28 -69 28q-40 0 -70 -28q-28 -30 -28 -69v-327q0 -39 28 -69q28 -28 70 -28q41 0 69 28q28 30 28 69zM456 718
q68 -68 68 -162v-327q0 -94 -68 -162q-67 -67 -161 -67q-95 0 -162 67t-67 162v327q0 95 67 162t162 67q94 0 161 -67zM462 229v327q0 69 -49 118t-118 49q-70 0 -119 -49t-49 -118v-327q0 -69 49 -118t119 -49q69 0 118 49t49 118zM101 837h131v131h-131v-131zM358 837h131
v131h-131v-131z" />
    <glyph glyph-name="multiply" unicode="&#xd7;" horiz-adv-x="641" 
d="M482 233l-159 159l159 159h86l-159 -159l159 -159h-86zM317 398l-159 159v87l159 -159l159 159l-1 -87h1zM476 227v-86l-159 158l-159 -158v86l159 159zM152 551l159 -159l-159 -159h-87l159 159l-159 159h87z" />
    <glyph glyph-name="Oslash" unicode="&#xd8;" horiz-adv-x="844" 
d="M667 311q0 -102 -72.5 -174.5t-174.5 -72.5q-101 0 -172 69l350 350q69 -71 69 -172zM343 142q36 -17 77 -17q77 0 131.5 54.5t54.5 131.5q0 41 -17 77zM111 9h-86l128 129q-51 80 -51 173q0 132 93 225t225 93q94 0 173 -52l123 124v-87l-118 -118q-75 72 -178 72
q-106 0 -181.5 -75t-75.5 -182q0 -103 72 -178zM686 485q51 -80 51 -174q0 -131 -93 -224t-224 -93q-94 0 -174 51l-128 -129v87l123 124q75 -72 179 -72q106 0 181 75t75 181q0 104 -72 178l119 119h86zM420 559q99 0 171 -70l-349 -350q-70 73 -70 172q0 103 72.5 175.5
t175.5 72.5zM233 311q0 -40 17 -76l246 246q-36 17 -76 17q-77 -1 -132 -55.5t-55 -131.5z" />
    <glyph glyph-name="Ugrave" unicode="&#xd9;" 
d="M467 729l61 61v-561q0 -95 -67 -162t-162 -67q-93 0 -162 67q-67 69 -67 162v561l62 -61v-500q0 -69 49 -118t118 -49q70 0 119 49t49 118v500zM299 70q-66 1 -112.5 47t-46.5 112v500l62 61v-561q0 -39 28 -69q28 -28 69 -28q43 0 69 28q29 29 29 69v561l61 -61v-500
q0 -66 -46.5 -112t-112.5 -47zM187 1080v87l194 -194l43 -130zM181 1074l237 -237l-130 43l-194 194h87z" />
    <glyph glyph-name="Uacute" unicode="&#xda;" 
d="M467 729l61 61v-561q0 -95 -67 -162t-162 -67q-93 0 -162 67q-67 69 -67 162v561l62 -61v-500q0 -69 49 -118t118 -49q70 0 119 49t49 118v500zM299 70q-66 1 -112.5 47t-46.5 112v500l62 61v-561q0 -39 28 -69q28 -28 69 -28q43 0 69 28q29 29 29 69v561l61 -61v-500
q0 -66 -46.5 -112t-112.5 -47zM391 1080v87l-194 -194l-43 -130zM397 1074l-237 -237l130 43l194 194h-87z" />
    <glyph glyph-name="Ucircumflex" unicode="&#xdb;" 
d="M467 729l61 61v-561q0 -95 -67 -162t-162 -67q-93 0 -162 67q-67 69 -67 162v561l62 -61v-500q0 -69 49 -118t118 -49q70 0 119 49t49 118v500zM299 70q-66 1 -112.5 47t-46.5 112v500l62 61v-561q0 -39 28 -69q28 -28 69 -28q43 0 69 28q29 29 29 69v561l61 -61v-500
q0 -66 -46.5 -112t-112.5 -47zM531 932h-87l-140 140l-140 -140h-87l227 227zM438 839l-134 134l-135 -134v87l135 134l134 -134v-87z" />
    <glyph glyph-name="Udieresis" unicode="&#xdc;" 
d="M467 729l61 61v-561q0 -95 -67 -162t-162 -67q-93 0 -162 67q-67 69 -67 162v561l62 -61v-500q0 -69 49 -118t118 -49q70 0 119 49t49 118v500zM299 70q-66 1 -112.5 47t-46.5 112v500l62 61v-561q0 -39 28 -69q28 -28 69 -28q43 0 69 28q29 29 29 69v561l61 -61v-500
q0 -66 -46.5 -112t-112.5 -47zM107 838h131v131h-131v-131zM364 838h131v131h-131v-131z" />
    <glyph glyph-name="Yacute" unicode="&#xdd;" 
d="M459 556q-1 -66 -47.5 -112.5t-111.5 -46.5q-66 0 -112.5 46.5t-46.5 112.5v167l61 61v-228q0 -42 29 -69q27 -29 69 -29q40 0 69 29q28 28 28 69v228l62 -61v-167zM132 556q0 -68 47.5 -117t115.5 -51v-327l-61 -61v336q-56 17 -96 58q-67 65 -67 162v228l61 -61v-167z
M467 723l62 61v-228q0 -96 -68 -162q-40 -41 -96 -58v-336l-61 61v327q68 2 115.5 51t47.5 117v167zM391 1081v87l-194 -194l-43 -130zM397 1075l-237 -237l130 43l194 194h-87z" />
    <glyph glyph-name="Thorn" unicode="&#xde;" 
d="M138 723v-662l-61 -61v784zM306 225h-98h-61v318h159q66 0 112.5 -46.5t46.5 -112.5t-46.5 -112.5t-112.5 -46.5zM208 482v-196h99q42 2 68 29q29 29 29 69t-29 69q-27 29 -69 29h-98zM468 546q67 -67 67 -162t-67 -162t-161 -67h-99v-155l-61 61v155h159v0q70 0 119 49
t49 119t-49 119t-119 49h-159v171l61 61v-171h98q95 0 162 -67z" />
    <glyph glyph-name="germandbls" unicode="&#xdf;" horiz-adv-x="646" 
d="M100 398l-62 -61h62v-337l61 62v275v61h-61zM506 392l1 -1q68 -68 68 -162t-68 -162q-67 -67 -161 -67h-74l62 62h12q69 0 118 49t49 118q0 59 -36.5 104.5t-92.5 59.5q56 13 92.5 58.5t36.5 104.5q0 69 -49 118t-118 49h-185v0v-255v-61h-61l-62 61h62v317v0h246
q94 0 161 -67q68 -68 68 -162q0 -96 -68 -162l-1 -1v-1zM272 132h74v-1q40 0 69 29q28 30 28 69q0 41 -28 69q-29 29 -69 29v0q-26 1 -44 20.5t-18 45.5q0 27 19.5 46t46.5 19q38 2 65 29q28 28 28 69q0 39 -28 69q-30 28 -69 28v1v-1h-115v-653l-61 62v653h176
q65 0 111.5 -47t47.5 -112q-1 -63 -48.5 -110t-105.5 -49h-1q-4 0 -4 -4q0 -5 4 -5q64 -1 109 -47.5t46 -111.5q-1 -66 -47.5 -112t-111.5 -47h-12z" />
    <glyph glyph-name="agrave" unicode="&#xe0;" horiz-adv-x="774" 
d="M702 191h-77l77 -189l-80 34l-87 216h106zM240 261h-109l-62 61h130l186 463l187 -463h130l-62 -61h-109l-146 360zM236 252l-87 -216l-80 -34l77 189h-77l62 61h105zM385 598l137 -337h-273zM340 322h91l-46 112zM525 252l89 -219l-34 -80l-96 238h-197l-96 -238l-34 80
l89 219h279zM299 1080v87l194 -194l43 -130zM293 1074l237 -237l-130 43l-194 194h87z" />
    <glyph glyph-name="aacute" unicode="&#xe1;" horiz-adv-x="782" 
d="M702 191h-77l77 -189l-80 34l-87 216h106zM240 261h-109l-62 61h130l186 463l187 -463h130l-62 -61h-109l-146 360zM236 252l-87 -216l-80 -34l77 189h-77l62 61h105zM385 598l137 -337h-273zM340 322h91l-46 112zM525 252l89 -219l-34 -80l-96 238h-197l-96 -238l-34 80
l89 219h279zM471 1081v87l-194 -194l-43 -130zM477 1075l-237 -237l130 43l194 194h-87z" />
    <glyph glyph-name="acircumflex" unicode="&#xe2;" horiz-adv-x="767" 
d="M702 191h-77l77 -189l-80 34l-87 216h106zM240 261h-109l-62 61h130l186 463l187 -463h130l-62 -61h-109l-146 360zM236 252l-87 -216l-80 -34l77 189h-77l62 61h105zM385 598l137 -337h-273zM340 322h91l-46 112zM525 252l89 -219l-34 -80l-96 238h-197l-96 -238l-34 80
l89 219h279zM612 932h-87l-140 140l-140 -140h-87l227 227zM519 839l-134 134l-135 -134v87l135 134l134 -134v-87z" />
    <glyph glyph-name="atilde" unicode="&#xe3;" horiz-adv-x="772" 
d="M702 191h-77l77 -189l-80 34l-87 216h106zM240 261h-109l-62 61h130l186 463l187 -463h130l-62 -61h-109l-146 360zM236 252l-87 -216l-80 -34l77 189h-77l62 61h105zM385 598l137 -337h-273zM340 322h91l-46 112zM525 252l89 -219l-34 -80l-96 238h-197l-96 -238l-34 80
l89 219h279zM523 946h86l-43 -43q-48 -48 -115.5 -48t-115.5 48q-9 9 -22.5 9t-22.5 -9l-44 -43v86q28 28 66.5 28t65.5 -28v0q30 -30 72.5 -30t72.5 30v0zM385 952q-30 30 -72.5 30t-72.5 -30v0h-86l43 44q48 47 115.5 47t115.5 -47q9 -10 22.5 -10t22.5 9l44 44v-87
q-28 -27 -66.5 -27t-65.5 27v0z" />
    <glyph glyph-name="adieresis" unicode="&#xe4;" horiz-adv-x="762" 
d="M702 191h-77l77 -189l-80 34l-87 216h106zM240 261h-109l-62 61h130l186 463l187 -463h130l-62 -61h-109l-146 360zM236 252l-87 -216l-80 -34l77 189h-77l62 61h105zM385 598l137 -337h-273zM340 322h91l-46 112zM525 252l89 -219l-34 -80l-96 238h-197l-96 -238l-34 80
l89 219h279zM191 839h131v131h-131v-131zM448 839h131v131h-131v-131z" />
    <glyph glyph-name="aring" unicode="&#xe5;" horiz-adv-x="769" 
d="M702 191h-77l77 -189l-80 34l-87 216h106zM240 261h-109l-62 61h130l186 463l187 -463h130l-62 -61h-109l-146 360zM236 252l-87 -216l-80 -34l77 189h-77l62 61h105zM385 598l137 -337h-273zM340 322h91l-46 112zM525 252l89 -219l-34 -80l-96 238h-197l-96 -238l-34 80
l89 219h279zM384 899q-39 0 -66 27.5t-27 66.5q0 38 27 65.5t66 27.5t66 -27.5t27 -65.5q0 -39 -27 -66.5t-66 -27.5zM384 1025q-13 0 -22.5 -9.5t-9.5 -22.5q0 -14 9.5 -23.5t22.5 -9.5t22.5 9.5t9.5 23.5q0 13 -9.5 22.5t-22.5 9.5zM384 829q-68 0 -115.5 48t-47.5 116
q0 67 47.5 115t115.5 48t115.5 -48t47.5 -115q0 -68 -47.5 -116t-115.5 -48zM384 1095q-42 0 -72 -30t-30 -72q0 -43 30 -73t72 -30t72 30t30 73q0 42 -30 72t-72 30z" />
    <glyph glyph-name="ae" unicode="&#xe6;" horiz-adv-x="751" 
d="M684 653h-254v-194h193l-62 -62h-192v318h254zM299 723q-70 0 -119 -49t-49 -118v-495l-61 -61v555q0 94 67 163q67 67 162 67h385l-61 -62h-209h-115zM430 327v-196h254l-61 -61h-254v319h192l62 -62h-193zM360 715v-318h-220v159q0 65 46.5 111.5t112.5 47.5h61z
M299 459v194q-41 0 -69 -28q-29 -29 -29 -70v-96h98zM360 61h263l61 -61h-385v327h-98v-327l-61 61v328h220v-328z" />
    <glyph glyph-name="ccedilla" unicode="&#xe7;" 
d="M397 497l62 61q0 66 -47 112.5t-112 46.5q-66 0 -112.5 -46.5t-46.5 -112.5v-327q0 -65 46.5 -111.5t112.5 -47.5q65 1 112 47.5t47 111.5l-62 62v-62q0 -39 -28 -69q-30 -28 -69 -28q-41 0 -69 28q-29 29 -29 69v327q0 40 29 69q27 29 69 29q40 0 69 -29q28 -30 28 -69
v-61zM467 231l62 62v-62q0 -94 -67 -161q-49 -49 -118 -63l-1 -3q29 -37 33.5 -84.5t-18.5 -91.5q-21 -41 -60 -63.5t-83 -22.5q-41 0 -76 19l-54 28l83 26q22 -12 47 -12q60 0 89 54q19 35 8 74.5t-46 59.5l39 73q68 2 115 51t47 116zM462 720q67 -69 67 -162v-61l-62 61
q0 70 -49 119t-118 49q-70 0 -119 -49t-49 -119v-327q0 -68 47.5 -117t115.5 -50l-41 -77l4 -2q34 -17 45 -53.5t-7 -70.5q-17 -34 -53.5 -45t-70.5 6l-25 83l54 -28q11 -6 23 -2.5t18 14.5t2 23.5t-15 18.5l-57 31l32 61q-39 19 -66 47q-67 65 -67 161v327q0 95 67 162
t162 67q93 0 162 -67z" />
    <glyph glyph-name="egrave" unicode="&#xe8;" 
d="M136 62h332l62 -62h-456v785h456l-62 -62h-332v-661zM530 653h-324v-185h262l-61 -61h-262v308h323zM206 337v-205h324l-62 -62h-323v328h262l61 -61h-262zM217 1080v87l194 -194l43 -130zM211 1074l237 -237l-130 43l-194 194h87z" />
    <glyph glyph-name="eacute" unicode="&#xe9;" 
d="M136 62h332l62 -62h-456v785h456l-62 -62h-332v-661zM530 653h-324v-185h262l-61 -61h-262v308h323zM206 337v-205h324l-62 -62h-323v328h262l61 -61h-262zM361 1080v87l-194 -194l-43 -130zM367 1074l-237 -237l130 43l194 194h-87z" />
    <glyph glyph-name="ecircumflex" unicode="&#xea;" 
d="M136 62h332l62 -62h-456v785h456l-62 -62h-332v-661zM530 653h-324v-185h262l-61 -61h-262v308h323zM206 337v-205h324l-62 -62h-323v328h262l61 -61h-262zM531 932h-87l-140 140l-140 -140h-87l227 227zM438 839l-134 134l-135 -134v87l135 134l134 -134v-87z" />
    <glyph glyph-name="edieresis" unicode="&#xeb;" 
d="M136 62h332l62 -62h-456v785h456l-62 -62h-332v-661zM530 653h-324v-185h262l-61 -61h-262v308h323zM206 337v-205h324l-62 -62h-323v328h262l61 -61h-262zM107 838h131v131h-131v-131zM364 838h131v131h-131v-131z" />
    <glyph glyph-name="igrave" unicode="&#xec;" horiz-adv-x="479" 
d="M232 70h-102l-61 61h102v522h-102l61 62h102v-1v-644zM130 61h213l61 -61h-335zM343 715l61 -62h-102v-522h102l-61 -61h-102v0v645h102zM343 723h-213l-61 61h335zM164 1080v87l194 -194l43 -130zM158 1074l237 -237l-130 43l-194 194h87z" />
    <glyph glyph-name="iacute" unicode="&#xed;" horiz-adv-x="477" 
d="M232 70h-102l-61 61h102v522h-102l61 62h102v-1v-644zM130 61h213l61 -61h-335zM343 715l61 -62h-102v-522h102l-61 -61h-102v0v645h102zM343 723h-213l-61 61h335zM307 1080v87l-194 -194l-43 -130zM313 1074l-237 -237l130 43l194 194h-87z" />
    <glyph glyph-name="icircumflex" unicode="&#xee;" horiz-adv-x="479" 
d="M232 70h-102l-61 61h102v522h-102l61 62h102v-1v-644zM130 61h213l61 -61h-335zM343 715l61 -62h-102v-522h102l-61 -61h-102v0v645h102zM343 723h-213l-61 61h335zM463 932h-87l-140 140l-140 -140h-87l227 227zM370 839l-134 134l-135 -134v87l135 134l134 -134v-87z
" />
    <glyph glyph-name="idieresis" unicode="&#xef;" horiz-adv-x="482" 
d="M232 70h-102l-61 61h102v522h-102l61 62h102v-1v-644zM130 61h213l61 -61h-335zM343 715l61 -62h-102v-522h102l-61 -61h-102v0v645h102zM343 723h-213l-61 61h335zM43 839h131v131h-131v-131zM300 839h131v131h-131v-131z" />
    <glyph glyph-name="eth" unicode="&#xf0;" horiz-adv-x="674" 
d="M376 70h-159v318h127l61 -61h-126v-196h97q42 0 69 29q29 29 29 69v326q0 41 -29 70q-28 28 -69 28h-97v-195h126l-61 -61h-127v318h159v0q66 -1 112.5 -47.5t46.5 -112.5v-326q0 -66 -46.5 -112.5t-112.5 -46.5zM538 717q67 -65 67 -162v-326q0 -95 -67 -162t-162 -67
h-229v327h-127l61 61h128v-327h167q70 0 119 49.5t49 118.5v326q0 70 -49 119t-119 49v0h-167v-326h-128l-61 61h127v327h229q96 0 162 -68z" />
    <glyph glyph-name="ntilde" unicode="&#xf1;" 
d="M526 785v-788l-327 413v-410l-62 62v524l328 -413v551zM129 611v-549l-62 -62v787l328 -413v411l61 -61v-526zM445 945h86l-43 -43q-48 -48 -115.5 -48t-115.5 48q-9 9 -22.5 9t-22.5 -9l-44 -43v86q28 28 66.5 28t65.5 -28v0q30 -30 72.5 -30t72.5 30v0zM307 951
q-30 30 -72.5 30t-72.5 -30v0h-86l43 44q48 47 115.5 47t115.5 -47q9 -10 22.5 -10t22.5 9l44 44v-87q-28 -27 -66.5 -27t-65.5 27v0z" />
    <glyph glyph-name="ograve" unicode="&#xf2;" 
d="M295 715q65 0 111.5 -47t46.5 -112v-327q0 -66 -46 -112t-112 -47q-66 1 -112.5 47t-46.5 112v327q0 65 46.5 112t112.5 47zM392 229v327q0 39 -28 69q-30 28 -69 28q-40 0 -70 -28q-28 -30 -28 -69v-327q0 -39 28 -69q28 -28 70 -28q41 0 69 28q28 30 28 69zM456 718
q68 -68 68 -162v-327q0 -94 -68 -162q-67 -67 -161 -67q-95 0 -162 67t-67 162v327q0 95 67 162t162 67q94 0 161 -67zM462 229v327q0 69 -49 118t-118 49q-70 0 -119 -49t-49 -118v-327q0 -69 49 -118t119 -49q69 0 118 49t49 118zM217 1081v87l194 -194l43 -130zM211 1075
l237 -237l-130 43l-194 194h87z" />
    <glyph glyph-name="oacute" unicode="&#xf3;" 
d="M295 715q65 0 111.5 -47t46.5 -112v-327q0 -66 -46 -112t-112 -47q-66 1 -112.5 47t-46.5 112v327q0 65 46.5 112t112.5 47zM392 229v327q0 39 -28 69q-30 28 -69 28q-40 0 -70 -28q-28 -30 -28 -69v-327q0 -39 28 -69q28 -28 70 -28q41 0 69 28q28 30 28 69zM456 718
q68 -68 68 -162v-327q0 -94 -68 -162q-67 -67 -161 -67q-95 0 -162 67t-67 162v327q0 95 67 162t162 67q94 0 161 -67zM462 229v327q0 69 -49 118t-118 49q-70 0 -119 -49t-49 -118v-327q0 -69 49 -118t119 -49q69 0 118 49t49 118zM361 1081v87l-194 -194l-43 -130z
M367 1075l-237 -237l130 43l194 194h-87z" />
    <glyph glyph-name="ocircumflex" unicode="&#xf4;" 
d="M295 715q65 0 111.5 -47t46.5 -112v-327q0 -66 -46 -112t-112 -47q-66 1 -112.5 47t-46.5 112v327q0 65 46.5 112t112.5 47zM392 229v327q0 39 -28 69q-30 28 -69 28q-40 0 -70 -28q-28 -30 -28 -69v-327q0 -39 28 -69q28 -28 70 -28q41 0 69 28q28 30 28 69zM456 718
q68 -68 68 -162v-327q0 -94 -68 -162q-67 -67 -161 -67q-95 0 -162 67t-67 162v327q0 95 67 162t162 67q94 0 161 -67zM462 229v327q0 69 -49 118t-118 49q-70 0 -119 -49t-49 -118v-327q0 -69 49 -118t119 -49q69 0 118 49t49 118zM525 932h-87l-140 140l-140 -140h-87
l227 227zM432 839l-134 134l-135 -134v87l135 134l134 -134v-87z" />
    <glyph glyph-name="otilde" unicode="&#xf5;" 
d="M295 715q65 0 111.5 -47t46.5 -112v-327q0 -66 -46 -112t-112 -47q-66 1 -112.5 47t-46.5 112v327q0 65 46.5 112t112.5 47zM392 229v327q0 39 -28 69q-30 28 -69 28q-40 0 -70 -28q-28 -30 -28 -69v-327q0 -39 28 -69q28 -28 70 -28q41 0 69 28q28 30 28 69zM456 718
q68 -68 68 -162v-327q0 -94 -68 -162q-67 -67 -161 -67q-95 0 -162 67t-67 162v327q0 95 67 162t162 67q94 0 161 -67zM462 229v327q0 69 -49 118t-118 49q-70 0 -119 -49t-49 -118v-327q0 -69 49 -118t119 -49q69 0 118 49t49 118zM436 945h86l-43 -43q-48 -48 -115.5 -48
t-115.5 48q-9 9 -22.5 9t-22.5 -9l-44 -43v86q28 28 66.5 28t65.5 -28v0q30 -30 72.5 -30t72.5 30v0zM298 951q-30 30 -72.5 30t-72.5 -30v0h-86l43 44q48 47 115.5 47t115.5 -47q9 -10 22.5 -10t22.5 9l44 44v-87q-28 -27 -66.5 -27t-65.5 27v0z" />
    <glyph glyph-name="odieresis" unicode="&#xf6;" 
d="M295 715q65 0 111.5 -47t46.5 -112v-327q0 -66 -46 -112t-112 -47q-66 1 -112.5 47t-46.5 112v327q0 65 46.5 112t112.5 47zM392 229v327q0 39 -28 69q-30 28 -69 28q-40 0 -70 -28q-28 -30 -28 -69v-327q0 -39 28 -69q28 -28 70 -28q41 0 69 28q28 30 28 69zM456 718
q68 -68 68 -162v-327q0 -94 -68 -162q-67 -67 -161 -67q-95 0 -162 67t-67 162v327q0 95 67 162t162 67q94 0 161 -67zM462 229v327q0 69 -49 118t-118 49q-70 0 -119 -49t-49 -118v-327q0 -69 49 -118t119 -49q69 0 118 49t49 118zM107 838h131v131h-131v-131zM364 838h131
v131h-131v-131z" />
    <glyph glyph-name="divide" unicode="&#xf7;" horiz-adv-x="705" 
d="M579 388l61 -61h-581l62 61h458zM579 397h-458l-62 61h581zM350 486l65 65l-65 66l-66 -66zM350 168l65 65l-65 66l-66 -66z" />
    <glyph glyph-name="oslash" unicode="&#xf8;" horiz-adv-x="846" 
d="M667 311q0 -102 -72.5 -174.5t-174.5 -72.5q-101 0 -172 69l350 350q69 -71 69 -172zM343 142q36 -17 77 -17q77 0 131.5 54.5t54.5 131.5q0 41 -17 77zM111 9h-86l128 129q-51 80 -51 173q0 132 93 225t225 93q94 0 173 -52l123 124v-87l-118 -118q-75 72 -178 72
q-106 0 -181.5 -75t-75.5 -182q0 -103 72 -178zM686 485q51 -80 51 -174q0 -131 -93 -224t-224 -93q-94 0 -174 51l-128 -129v87l123 124q75 -72 179 -72q106 0 181 75t75 181q0 104 -72 178l119 119h86zM420 559q99 0 171 -70l-349 -350q-70 73 -70 172q0 103 72.5 175.5
t175.5 72.5zM233 311q0 -40 17 -76l246 246q-36 17 -76 17q-77 -1 -132 -55.5t-55 -131.5z" />
    <glyph glyph-name="ugrave" unicode="&#xf9;" 
d="M467 729l61 61v-561q0 -95 -67 -162t-162 -67q-93 0 -162 67q-67 69 -67 162v561l62 -61v-500q0 -69 49 -118t118 -49q70 0 119 49t49 118v500zM299 70q-66 1 -112.5 47t-46.5 112v500l62 61v-561q0 -39 28 -69q28 -28 69 -28q43 0 69 28q29 29 29 69v561l61 -61v-500
q0 -66 -46.5 -112t-112.5 -47zM187 1081v87l194 -194l43 -130zM181 1075l237 -237l-130 43l-194 194h87z" />
    <glyph glyph-name="uacute" unicode="&#xfa;" 
d="M467 729l61 61v-561q0 -95 -67 -162t-162 -67q-93 0 -162 67q-67 69 -67 162v561l62 -61v-500q0 -69 49 -118t118 -49q70 0 119 49t49 118v500zM299 70q-66 1 -112.5 47t-46.5 112v500l62 61v-561q0 -39 28 -69q28 -28 69 -28q43 0 69 28q29 29 29 69v561l61 -61v-500
q0 -66 -46.5 -112t-112.5 -47zM351 1081v87l-194 -194l-43 -130zM357 1075l-237 -237l130 43l194 194h-87z" />
    <glyph glyph-name="ucircumflex" unicode="&#xfb;" 
d="M467 729l61 61v-561q0 -95 -67 -162t-162 -67q-93 0 -162 67q-67 69 -67 162v561l62 -61v-500q0 -69 49 -118t118 -49q70 0 119 49t49 118v500zM299 70q-66 1 -112.5 47t-46.5 112v500l62 61v-561q0 -39 28 -69q28 -28 69 -28q43 0 69 28q29 29 29 69v561l61 -61v-500
q0 -66 -46.5 -112t-112.5 -47zM521 932h-87l-140 140l-140 -140h-87l227 227zM428 839l-134 134l-135 -134v87l135 134l134 -134v-87z" />
    <glyph glyph-name="udieresis" unicode="&#xfc;" 
d="M467 729l61 61v-561q0 -95 -67 -162t-162 -67q-93 0 -162 67q-67 69 -67 162v561l62 -61v-500q0 -69 49 -118t118 -49q70 0 119 49t49 118v500zM299 70q-66 1 -112.5 47t-46.5 112v500l62 61v-561q0 -39 28 -69q28 -28 69 -28q43 0 69 28q29 29 29 69v561l61 -61v-500
q0 -66 -46.5 -112t-112.5 -47zM107 838h131v131h-131v-131zM364 838h131v131h-131v-131z" />
    <glyph glyph-name="yacute" unicode="&#xfd;" 
d="M459 556q-1 -66 -47.5 -112.5t-111.5 -46.5q-66 0 -112.5 46.5t-46.5 112.5v167l61 61v-228q0 -42 29 -69q27 -29 69 -29q40 0 69 29q28 28 28 69v228l62 -61v-167zM132 556q0 -68 47.5 -117t115.5 -51v-327l-61 -61v336q-56 17 -96 58q-67 65 -67 162v228l61 -61v-167z
M467 723l62 61v-228q0 -96 -68 -162q-40 -41 -96 -58v-336l-61 61v327q68 2 115.5 51t47.5 117v167zM341 1080v87l-194 -194l-43 -130zM347 1074l-237 -237l130 43l194 194h-87z" />
    <glyph glyph-name="thorn" unicode="&#xfe;" 
d="M138 723v-662l-61 -61v784zM306 225h-98h-61v318h159q66 0 112.5 -46.5t46.5 -112.5t-46.5 -112.5t-112.5 -46.5zM208 482v-196h99q42 2 68 29q29 29 29 69t-29 69q-27 29 -69 29h-98zM468 546q67 -67 67 -162t-67 -162t-161 -67h-99v-155l-61 61v155h159v0q70 0 119 49
t49 119t-49 119t-119 49h-159v171l61 61v-171h98q95 0 162 -67z" />
    <glyph glyph-name="ydieresis" unicode="&#xff;" 
d="M459 556q-1 -66 -47.5 -112.5t-111.5 -46.5q-66 0 -112.5 46.5t-46.5 112.5v167l61 61v-228q0 -42 29 -69q27 -29 69 -29q40 0 69 29q28 28 28 69v228l62 -61v-167zM132 556q0 -68 47.5 -117t115.5 -51v-327l-61 -61v336q-56 17 -96 58q-67 65 -67 162v228l61 -61v-167z
M467 723l62 61v-228q0 -96 -68 -162q-40 -41 -96 -58v-336l-61 61v327q68 2 115.5 51t47.5 117v167zM106 839h131v131h-131v-131zM363 839h131v131h-131v-131z" />
    <glyph glyph-name="Idot" unicode="&#x130;" horiz-adv-x="485" 
d="M232 70h-102l-61 61h102v522h-102l61 62h102v-1v-644zM130 61h213l61 -61h-335zM343 715l61 -62h-102v-522h102l-61 -61h-102v0v645h102zM343 723h-213l-61 61h335zM305 866v131h-131v-131h131z" />
    <glyph glyph-name="Lslash" unicode="&#x141;" horiz-adv-x="769" 
d="M308 61h332l61 -61h-455v211l-86 -87v87l148 148v-298v0zM316 368l154 154h87l-179 -180v-211h323l-61 -61h-324v298zM316 380v346l62 61v-259l86 87v-87zM308 372l-155 -155h-86l179 180v390l62 -61v-354z" />
    <glyph glyph-name="lslash" unicode="&#x142;" horiz-adv-x="772" 
d="M308 61h332l61 -61h-455v211l-86 -87v87l148 148v-298zM316 368l154 154h87l-179 -180v-211h323l-61 -61h-324v298zM316 380v346l62 61v-259l86 87v-87zM308 372l-155 -155h-86l179 180v390l62 -61v-354z" />
    <glyph glyph-name="OE" unicode="&#x152;" horiz-adv-x="810" 
d="M296 61h394l61 -61h-455q-95 0 -162 67t-67 162v326q0 93 67 162q69 67 162 67h455l-61 -61h-394q-69 0 -118 -49t-49 -119l-1 -326q1 -70 50 -119t118 -49zM751 653h-323v-186h262l-61 -61h-263v308h324zM296 70q-66 0 -112.5 46.5t-46.5 112.5v326q1 66 47 112.5
t112 46.5h62v-644h-62zM199 555v-326q0 -43 28 -69q29 -29 69 -29v522q-40 0 -69 -29q-28 -28 -28 -69zM428 336v-205h323l-61 -61h-324v327h263l61 -61h-262z" />
    <glyph glyph-name="oe" unicode="&#x153;" horiz-adv-x="818" 
d="M296 61h394l61 -61h-455q-95 0 -162 67t-67 162v326q0 93 67 162q69 67 162 67h455l-61 -61h-394q-69 0 -118 -49t-49 -119l-1 -326q1 -70 50 -119t118 -49zM751 653h-323v-186h262l-61 -61h-263v308h324zM296 70q-66 0 -112.5 46.5t-46.5 112.5v326q1 66 47 112.5
t112 46.5h62v-644h-62zM199 555v-326q0 -43 28 -69q29 -29 69 -29v522q-40 0 -69 -29q-28 -28 -28 -69zM428 336v-205h323l-61 -61h-324v327h263l61 -61h-262z" />
    <glyph glyph-name="Scedilla" unicode="&#x15e;" 
d="M195 24q-60 27 -96.5 83.5t-36.5 124.5v61l61 -61q0 -68 47 -117t115 -51l-40 -76l4 -2q33 -18 44.5 -54.5t-6.5 -70.5t-54.5 -45t-70.5 7l-25 83l54 -29q11 -6 23.5 -2t18.5 15t2 23t-15 18l-58 31zM291 787q95 0 162 -67t67 -162v-61l-62 61q0 70 -49 119t-118 49
q-71 0 -119 -45q-49 -44 -49 -114q0 -62 49 -109t117 -67q66 -20 113.5 -65t47.5 -103q0 -64 -45.5 -107t-113.5 -43q-66 0 -112.5 46.5t-46.5 112.5l61 61v-61q0 -40 28.5 -69t69.5 -29q42 0 69.5 25t27.5 64q0 36 -34.5 65.5t-81.5 43.5q-78 23 -135 75q-75 69 -75 160
q0 96 69 159q64 61 160 61zM445 383q75 -69 75 -160q0 -95 -69 -159q-51 -47 -117 -57l-1 -3q29 -37 34 -84t-18 -92q-21 -41 -60 -63.5t-84 -22.5q-40 0 -75 19l-54 29l82 25q22 -12 47 -12q61 0 90 54q19 36 8 75t-46 59l38 73q67 2 114 45q49 44 49 114q0 65 -55 115
q-45 42 -111 61q-66 20 -113 65t-47 103q0 64 45.5 107t113.5 43q65 0 112 -46.5t47 -112.5l-62 -61v61q0 40 -28.5 69t-68.5 29q-43 0 -70.5 -25t-27.5 -64q0 -37 36.5 -66.5t79.5 -42.5q79 -23 136 -75z" />
    <glyph glyph-name="Scedilla" unicode="&#xf6c1;" 
d="M195 24q-60 27 -96.5 83.5t-36.5 124.5v61l61 -61q0 -68 47 -117t115 -51l-40 -76l4 -2q33 -18 44.5 -54.5t-6.5 -70.5t-54.5 -45t-70.5 7l-25 83l54 -29q11 -6 23.5 -2t18.5 15t2 23t-15 18l-58 31zM291 787q95 0 162 -67t67 -162v-61l-62 61q0 70 -49 119t-118 49
q-71 0 -119 -45q-49 -44 -49 -114q0 -62 49 -109t117 -67q66 -20 113.5 -65t47.5 -103q0 -64 -45.5 -107t-113.5 -43q-66 0 -112.5 46.5t-46.5 112.5l61 61v-61q0 -40 28.5 -69t69.5 -29q42 0 69.5 25t27.5 64q0 36 -34.5 65.5t-81.5 43.5q-78 23 -135 75q-75 69 -75 160
q0 96 69 159q64 61 160 61zM445 383q75 -69 75 -160q0 -95 -69 -159q-51 -47 -117 -57l-1 -3q29 -37 34 -84t-18 -92q-21 -41 -60 -63.5t-84 -22.5q-40 0 -75 19l-54 29l82 25q22 -12 47 -12q61 0 90 54q19 36 8 75t-46 59l38 73q67 2 114 45q49 44 49 114q0 65 -55 115
q-45 42 -111 61q-66 20 -113 65t-47 103q0 64 45.5 107t113.5 43q65 0 112 -46.5t47 -112.5l-62 -61v61q0 40 -28.5 69t-68.5 29q-43 0 -70.5 -25t-27.5 -64q0 -37 36.5 -66.5t79.5 -42.5q79 -23 136 -75z" />
    <glyph glyph-name="scedilla" unicode="&#x15f;" 
d="M195 24q-60 27 -96.5 83.5t-36.5 124.5v61l61 -61q0 -68 47 -117t115 -51l-40 -76l4 -2q33 -18 44.5 -54.5t-6.5 -70.5t-54.5 -45t-70.5 7l-25 83l54 -29q11 -6 23.5 -2t18.5 15t2 23t-15 18l-58 31zM291 787q95 0 162 -67t67 -162v-61l-62 61q0 70 -49 119t-118 49
q-71 0 -119 -45q-49 -44 -49 -114q0 -62 49 -109t117 -67q66 -20 113.5 -65t47.5 -103q0 -64 -45.5 -107t-113.5 -43q-66 0 -112.5 46.5t-46.5 112.5l61 61v-61q0 -40 28.5 -69t69.5 -29q42 0 69.5 25t27.5 64q0 36 -34.5 65.5t-81.5 43.5q-78 23 -135 75q-75 69 -75 160
q0 96 69 159q64 61 160 61zM445 383q75 -69 75 -160q0 -95 -69 -159q-51 -47 -117 -57l-1 -3q29 -37 34 -84t-18 -92q-21 -41 -60 -63.5t-84 -22.5q-40 0 -75 19l-54 29l82 25q22 -12 47 -12q61 0 90 54q19 36 8 75t-46 59l38 73q67 2 114 45q49 44 49 114q0 65 -55 115
q-45 42 -111 61q-66 20 -113 65t-47 103q0 64 45.5 107t113.5 43q65 0 112 -46.5t47 -112.5l-62 -61v61q0 40 -28.5 69t-68.5 29q-43 0 -70.5 -25t-27.5 -64q0 -37 36.5 -66.5t79.5 -42.5q79 -23 136 -75z" />
    <glyph glyph-name="scedilla" unicode="&#xf6c2;" 
d="M195 24q-60 27 -96.5 83.5t-36.5 124.5v61l61 -61q0 -68 47 -117t115 -51l-40 -76l4 -2q33 -18 44.5 -54.5t-6.5 -70.5t-54.5 -45t-70.5 7l-25 83l54 -29q11 -6 23.5 -2t18.5 15t2 23t-15 18l-58 31zM291 787q95 0 162 -67t67 -162v-61l-62 61q0 70 -49 119t-118 49
q-71 0 -119 -45q-49 -44 -49 -114q0 -62 49 -109t117 -67q66 -20 113.5 -65t47.5 -103q0 -64 -45.5 -107t-113.5 -43q-66 0 -112.5 46.5t-46.5 112.5l61 61v-61q0 -40 28.5 -69t69.5 -29q42 0 69.5 25t27.5 64q0 36 -34.5 65.5t-81.5 43.5q-78 23 -135 75q-75 69 -75 160
q0 96 69 159q64 61 160 61zM445 383q75 -69 75 -160q0 -95 -69 -159q-51 -47 -117 -57l-1 -3q29 -37 34 -84t-18 -92q-21 -41 -60 -63.5t-84 -22.5q-40 0 -75 19l-54 29l82 25q22 -12 47 -12q61 0 90 54q19 36 8 75t-46 59l38 73q67 2 114 45q49 44 49 114q0 65 -55 115
q-45 42 -111 61q-66 20 -113 65t-47 103q0 64 45.5 107t113.5 43q65 0 112 -46.5t47 -112.5l-62 -61v61q0 40 -28.5 69t-68.5 29q-43 0 -70.5 -25t-27.5 -64q0 -37 36.5 -66.5t79.5 -42.5q79 -23 136 -75z" />
    <glyph glyph-name="Scaron" unicode="&#x160;" 
d="M447 380q75 -69 75 -160q0 -95 -69 -159q-67 -61 -160 -61q-95 0 -162 67t-67 162v61l61 -61q0 -69 49 -118.5t119 -49.5t118 45q49 44 49 114q0 65 -55 115q-45 42 -111 61q-66 20 -113 65t-47 103q0 64 45.5 107t113.5 43q65 0 111.5 -46.5t46.5 -111.5v-1l-61 -61v62
q0 40 -28.5 68.5t-68.5 28.5q-43 0 -70.5 -25t-27.5 -64q0 -37 36.5 -66.5t79.5 -42.5q80 -23 136 -75zM293 784q95 0 162 -67t67 -161v-62l-62 62q0 69 -49 118t-118 49q-70 0 -119 -44q-49 -46 -49 -115q0 -62 49 -109t117 -67q66 -20 113 -65t47 -103q0 -64 -45.5 -107
t-112.5 -43q-66 0 -112.5 46.5t-46.5 112.5l61 61v-61q0 -41 28.5 -69.5t69.5 -28.5q42 0 69.5 25.5t27.5 63.5q0 36 -35 66t-81 43q-78 23 -135 75q-75 69 -75 160q0 95 68 160q66 60 161 60zM561 1196h-87l-140 -140l-140 140h-87l227 -227zM468 1289l-134 -134l-135 134
v-87l135 -134l134 134v87z" />
    <glyph glyph-name="scaron" unicode="&#x161;" 
d="M447 380q75 -69 75 -160q0 -95 -69 -159q-67 -61 -160 -61q-95 0 -162 67t-67 162v61l61 -61q0 -69 49 -118.5t119 -49.5t118 45q49 44 49 114q0 65 -55 115q-45 42 -111 61q-66 20 -113 65t-47 103q0 64 45.5 107t113.5 43q65 0 111.5 -46.5t46.5 -111.5v-1l-61 -61v62
q0 40 -28.5 68.5t-68.5 28.5q-43 0 -70.5 -25t-27.5 -64q0 -37 36.5 -66.5t79.5 -42.5q80 -23 136 -75zM293 784q95 0 162 -67t67 -161v-62l-62 62q0 69 -49 118t-118 49q-70 0 -119 -44q-49 -46 -49 -115q0 -62 49 -109t117 -67q66 -20 113 -65t47 -103q0 -64 -45.5 -107
t-112.5 -43q-66 0 -112.5 46.5t-46.5 112.5l61 61v-61q0 -41 28.5 -69.5t69.5 -28.5q42 0 69.5 25.5t27.5 63.5q0 36 -35 66t-81 43q-78 23 -135 75q-75 69 -75 160q0 95 68 160q66 60 161 60zM531 1060h-87l-140 -140l-140 140h-87l227 -227zM438 1153l-134 -134l-135 134
v-87l135 -134l134 134v87z" />
    <glyph glyph-name="Ydieresis" unicode="&#x178;" 
d="M459 556q-1 -66 -47.5 -112.5t-111.5 -46.5q-66 0 -112.5 46.5t-46.5 112.5v167l61 61v-228q0 -42 29 -69q27 -29 69 -29q40 0 69 29q28 28 28 69v228l62 -61v-167zM132 556q0 -68 47.5 -117t115.5 -51v-327l-61 -61v336q-56 17 -96 58q-67 65 -67 162v228l61 -61v-167z
M467 723l62 61v-228q0 -96 -68 -162q-40 -41 -96 -58v-336l-61 61v327q68 2 115.5 51t47.5 117v167zM107 985h131v131h-131v-131zM364 985h131v131h-131v-131z" />
    <glyph glyph-name="Zcaron" unicode="&#x17d;" 
d="M431 723h-307l-61 61h458l-263 -653h263l-61 -61h-293zM521 0h-458l264 653h-264l62 61h293l-264 -653h306zM531 1066h-87l-140 -140l-140 140h-87l227 -227zM438 1159l-134 -134l-135 134v-87l135 -134l134 134v87z" />
    <glyph glyph-name="zcaron" unicode="&#x17e;" 
d="M431 723h-307l-61 61h458l-263 -653h263l-61 -61h-293zM521 0h-458l264 653h-264l62 61h293l-264 -653h306zM541 1062h-87l-140 -140l-140 140h-87l227 -227zM448 1155l-134 -134l-135 134v-87l135 -134l134 134v87z" />
    <glyph glyph-name="Gcaron" unicode="&#x1e6;" 
d="M282 406h243v-178q0 -96 -67 -161q-65 -67 -162 -67q-96 0 -161 67q-67 65 -67 161v327q0 95 67 162t161 67q95 0 162 -67t67 -162v-61l-61 61q0 70 -49 119t-119 49q-69 0 -118 -49t-49 -119v-327q0 -69 49 -118t118 -49q70 0 119 49t49 118v0v117h-121zM455 555
l-61 -61v61q0 39 -28 69q-29 29 -70 29q-40 0 -69 -29q-28 -30 -28 -69v-327q0 -40 28 -68q29 -29 69 -29q41 0 70 29q28 28 28 68v47h-112l61 61h112v-108v0q0 -65 -46.5 -111.5t-112.5 -46.5q-65 0 -111.5 46.5t-46.5 111.5v327q0 66 46.5 112.5t111.5 46.5
q66 0 112.5 -46.5t46.5 -112.5zM531 1065h-87l-140 -140l-140 140h-87l227 -227zM438 1158l-134 -134l-135 134v-87l135 -134l134 134v87z" />
    <glyph glyph-name="gcaron" unicode="&#x1e7;" 
d="M282 406h243v-178q0 -96 -67 -161q-65 -67 -162 -67q-96 0 -161 67q-67 65 -67 161v327q0 95 67 162t161 67q95 0 162 -67t67 -162v-61l-61 61q0 70 -49 119t-119 49q-69 0 -118 -49t-49 -119v-327q0 -69 49 -118t118 -49q70 0 119 49t49 118v0v117h-121zM455 555
l-61 -61v61q0 39 -28 69q-29 29 -70 29q-40 0 -69 -29q-28 -30 -28 -69v-327q0 -40 28 -68q29 -29 69 -29q41 0 70 29q28 28 28 68v47h-112l61 61h112v-108v0q0 -65 -46.5 -111.5t-112.5 -46.5q-65 0 -111.5 46.5t-46.5 111.5v327q0 66 46.5 112.5t111.5 46.5
q66 0 112.5 -46.5t46.5 -112.5zM526 1064h-87l-140 -140l-140 140h-87l227 -227zM433 1157l-134 -134l-135 134v-87l135 -134l134 134v87z" />
    <glyph glyph-name="circumflex" unicode="&#x2c6;" 
d="M531 932h-87l-140 140l-140 -140h-87l227 227zM438 839l-134 134l-135 -134v87l135 134l134 -134v-87z" />
    <glyph glyph-name="caron" unicode="&#x2c7;" 
d="M531 1060h-87l-140 -140l-140 140h-87l227 -227zM438 1153l-134 -134l-135 134v-87l135 -134l134 134v87z" />
    <glyph glyph-name="breve" unicode="&#x2d8;" 
d="M426 944h77q-12 -21 -33 -44q-69 -67 -162 -67q-95 0 -162 67q-21 21 -34 44h77q48 -50 119 -50v0q70 0 118 50zM195 950v86l44 -43q27 -29 69 -29q40 0 69 29l7.5 7.5l13.5 14t16 15.5l6 6v-86q-47 -47 -112 -47v0q-66 0 -113 47z" />
    <glyph glyph-name="dotaccent" unicode="&#x2d9;" 
d="M364 426v131h-131v-131h131z" />
    <glyph glyph-name="ring" unicode="&#x2da;" 
d="M307 724q-39 0 -66 27.5t-27 66.5q0 38 27 65.5t66 27.5t66 -27.5t27 -65.5q0 -39 -27 -66.5t-66 -27.5zM307 850q-13 0 -22.5 -9.5t-9.5 -22.5q0 -14 9.5 -23.5t22.5 -9.5t22.5 9.5t9.5 23.5q0 13 -9.5 22.5t-22.5 9.5zM307 654q-68 0 -115.5 48t-47.5 116t48 115.5
t115 47.5t115 -47.5t48 -115.5t-47.5 -116t-115.5 -48zM307 920q-42 0 -72 -30t-30 -72q0 -43 30 -73t72 -30t72 30t30 73q0 42 -30 72t-72 30z" />
    <glyph glyph-name="ogonek" unicode="&#x2db;" 
d="M378 0v56h-62v-56q0 -38 27 -65t65 -27l62 61h-62q-13 0 -21.5 9t-8.5 22zM308 0v56h-62v-56q0 -46 23.5 -84t63.5 -59q35 -19 75 -19h62l-62 61q-26 0 -47 12q-53 28 -53 89z" />
    <glyph glyph-name="tilde" unicode="&#x2dc;" 
d="M430 931h86l-43 -43q-48 -48 -115.5 -48t-115.5 48q-9 9 -22.5 9t-22.5 -9l-44 -43v86q28 28 66.5 28t65.5 -28v0q30 -30 72.5 -30t72.5 30v0zM292 937q-30 30 -72.5 30t-72.5 -30v0h-86l43 44q48 47 115.5 47t115.5 -47q9 -10 22.5 -10t22.5 9l44 44v-87
q-28 -27 -66.5 -27t-65.5 27v0z" />
    <glyph glyph-name="pi" unicode="&#x3c0;" horiz-adv-x="831" 
d="M218 506q-39 0 -68 -25t-33 -64l-69 -52l8 60q8 61 54.5 101.5t107.5 40.5h519l-61 -61h-458zM577 497l-59 -338q-6 -42 19.5 -75.5t67.5 -39.5q42 -5 76 20.5t39 67.5l69 53l-8 -61q-9 -67 -63 -108t-121 -32t-108 62.5t-32 120.5l47 269h-123l-94 -533l-50 71l92 523
h248zM526 158l60 339h90l61 -61h-99l-51 -286q-2 -14 6.5 -24.5t21.5 -11.5q13 -2 23.5 6t12.5 21l8 61l52 -69q-5 -38 -35.5 -61.5t-68.5 -18.5q-39 5 -62.5 36t-18.5 69zM229 -24l-71 -50l89 510h-29q-12 0 -21.5 -8t-10.5 -20l-8 -61l-53 69q5 35 31.5 58t61.5 23h102z
" />
    <glyph glyph-name="endash" unicode="&#x2013;" 
d="M461 388l61 -61h-458l61 61h336zM461 397h-336l-61 61h458z" />
    <glyph glyph-name="emdash" unicode="&#x2014;" horiz-adv-x="731" 
d="M587 388l61 -61h-580l61 61h458zM587 397h-458l-61 61h580z" />
    <glyph glyph-name="quoteleft" unicode="&#x2018;" 
d="M52 836h131v-131h-70v-61l-61 61v131z" />
    <glyph glyph-name="quoteright" unicode="&#x2019;" 
d="M415 836h131v-131l-61 -61v61h-70v131z" />
    <glyph glyph-name="quotedblleft" unicode="&#x201c;" 
d="M349 836h-130v-131l61 -61v61h70zM52 836h131v-131h-70v-61l-61 61v131z" />
    <glyph glyph-name="quotedblright" unicode="&#x201d;" 
d="M415 836h131v-131l-61 -61v61h-70v131zM248 836h131v-131l-61 -61v61h-70v131z" />
    <glyph glyph-name="dagger" unicode="&#x2020;" 
d="M473 494h-163v230l61 61v-230h163zM473 485l61 -61h-163v-556l-61 -61v678h163zM137 485h164v-678l-61 61l-1 556h-163zM76 555h163v230l62 -61v-230h-164z" />
    <glyph glyph-name="daggerdbl" unicode="&#x2021;" 
d="M472 395h-163v186h163l61 -61h-163v-64h163zM472 590h-163v133l61 61v-133h163zM533 325h-163v-458l-61 -61v580h163zM300 386v-580l-61 61v458h-164l62 61h163zM300 395h-163l-62 61h164v64h-164l62 61h163v-186zM300 590h-163l-62 61h164v133l61 -61v-133z" />
    <glyph glyph-name="bullet" unicode="&#x2022;" 
d="M302 293q-39 0 -66 27.5t-27 66.5q0 38 27 65.5t66 27.5t66 -27.5t27 -65.5q0 -39 -27 -66.5t-66 -27.5zM302 419q-13 0 -22.5 -9.5t-9.5 -22.5q0 -14 9.5 -23.5t22.5 -9.5t22.5 9.5t9.5 23.5q0 13 -9.5 22.5t-22.5 9.5zM302 223q-68 0 -115.5 48t-47.5 116
q0 67 47.5 115t115.5 48t115.5 -48t47.5 -115q0 -68 -47.5 -116t-115.5 -48zM302 489q-42 0 -72 -30t-30 -72q0 -43 30 -73t72 -30t72 30t30 73q0 42 -30 72t-72 30z" />
    <glyph glyph-name="ellipsis" unicode="&#x2026;" 
d="M163 0v131h-131v-131h131zM339 0v131h-131v-131h131zM510 0v131h-131v-131h131z" />
    <glyph glyph-name="perthousand" unicode="&#x2030;" horiz-adv-x="1272" 
d="M226 593q-39 0 -66 27.5t-28 66.5q1 39 28 66t66 27q38 0 65.5 -27.5t27.5 -65.5q0 -39 -27.5 -66.5t-65.5 -27.5zM226 719q-13 0 -22.5 -9.5t-9.5 -22.5t9 -22.5t23 -9.5t23 9.5t9 22.5t-9.5 22.5t-22.5 9.5zM226 523q-68 0 -115.5 48t-48.5 116q1 68 49 115.5t115 47.5
q68 0 115.5 -48t47.5 -115q0 -68 -47.5 -116t-115.5 -48zM226 789q-43 0 -72.5 -30t-29.5 -72q0 -43 29.5 -72.5t72.5 -29.5q42 0 72 29.5t30 72.5q0 42 -30 72t-72 30zM669 190q39 0 66 -27.5t27 -65.5q0 -39 -27 -66t-66 -27t-66 27t-27 66q0 38 27 65.5t66 27.5zM669 65
q13 0 22.5 9.5t9.5 22.5t-9.5 22.5t-22.5 9.5t-22.5 -9.5t-9.5 -22.5t9.5 -22.5t22.5 -9.5zM669 260q67 0 115 -48t48 -115q0 -68 -47.5 -116t-115.5 -48t-115.5 48t-47.5 116q0 67 48 115t115 48zM669 -5q42 0 72 29.5t30 72.5q0 42 -30 72t-72 30t-72 -30t-30 -72
q0 -43 30 -72.5t72 -29.5zM1057 190q38 0 65.5 -27.5t27.5 -65.5q0 -39 -27.5 -66t-65.5 -27q-39 0 -66 27t-28 66q1 39 28 66t66 27zM1057 65q13 0 22.5 9.5t9.5 22.5t-9.5 22.5t-22.5 9.5t-22.5 -9.5t-9.5 -22.5t9.5 -22.5t22.5 -9.5zM1057 260q67 0 115 -48t48 -115
q0 -68 -47.5 -116t-115.5 -48q-67 0 -115 48t-49 116q1 68 49 115.5t115 47.5zM1057 -5q42 0 72 29.5t30 72.5q0 42 -30 72t-72 30q-43 0 -72.5 -30t-29.5 -72q0 -43 29.5 -72.5t72.5 -29.5zM913 790l-790 -790h-87l877 876v-86zM919 784h86l-876 -877v87z" />
    <glyph glyph-name="guilsinglleft" unicode="&#x2039;" horiz-adv-x="813" 
d="M310 399l438 254l-84 22l-477 -276l477 -275l84 23zM170 399l490 -283l22 -83l-635 366l635 367l-22 -83z" />
    <glyph glyph-name="guilsinglright" unicode="&#x203a;" horiz-adv-x="828" 
d="M496 407l-438 -254l84 -22l477 276l-477 275l-84 -23zM636 407l-490 283l-22 83l635 -366l-635 -367l22 83z" />
    <glyph glyph-name="fraction" unicode="&#x2044;" horiz-adv-x="295" 
d="M547 790l-789 -790h-87l876 876v-86zM554 784h86l-876 -877v87z" />
    <glyph glyph-name="fraction" unicode="&#x2215;" horiz-adv-x="295" 
d="M547 790l-789 -790h-87l876 876v-86zM554 784h86l-876 -877v87z" />
    <glyph glyph-name="zero.inf" unicode="&#x2080;" horiz-adv-x="392" 
d="M195 122q26 0 44 -18t18 -43v-131q0 -25 -18 -43t-44 -18q-25 0 -43 17.5t-18 43.5v131q0 25 18 43t43 18zM200 -70v131q0 5 -5 5q-4 0 -4 -5v-131q0 -4 4 -4q5 0 5 4zM327 61v-131h-1h1q0 -54 -38.5 -92.5t-93.5 -38.5q-54 0 -92.5 38.5t-38.5 92.5v0v131
q0 55 38.5 93.5t92.5 38.5q55 0 93.5 -38.5t38.5 -93.5zM265 -70v132q0 29 -20.5 49t-49.5 20q-28 0 -48.5 -20t-21.5 -49v-132q0 -29 20.5 -49.5t49.5 -20.5t49.5 20.5t20.5 49.5z" />
    <glyph glyph-name="one.inf" unicode="&#x2081;" horiz-adv-x="262" 
d="M123 -140l-61 -54v254l61 61v-261zM193 191v-392l-61 61v270z" />
    <glyph glyph-name="two.inf" unicode="&#x2082;" horiz-adv-x="390" 
d="M193 132q-29 0 -50 -20.5t-21 -49.5h-61q0 54 38.5 92.5t93.5 38.5q54 0 92.5 -38.5t38.5 -92.5v0q0 -40 -21 -77q-16 -26 -42 -50l-5 -5h68l-61 -61h-132q3 41 64 90q22 18 33.5 29t23 31.5t11.5 42.5q0 28 -20.5 49t-49.5 21zM263 -140l61 -61h-263v66q0 42 22 76
q13 23 41 49l25.5 22l24 20.5t12.5 13.5q6 9 7 16v0h-62q0 25 18 43t44 18q25 0 43 -18t18 -43v0q0 -28 -16 -49t-48 -47q-22 -18 -33.5 -29t-23 -31t-11.5 -41v-5h141z" />
    <glyph glyph-name="three.inf" unicode="&#x2083;" horiz-adv-x="392" 
d="M254 61q0 -25 -18 -43t-43 -18v0v61h-62v0q0 25 18 43t44 18q25 0 43 -18t18 -43v0zM193 -131q-26 0 -44 18t-18 43h62v61v0v0q25 0 43 -18t18 -43v0q0 -25 -18 -43t-43 -18zM324 -70v0q0 -54 -38.5 -92.5t-92.5 -38.5q-55 0 -93.5 38.5t-38.5 92.5h61q0 -29 21 -49.5
t50 -20.5t49.5 20.5t20.5 49.5q0 22 -13 40t-33 26q20 7 33 25t13 40q0 29 -20.5 49.5t-49.5 20.5t-50 -20.5t-21 -49.5v0h-61q0 55 38.5 93.5t93.5 38.5q54 0 92.5 -38.5t38.5 -93.5q0 -34 -18 -65q18 -33 18 -66z" />
    <glyph glyph-name="four.inf" unicode="&#x2084;" horiz-adv-x="456" 
d="M131 131l62 62v-127h31v127l61 -62v-127h-154v127zM294 131l61 62v-127h62l-62 -62h-61v127zM355 -4l62 -62h-62v-135l-61 61v136h61zM285 -140l-61 -61v135h-163v259l61 -62v-127v-4v-4h5h158v-136z" />
    <glyph glyph-name="five.inf" unicode="&#x2085;" horiz-adv-x="377" 
d="M193 -131q-26 0 -44 18t-18 43l-70 70v193h263l-61 -62h-141v-140h71q25 0 43 -18t18 -43q0 -35 -32 -54q-16 -7 -29 -7zM324 -70v0q0 -38 -20 -69.5t-53 -47.5q-28 -14 -58 -14q-55 0 -93.5 38.5t-38.5 92.5h61q0 -29 21 -49.5t50 -20.5v0q17 0 33 8q37 20 37 62v0
q0 29 -20.5 49.5t-49.5 20.5h-62v122h132l61 -61h-131v0q54 0 92.5 -38t38.5 -93z" />
    <glyph glyph-name="six.inf" unicode="&#x2086;" horiz-adv-x="385" 
d="M193 -131q-26 0 -44 18t-18 43v0q0 25 18 43t44 18q25 0 43 -18t18 -43t-18 -43t-43 -18zM324 -70q0 -54 -38.5 -92.5t-92.5 -38.5q-55 0 -93.5 38.5t-38.5 92.5v131q0 55 38.5 93.5t93.5 38.5q54 0 92.5 -38.5t38.5 -93.5h-61q0 29 -20.5 49.5t-49.5 20.5t-50 -20.5
t-21 -49.5v-132q1 -29 21.5 -49t49.5 -20t49.5 20.5t20.5 49.5v0q0 29 -20.5 49.5t-49.5 20.5q-41 0 -62 -36v97q0 25 18 43t44 18q25 0 43 -18t18 -43h-61q54 0 92.5 -38.5t38.5 -92.5z" />
    <glyph glyph-name="seven.inf" unicode="&#x2087;" horiz-adv-x="390" 
d="M204 -9q-16 -9 -25.5 -18t-18.5 -28t-9 -45v-40l-61 -61v101q0 39 13 69q11 29 35 49q12 11 24 19t20 12.5t9 5.5q4 4 4 6h-134l61 62h132v-62q0 -8 -1.5 -14.5t-2.5 -11.5t-5 -10.5t-6 -8t-8 -7l-8 -6t-10 -6.5t-9 -6zM61 193h263v-62v-8v-62q0 -29 -11 -56
q-10 -25 -29 -42q-9 -9 -50 -36q-9 -5 -9 -8q-4 -4 -4 -19v-101l-61 61v0v40q0 24 8 41.5t16.5 25t24.5 17.5q18 11 26.5 17t18 22.5t9.5 37.5v70h-141z" />
    <glyph glyph-name="eight.inf" unicode="&#x2088;" horiz-adv-x="385" 
d="M306 -4q18 -33 18 -66q0 -54 -38.5 -92.5t-92.5 -38.5q-55 0 -93.5 38.5t-38.5 92.5q0 33 18 66q-18 31 -18 65q0 55 38.5 93.5t93.5 38.5q54 0 92.5 -38.5t38.5 -93.5q0 -34 -18 -65zM263 -70q0 22 -13 40t-33 26q20 7 33 25t13 40q0 29 -20.5 49.5t-49.5 20.5
t-50 -20.5t-21 -49.5v0q0 -22 13 -40t33 -25q-20 -8 -33 -26t-13 -40q0 -29 21 -49.5t50 -20.5t49.5 20.5t20.5 49.5v0zM254 61q0 -25 -18 -43t-43 -18q-26 0 -44 18t-18 43v0q0 25 18 43t44 18q25 0 43 -18t18 -43zM131 -70q0 25 18 43t44 18q25 0 43 -18t18 -43t-18 -43
t-43 -18q-26 0 -44 18t-18 43v0z" />
    <glyph glyph-name="nine.inf" unicode="&#x2089;" horiz-adv-x="392" 
d="M191 122q26 0 44 -18t18 -43v0q0 -25 -18 -43t-44 -18q-25 0 -43 18t-18 43t18 43t43 18zM323 -201l-62 61v202q0 29 -20.5 49t-49.5 20t-49.5 -20.5t-20.5 -49.5v0q0 -29 20.5 -49.5t49.5 -20.5q41 0 62 36v-167l-61 -61v131h-1q-54 0 -92.5 38.5t-38.5 92.5
q0 55 38.5 93.5t92.5 38.5t93 -39l39 39v-394z" />
    <glyph glyph-name="Euro" unicode="&#x20ac;" horiz-adv-x="895" 
d="M196 392q0 48 14 93h247l61 -61h-259q-2 -20 -2 -32q0 -10 2 -32h259l-61 -61h-247q-14 45 -14 93zM203 494h-72l-62 61h93q46 103 142.5 166t213.5 63q161 1 278 -114l43 -44h-87q-97 97 -234 97q-109 0 -195.5 -64t-119.5 -165zM703 208l43 43v-87q-94 -94 -228 -94
q-132 0 -228 94q-52 52 -77 126h244l61 -61h-203q80 -98 203 -98q108 0 185 77zM752 158h87l-43 -43q-115 -115 -278 -115q-117 0 -213.5 63t-142.5 166h-93l62 61h72q33 -101 119.5 -165t195.5 -64q137 0 234 97zM518 714q134 0 228 -94v-87l-43 44q-78 76 -185 76
q-60 0 -113 -26t-90 -72h203l-61 -61h-244q25 74 77 126q96 94 228 94zM201 299h-70l-62 61h58q-1 11 -1 32q0 22 1 32h-58l62 61h70q-14 -45 -14 -93q0 -46 14 -93z" />
    <glyph glyph-name="prescription" unicode="&#x211e;" horiz-adv-x="777" 
d="M295 714q66 0 112.5 -46.5t46.5 -112.5q0 -65 -46.5 -111.5t-112.5 -47.5q-65 2 -110 45l-1 1q-48 48 -48 113v0v1q1 65 47.5 111.5t111.5 46.5zM364 486q29 29 29 69q0 42 -29 69q-27 29 -69 29q-40 0 -69 -29q-28 -28 -28 -69q0 -39 28 -69q30 -28 69 -28q41 0 69 28z
M66 779v-779l62 61v494v1v162zM569 143l144 144h-86l-144 -144l144 -144h86zM136 609q17 50 60.5 82t98.5 32q70 0 119 -49t49 -119q0 -69 -49 -118t-119 -49q-40 0 -74 17l54 -54l202 -202l144 144v87l-144 -144l-104 104q48 17 84 54q67 65 67 161q0 97 -67 162
q-65 67 -162 67q-93 0 -159 -64v-111zM621 -7l-144 144l-144 -143v-87l144 143l144 -144v87zM327 0l143 143l-183 184l-109 109q-28 26 -42 66v-441l61 -61l1 330l186 -187l-143 -143h86z" />
    <glyph glyph-name="trademark" unicode="&#x2122;" horiz-adv-x="972" 
d="M54 700h351l-61 -62h-229zM224 371l-61 -61v258h-109l61 61v1h109v-259zM233 630h111l61 -62h-111v-258l-61 61v259zM867 312l-61 61v195q0 31 -22 53t-53 22q-8 0 -24 -4q-34 -13 -46 -46q-11 33 -46 46q-14 4 -24 4q-31 0 -52.5 -22t-21.5 -53v-195l-61 -61v256v1v135
l40 -40q38 40 95 40q38 0 70 -19q33 19 70 19q56 0 96 -40t40 -96v-256zM611 631q20 -6 33 -23.5t13 -39.5v-101l-61 -62v163v0v1q0 4 -5 4q-4 0 -4 -5v0v-256l-61 61v195q0 27 19 46.5t46 19.5q11 0 20 -3zM731 634q28 0 47 -19.5t19 -46.5v-195l-61 -61v256v0q0 5 -5 5
q-4 0 -4 -4v-1v-163l-61 61v102v0q0 22 13 39.5t33 23.5q9 3 19 3z" />
    <glyph glyph-name="arrowleft" unicode="&#x2190;" horiz-adv-x="896" 
d="M493 562l84 -23l-134 -77h400l-62 -61h-566zM190 397l299 -173l22 -83l-444 256l444 256l-22 -84zM843 331h-400l134 -77l-84 -22l-278 160h566z" />
    <glyph glyph-name="arrowup" unicode="&#x2191;" 
d="M465 356l-23 -84l-77 134v-400l-61 62v566zM300 659l-173 -299l-83 -22l256 444l256 -444l-84 22zM234 6v400l-77 -134l-22 84l160 278v-566z" />
    <glyph glyph-name="arrowright" unicode="&#x2192;" horiz-adv-x="878" 
d="M391 232l-84 23l134 77h-400l62 61h566zM694 397l-299 173l-22 83l444 -256l-444 -256l22 84zM41 463h400l-134 77l84 22l278 -160h-566z" />
    <glyph glyph-name="arrowdown" unicode="&#x2193;" 
d="M134 426l23 84l77 -134v400l61 -62v-566zM299 123l173 299l83 22l-256 -444l-256 444l84 -22zM365 776v-400l77 134l22 -84l-160 -278v566z" />
    <glyph glyph-name="arrowboth" unicode="&#x2194;" horiz-adv-x="1275" 
d="M188 397l299 -173l22 -83l-444 256l444 256l-22 -84zM491 562l84 -23l-134 -77h368l-133 77l84 23l278 -161h-825zM760 232l-84 22l133 77h-368l134 -77l-84 -22l-278 160h825zM742 653l444 -256l-444 -256l22 83l299 173l-299 172z" />
    <glyph glyph-name="minus" unicode="&#x2212;" horiz-adv-x="726" 
d="M587 388l61 -61h-580l61 61h458zM587 397h-458l-61 61h580z" />
    <glyph glyph-name="radical" unicode="&#x221a;" horiz-adv-x="633" 
d="M288 -43l-157 157v87l117 -117l158 893h808l-61 -61h-696zM1153 907l61 -61h-698l-182 -1033l-296 295h87l169 -169l171 968h688z" />
    <glyph glyph-name="infinity" unicode="&#x221e;" horiz-adv-x="1005" 
d="M293 521q36 0 65 -12t55 -39t41 -47.5t41 -60.5q-26 -40 -41 -60.5t-41 -47.5t-55 -39t-65 -12q-66 0 -112.5 46.5t-46.5 112.5t46.5 112.5t112.5 46.5zM407 340l15 22q-29 44 -51 65q-36 32 -78 33q-41 0 -69.5 -29t-28.5 -69t28.5 -68.5t69.5 -29.5v0q33 1 60 19
q25 17 54 57zM707 521q66 0 112.5 -46.5t46.5 -112.5t-46.5 -112.5t-112.5 -46.5q-36 0 -65.5 12t-55 38.5t-41 48t-40.5 60.5q25 39 40.5 60.5t41 48t55 38.5t65.5 12zM707 264q41 1 69.5 29.5t28.5 68.5t-28.5 69t-69.5 29q-31 0 -60 -19q-27 -18 -54 -57q-10 -14 -15 -22
q29 -45 51 -64q36 -33 78 -34zM707 591q95 0 162 -67t67 -162q0 -94 -67 -161.5t-162 -67.5h-1q-74 0 -134 42q-37 26 -72 71q-20 -25 -39 -44q-71 -69 -166 -69h-2q-95 0 -162 67.5t-67 161.5q0 95 67 162t162 67q75 1 135 -42q36 -25 72 -70q24 28 39 43q72 70 168 69z
M707 194q70 0 119 49.5t49 118.5q0 70 -49 119t-119 49q-37 0 -68 -12.5t-57 -39t-42 -48.5t-40 -60q-24 38 -40 60t-42 48.5t-57 39t-68 12.5q-70 0 -119 -49t-49 -119q0 -69 49 -118.5t119 -49.5q30 0 57 10t46 23t40 37.5t33 42l31 47.5q24 -38 40 -60t42 -48.5t57 -39
t68 -12.5z" />
    <glyph glyph-name="notequal" unicode="&#x2260;" horiz-adv-x="728" 
d="M127 303l-61 62h170l55 55h-225l61 61h311l-177 -178h-134zM585 490h-125l114 114h87l-54 -53h39zM127 490l-61 61h356l146 146v-86l-121 -121h-320zM127 295h125l-116 -116h-86l54 54h-38zM585 481l61 -61h-170l-55 -55h225l-61 -62h-312l178 178h134zM585 295l61 -62
h-356l-148 -147v87l122 122h321z" />
    <glyph glyph-name="heart" unicode="&#x2665;" horiz-adv-x="990" 
d="M796 651q59 -59 59 -142.5t-59 -142.5q-29 -29 -306 -272l-121.5 108l-130 115.5t-54.5 48.5q-58 59 -58 142.5t58 142.5q58 60 143 60t143 -60q5 -5 17 -19l3 -4l4 4q5 7 17 19q58 60 142 60q85 0 143 -60zM754 410q40 41 40 99t-41 99t-100 41q-58 0 -99 -41
q-4 -4 -12 -14l-52 -67l-52 67q-6 9 -12 14q-39 41 -99 41t-99 -41q-41 -40 -41.5 -98.5t40.5 -99.5l263 -234zM846 701q80 -79 80 -192t-80 -192q-7 -7 -312 -278l-44 -39l-43 39q-311 277 -312 277q-79 80 -79 193t79 192q80 80 192 80q89 0 163 -55q74 55 163 55
q111 0 193 -80zM802 360q62 62 62 149t-62 148q-62 62 -149 62q-88 0 -148 -62l-15 -15q-8 11 -14 15q-62 62 -149 62t-149 -62q-62 -61 -62 -148t62 -149q3 -3 153.5 -137t155.5 -138l3 -3l3 3l159.5 141t149.5 134z" />
    <glyph glyph-name="square" horiz-adv-x="903" 
d="M58 785h784v-785h-784v785zM781 61v662h-662v-662h662zM772 715v-645h-644v645h644zM711 131v522h-522v-522h522z" />
    <glyph glyph-name="zero.sup" horiz-adv-x="387" 
d="M190 916q25 0 43 -18t18 -43v-132q0 -25 -17.5 -43t-43.5 -18t-43.5 18t-17.5 43v132q0 25 18 43t43 18zM194 723v132q0 4 -4 4t-4 -4v-132q0 -4 4 -4t4 4zM321 855v-132v0q0 -54 -38 -92.5t-93 -38.5q-54 0 -92.5 38.5t-38.5 92.5v0v132q0 54 38.5 92.5t92.5 38.5
q55 0 93 -38.5t38 -92.5zM260 723v132q0 29 -20.5 49.5t-49.5 20.5q-28 0 -49 -20.5t-21 -49.5v-132q0 -29 20.5 -49.5t49.5 -20.5t49.5 20.5t20.5 49.5z" />
    <glyph glyph-name="four.sup" horiz-adv-x="479" 
d="M131 925l62 61v-127h31v127l61 -62v-127h-154v128zM294 925l61 61v-127h62l-62 -62h-61v128zM355 789l62 -62h-62v-135l-61 62v135h61zM285 653l-61 -61v135h-163v259l61 -61v-128v-4v-4h5h158v-136z" />
    <glyph glyph-name="five.sup" horiz-adv-x="353" 
d="M191 662q-25 0 -43 18t-18 43l-70 70v193h263l-62 -61h-140v-140h70q26 -1 44 -19t18 -43q0 -35 -32 -54q-16 -7 -30 -7zM323 723v0q0 -38 -20 -69.5t-53 -47.5q-28 -14 -59 -14q-54 0 -92.5 38.5t-38.5 92.5h61q0 -29 20.5 -49.5t49.5 -20.5v0q19 0 34 9q36 19 36 61v0
q0 29 -20.5 49.5t-49.5 20.5h-61v123h131l62 -61h-132v0q55 -1 93.5 -39t38.5 -93z" />
    <glyph glyph-name="six.sup" horiz-adv-x="353" 
d="M193 662q-26 0 -44 18t-18 43v0q0 25 18 43t44 18q25 0 43 -18t18 -43t-18 -43t-43 -18zM324 723q0 -54 -38.5 -92.5t-92.5 -38.5q-55 0 -93.5 38.5t-38.5 92.5v131q0 55 38.5 93.5t93.5 38.5q54 0 92.5 -38.5t38.5 -93.5h-61q0 29 -20.5 50t-49.5 21t-50 -21t-21 -50
v-131q1 -29 21.5 -49.5t49.5 -20.5t49.5 20.5t20.5 49.5v0q0 29 -20.5 49.5t-49.5 20.5q-42 0 -62 -36v97q0 26 18.5 44t43.5 18t43 -18.5t18 -43.5h-61q54 0 92.5 -38t38.5 -93z" />
    <glyph glyph-name="seven.sup" horiz-adv-x="392" 
d="M205 785q-16 -10 -26 -19t-19 -28t-9 -45v-40l-61 -61v101q0 39 13 69q10 27 35 50q12 10 24.5 18l20 12.5t8.5 6.5q4 0 4 6h-134l61 61h132v-61q0 -20 -8.5 -34.5t-15 -19t-25.5 -16.5zM61 986h263v-61v-9v-61q0 -32 -11 -57q-10 -25 -29 -42q-10 -9 -20 -16.5
t-18.5 -12.5t-11.5 -7q-9 -5 -9 -7q-4 -8 -4 -20v-101l-61 61v0v40q0 24 8 41.5t16.5 25t24.5 17.5q18 11 26.5 17t18 22.5t9.5 38.5v70h-141z" />
    <glyph glyph-name="eight.sup" horiz-adv-x="387" 
d="M306 789q18 -33 18 -66q0 -54 -38.5 -92.5t-92.5 -38.5q-55 0 -93.5 38.5t-38.5 92.5q0 33 18 66q-18 31 -18 65q0 55 38.5 93.5t93.5 38.5q54 0 92.5 -38.5t38.5 -93.5q0 -34 -18 -65zM263 723q0 22 -13 40t-33 26q20 8 33 25.5t13 39.5v1q0 29 -20.5 49.5t-49.5 20.5
t-50 -21t-21 -50v0q0 -22 13 -39.5t33 -25.5q-20 -8 -33 -26t-13 -40q0 -29 21 -49.5t50 -20.5t49.5 20.5t20.5 49.5v0zM254 854q0 -25 -18 -43t-43 -18t-43.5 18t-18.5 43v0q0 26 18.5 44t43.5 18t43 -18.5t18 -43.5zM131 723q0 25 18 43t44 18q25 0 43 -18t18 -43t-18 -43
t-43 -18q-26 0 -44 18t-18 43v0z" />
    <glyph glyph-name="nine.sup" horiz-adv-x="395" 
d="M195 916q25 0 43.5 -18t18.5 -43v0q0 -25 -18.5 -43.5t-43.5 -18.5t-43 18.5t-18 43.5t18 43t43 18zM327 592l-62 62v69v132q0 29 -20.5 49.5t-49.5 20.5t-49.5 -20.5t-20.5 -49.5v0q0 -29 20.5 -49.5t49.5 -20.5q42 0 62 36v-98v-70l-62 -61v131q-54 0 -92.5 38.5
t-38.5 93.5q0 54 38.5 92.5t92.5 38.5t93 -39l39 39v-131v0v-89v-174z" />
    <glyph glyph-name="zero.num" horiz-adv-x="387" 
d="M193 714q25 0 43 -18t18 -43v-131q0 -26 -18 -43.5t-43 -17.5t-43 17.5t-18 43.5v131q0 25 18 43t43 18zM197 522v131q0 4 -4 4t-4 -4v-131q0 -5 4 -5t4 5zM324 653v-131v0q0 -55 -38 -93t-93 -38t-93 38t-38 93v0v131q0 55 38 93t93 38t93 -38t38 -93zM263 522v132
q0 28 -20.5 48.5t-49.5 20.5t-49.5 -20.5t-20.5 -48.5v-132q0 -29 20.5 -49.5t49.5 -20.5t49.5 20.5t20.5 49.5z" />
    <glyph glyph-name="one.num" horiz-adv-x="256" 
d="M122 453l-61 -54v254l61 61v-261zM193 784v-392l-62 61v270z" />
    <glyph glyph-name="two.num" horiz-adv-x="382" 
d="M193 723q-29 0 -50 -20.5t-21 -49.5h-61q0 55 38.5 93t93.5 38q54 0 92.5 -38t38.5 -93v0q0 -40 -21 -77q-15 -24 -42 -49l-5 -5h68l-61 -61h-132q1 18 11.5 35t21 27.5t31.5 27.5q23 19 34 29t22.5 30.5t11.5 42.5q0 29 -20.5 49.5t-49.5 20.5zM263 452l61 -61h-263v65
q0 41 22 77q13 23 41 49l25.5 22l24 20.5t12.5 13.5q5 7 7 15v0h-62q0 25 18 43t44 18q25 0 43 -18t18 -43v0q0 -20 -10.5 -38t-21.5 -29t-32 -28q-23 -19 -33.5 -29.5t-22.5 -31t-12 -41.5v-4h141z" />
    <glyph glyph-name="three.num" horiz-adv-x="379" 
d="M254 653q0 -25 -18 -43t-43 -18v0v61h-62v0q0 25 18 43t44 18q25 0 43 -18t18 -43v0zM193 461q-26 0 -44 18t-18 43h62v61v0v0q25 0 43 -18t18 -43v0q0 -25 -18 -43t-43 -18zM324 522v0q0 -55 -38.5 -93t-92.5 -38q-55 0 -93.5 38t-38.5 93h61q0 -29 21 -49.5t50 -20.5
t49.5 20.5t20.5 49.5q0 22 -13 40t-33 25q20 8 33 26t13 40q0 29 -20.5 49.5t-49.5 20.5t-50 -20.5t-21 -49.5v0h-61q0 55 38.5 93t93.5 38q54 0 92.5 -38t38.5 -93q0 -33 -18 -66q18 -31 18 -65z" />
    <glyph glyph-name="four.num" horiz-adv-x="464" 
d="M131 723l62 61v-127h31v127l61 -61v-127h-154v127zM294 723l61 61v-127h62l-62 -61h-61v127zM355 587l62 -61h-62v-135l-61 61v135h61zM285 452l-61 -61v135h-163v258l61 -61v-127v-4v-5h5h158v-135z" />
    <glyph glyph-name="five.num" horiz-adv-x="382" 
d="M193 461q-26 0 -44 18t-18 43l-70 70v192h263l-61 -61h-141v-140h71q25 0 43 -18t18 -43q0 -37 -32 -54q-13 -7 -29 -7zM324 522v0q0 -38 -20 -69.5t-53 -48.5q-29 -13 -58 -13q-55 0 -93.5 38t-38.5 93h61q0 -29 21 -49.5t50 -20.5v0q17 0 33 8q37 20 37 62v0
q0 29 -20.5 49.5t-49.5 20.5h-62v122h132l61 -61h-131v0q54 0 92.5 -38.5t38.5 -92.5z" />
    <glyph glyph-name="six.num" horiz-adv-x="385" 
d="M193 461q-26 0 -44 18t-18 43v0q0 25 18 43t44 18q25 0 43 -18t18 -43t-18 -43t-43 -18zM324 522q0 -55 -38.5 -93t-92.5 -38q-55 0 -93.5 38t-38.5 93v131q0 55 38.5 93t93.5 38q54 0 92.5 -38t38.5 -93h-61q0 29 -20.5 49.5t-49.5 20.5t-50 -20.5t-21 -49.5v-132
q1 -29 21.5 -49t49.5 -20t49.5 20.5t20.5 49.5v0q0 29 -20.5 49.5t-49.5 20.5q-41 0 -62 -36v97q0 25 18 43t44 18q25 0 43 -18t18 -43h-61q54 0 92.5 -38.5t38.5 -92.5z" />
    <glyph glyph-name="seven.num" horiz-adv-x="387" 
d="M204 583q-16 -9 -25.5 -18t-18.5 -28t-9 -45v-40l-61 -61v101q0 39 13 69q11 26 35 49q12 10 24 18.5t19.5 12.5t9.5 6q4 4 4 6h-134l61 61h132v-61q0 -20 -8.5 -34t-15.5 -19t-26 -17zM61 784h263v-61v-9v-61q0 -29 -11 -56q-9 -23 -29 -43q-10 -9 -19.5 -16
t-19.5 -12.5t-11 -6.5q-9 -5 -9 -8q-4 -4 -4 -19v-101l-61 61v0v40q0 24 8 41.5t16.5 25t24.5 17.5q19 11 26.5 16.5t17.5 22t10 38.5v70h-141z" />
    <glyph glyph-name="eight.num" horiz-adv-x="372" 
d="M302 587q18 -29 18 -65q0 -55 -38.5 -93t-92.5 -38q-55 0 -93 38t-38 93q0 36 17 65q-17 31 -17 66q0 55 38 93t93 38q54 0 92.5 -38t38.5 -93q0 -36 -18 -66zM259 522q0 22 -13 40t-33 25q20 8 33 26t13 40q0 29 -20.5 49.5t-49.5 20.5t-49.5 -20.5t-20.5 -49.5v0
q0 -22 13 -40t33 -26q-20 -7 -33 -25t-13 -40q0 -29 20.5 -49.5t49.5 -20.5t49.5 20.5t20.5 49.5v0zM250 653q0 -25 -18 -43t-43 -18t-43 18t-18 43v0q0 25 18 43t43 18t43 -18t18 -43zM128 522q0 26 18 43.5t43 17.5t43 -17.5t18 -43.5t-18 -43.5t-43 -17.5t-43 17.5
t-18 43.5v0z" />
    <glyph glyph-name="nine.num" horiz-adv-x="395" 
d="M195 714q25 0 43 -18t18 -43v0q0 -25 -18 -43t-43 -18t-43 17.5t-19 43.5q0 25 18 43t44 18zM326 391l-61 61v70v132q-1 29 -21.5 49t-48.5 20q-29 0 -49.5 -20.5t-20.5 -49.5v0q0 -29 20.5 -49.5t49.5 -20.5q40 0 61 36v-97v-70l-61 -61v131q-55 0 -93.5 38.5
t-38.5 92.5q0 55 38.5 93t93.5 38q56 0 92 -38l39 38v-131v0v-89v-173z" />
    <glyph glyph-name="zero.den" horiz-adv-x="387" 
d="M194 321q25 0 43 -18t18 -43v-131q0 -25 -18 -43t-43 -18q-26 0 -44 18t-18 43v131q0 25 18 43t44 18zM198 129v131q0 4 -4 4q-5 0 -5 -4v-131q0 -5 5 -5q4 0 4 5zM325 260v-131v0q0 -55 -38.5 -93t-92.5 -38q-55 0 -93.5 38t-38.5 93h1h-1v131q0 55 38.5 93t93.5 38
q54 0 92.5 -38t38.5 -93zM264 129v132q-1 29 -21.5 49t-48.5 20q-29 0 -49.5 -20t-20.5 -49v-132q0 -29 20.5 -49.5t49.5 -20.5t49.5 20.5t20.5 49.5z" />
    <glyph glyph-name="one.den" horiz-adv-x="256" 
d="M122 59l-61 -54v254l61 61v-261zM193 390v-392l-62 61v270z" />
    <glyph glyph-name="two.den" horiz-adv-x="377" 
d="M193 330q-29 0 -50 -20.5t-21 -49.5h-61q0 55 38.5 93.5t93.5 38.5q54 0 92.5 -38.5t38.5 -93.5v0q0 -41 -21 -76q-14 -24 -42 -50l-5 -5h68l-61 -61h-132q3 41 64 90q22 18 33.5 29t23 31.5t11.5 41.5q0 29 -20.5 49.5t-49.5 20.5zM263 59l61 -61h-263v66q0 40 22 76
q13 23 41 49l25.5 22l24 20.5t12.5 13.5q5 7 7 15v0h-62q0 26 18.5 44t43.5 18t43 -18.5t18 -43.5v0q0 -28 -16 -48.5t-48 -46.5q-22 -18 -33.5 -29t-23 -31t-11.5 -41v-5h141z" />
    <glyph glyph-name="three.den" horiz-adv-x="377" 
d="M254 260q0 -25 -18 -43t-43 -18v0v61h-62v0q0 25 18 43t44 18q25 0 43 -18t18 -43v0zM193 68q-26 0 -44 18t-18 43h62v61v0v0q25 0 43 -18t18 -43v0q0 -25 -18 -43t-43 -18zM324 129v0q0 -55 -38.5 -93t-92.5 -38q-55 0 -93.5 38t-38.5 93h61q0 -29 21 -49.5t50 -20.5
t49.5 20.5t20.5 49.5q0 22 -13 39.5t-33 25.5q20 8 33 26t13 40q0 29 -20.5 49.5t-49.5 20.5t-50 -20.5t-21 -49.5v0h-61q0 55 38.5 93t93.5 38q54 0 92.5 -38t38.5 -93q0 -33 -18 -66q18 -31 18 -65z" />
    <glyph glyph-name="four.den" horiz-adv-x="464" 
d="M131 330l62 61v-127h31v127l61 -61v-127h-154v127zM294 330l61 61v-127h62l-61 -61h-62v127zM356 194l61 -61h-62v-135l-61 61v135h62zM285 59l-61 -61v135h-163v258l61 -61v-127v-4v-5h5h158v-135z" />
    <glyph glyph-name="five.den" horiz-adv-x="374" 
d="M193 68q-26 0 -44 18t-18 43l-70 70v192h263l-61 -61h-141v-140h71q25 0 43 -18t18 -43q0 -37 -32 -54q-13 -7 -29 -7zM324 129v0q0 -38 -20 -69.5t-53 -48.5q-29 -13 -58 -13q-55 0 -93.5 38t-38.5 93h61q0 -29 21 -49.5t50 -20.5v0q17 0 33 8q37 20 37 62v0
q0 29 -20.5 49.5t-49.5 20.5h-62v122h132l61 -61h-131v0q54 0 92.5 -38.5t38.5 -92.5z" />
    <glyph glyph-name="six.den" horiz-adv-x="382" 
d="M193 68q-26 0 -44 18t-18 43v0q0 25 18 43t44 18q25 0 43 -18t18 -43t-18 -43t-43 -18zM324 129q0 -55 -38.5 -93t-92.5 -38q-55 0 -93.5 38t-38.5 93v131q0 55 38.5 93t93.5 38q54 0 92.5 -38t38.5 -93h-61q0 29 -20.5 49.5t-49.5 20.5t-50 -20.5t-21 -49.5v-132
q1 -29 21.5 -49t49.5 -20t49.5 20.5t20.5 49.5v0q0 29 -20.5 49.5t-49.5 20.5q-41 0 -62 -36v97q0 25 18 43t44 18q25 0 43 -18t18 -43h-61q54 0 92.5 -38.5t38.5 -92.5z" />
    <glyph glyph-name="seven.den" horiz-adv-x="387" 
d="M205 190q-17 -10 -26.5 -18.5t-18.5 -27.5t-9 -45v-40l-61 -61v101q0 39 13 69q11 26 35 49q12 10 24.5 18.5t20 12.5t8.5 6q4 4 4 6h-134l61 61h132v-61q0 -20 -8 -34t-15.5 -19.5t-25.5 -16.5zM61 391h263v-61v-9v-61q0 -33 -11 -56q-9 -23 -29 -43q-10 -9 -19.5 -16
t-19.5 -12.5t-11 -6.5q-9 -6 -9 -8q-4 -4 -4 -19v-101l-61 61v0v40q0 24 8 41.5t16.5 25t24.5 17.5q19 11 26.5 16.5t17.5 22t10 38.5v70h-141z" />
    <glyph glyph-name="eight.den" horiz-adv-x="382" 
d="M306 194q17 -29 17 -65h1q-1 -55 -39 -93t-93 -38q-54 0 -92.5 38t-38.5 93q0 34 18 65q-18 33 -18 66q0 55 38.5 93t92.5 38q55 0 93 -38t38 -93h1q0 -33 -18 -66zM262 129q0 22 -13 40t-33 25q20 8 33 26t13 40q0 29 -20.5 49.5t-49.5 20.5t-49.5 -20.5t-20.5 -49.5v0
q0 -22 13 -40t33 -26q-20 -7 -33 -25t-13 -40q0 -29 20.5 -49.5t49.5 -20.5t49.5 20.5t20.5 49.5v0zM254 260q-1 -26 -19 -43.5t-43 -17.5q-26 0 -43.5 17.5t-17.5 43.5v0q0 26 17.5 43.5t43.5 17.5t43.5 -17.5t17.5 -43.5h1zM131 129q0 25 17.5 43t43.5 18t43.5 -18
t17.5 -43h1q-1 -26 -19 -43.5t-43 -17.5q-26 0 -43.5 18t-17.5 43v0z" />
    <glyph glyph-name="nine.den" horiz-adv-x="395" 
d="M200 321q26 0 43.5 -17.5t17.5 -43.5v0q0 -26 -17.5 -43.5t-43.5 -17.5t-43.5 17.5t-17.5 43.5t17.5 43.5t43.5 17.5zM331 -2l-61 61v70v132q0 28 -20.5 48.5t-49.5 20.5t-49.5 -20.5t-20.5 -49.5v0q0 -29 20.5 -49.5t49.5 -20.5q40 0 61 36v-97v-70l-61 -61v131
q-55 0 -93 38.5t-38 92.5q0 55 38 93t93 38t93 -38l38 38v-131v0v-89v-173z" />
    <glyph glyph-name="one.alt" horiz-adv-x="428" 
d="M217 723l61 61v-653h102l-61 -61h-102v653zM45 131h102v461h-61l122 122v-644h-102zM319 61l61 -61h-335l61 61h213z" />
    <glyph glyph-name="two.alt" horiz-adv-x="533" 
d="M431 555q0 -40 -12.5 -75t-40.5 -68t-50 -53.5t-62 -53.5q-41 -34 -60.5 -52t-47.5 -50t-40 -64t-13 -69h324l61 61h-307q7 13 20 30q16 21 41.5 44.5t64 55.5t59.5 51q57 53 85 101q40 67 40 142q0 95 -67 162t-162 67q-97 0 -162 -67q-67 -65 -67 -162v-61l61 61
q0 70 49 119t119 49q69 0 118 -49t49 -119zM423 555q0 -38 -12.5 -72t-39.5 -66t-48.5 -52t-61.5 -53q-42 -35 -62.5 -53.5t-49 -52t-41 -67.5t-12.5 -74v-4h332l62 -61h-455v65q-1 74 39 141q30 48 85 100q20 18 59.5 50.5t64.5 55.5t41 44q37 49 37 99q0 41 -28 69
q-29 29 -69 29q-42 0 -69 -29q-29 -27 -29 -69v-61l-61 61v0q0 66 46.5 112.5t112.5 46.5q65 0 111.5 -46.5t47.5 -112.5z" />
    <glyph glyph-name="four.alt" horiz-adv-x="667" 
d="M124 716l61 62v-320h196v320l61 -62v-319h-318v319zM451 716l61 62v-320h131l-61 -61h-131v319zM442 61l-61 -61v327h-327v451l61 -62v-328h327v-327zM582 388l61 -61h-131v-327l-61 61v327h131z" />
    <glyph glyph-name="six.alt" horiz-adv-x="546" 
d="M274 723q-70 0 -119 -49t-49 -119v-326v0q0 -70 49 -119t119 -49q69 0 118.5 49t49.5 119q0 69 -49.5 118t-118.5 49q-55 0 -98.5 -31.5t-60.5 -82.5v273q0 66 46.5 112.5t112.5 46.5t112.5 -46.5t46.5 -112.5l-61 -61v61q0 42 -29 69q-29 29 -69 29q-42 0 -69 -29
q-29 -27 -29 -69v-119q47 22 98 22q93 0 162 -67q67 -69 67 -162q0 -95 -67 -162t-162 -67q-97 0 -162 67q-67 67 -67 162v326q0 95 67 162q65 67 162 67q95 0 162 -67t67 -162v-61l-61 61q0 70 -49.5 119t-118.5 49zM115 229v0q0 66 46.5 112.5t112.5 46.5t112.5 -46.5
t46.5 -112.5t-46.5 -112.5t-112.5 -46.5t-112.5 46.5t-46.5 112.5zM205 298q-29 -29 -29 -69q0 -42 29 -69q27 -29 69 -29q40 0 69 29q29 27 29 69q0 40 -29 69q-30 28 -69 28q-41 0 -69 -28z" />
    <glyph glyph-name="seven.alt" horiz-adv-x="603" 
d="M148 463h175l55 191h-319l61 61h339l-90 -314h-160v0zM471 723l-351 1l-61 61h493l-93 -322h93l-61 -62v0h-113zM209 393h157l-101 -352l-76 -42l96 332h-137zM491 393l61 -62h-131l-106 -368l-42 76l102 354h116z" />
    <glyph glyph-name="eight.alt" horiz-adv-x="547" 
d="M213 399q-1 1 -3 1t-3 1q-41 19 -68 62.5t-27 92.5q0 65 46.5 111.5t112.5 46.5t112.5 -46.5t46.5 -111.5q0 -50 -26.5 -93t-68.5 -62q-1 -1 -2.5 -1t-2.5 -1l-59 59h3q40 2 66 28q29 29 29 70t-29 68q-27 29 -69 29q-40 0 -69 -29q-28 -28 -28 -68t28 -70q26 -26 67 -28
h2zM335 383q42 -18 68.5 -61.5t26.5 -92.5q0 -66 -46.5 -112.5t-112.5 -46.5t-112.5 46.5t-46.5 112.5q0 49 27 92.5t68 61.5q4 2 6 2l58 -59q-1 0 -1 0.5t-1 0.5q-40 -2 -67 -29q-28 -30 -28 -69t28 -69q29 -29 69 -29q42 0 69 29q29 29 29 69t-29 69q-28 28 -66 29l-1 -1
h-2l59 59q1 0 5 -2zM432 392l1 -1q67 -65 67 -162q0 -95 -67 -162t-162 -67q-93 0 -162 67q-67 69 -67 162q0 95 67 162q1 0 1 0.5t1 0.5l-2 2q-67 67 -67 162q0 94 67 161t162 67q97 0 162 -67q67 -65 67 -161q0 -97 -67 -162l-1 -1v-1zM271 61q70 0 119 49t49 119
q0 52 -28 97.5t-72 64.5q-1 1 -3 1h1h-1q1 1 3 1q44 19 72 65t28 98q0 69 -49 118t-119 49q-69 0 -118 -49t-49 -118q0 -52 27.5 -98t72.5 -65q1 0 2 -1v0q-1 0 -2 -1q-45 -19 -72.5 -64.5t-27.5 -97.5q0 -70 49 -119t118 -49z" />
    <glyph glyph-name="nine.alt" horiz-adv-x="547" 
d="M434 717q67 -67 67 -161v-327q0 -93 -67 -162q-67 -67 -162 -67q-93 0 -162 67q-67 69 -67 162v61l61 -61q0 -70 49.5 -119t118.5 -49q70 0 119 49t49 119v327q0 69 -49 118t-119 49q-69 0 -118.5 -49t-49.5 -118q0 -70 49.5 -119t118.5 -49q55 0 98.5 32t60.5 82v-273v0
q0 -66 -46.5 -112.5t-112.5 -46.5t-112.5 46.5t-46.5 112.5l61 61v-61q0 -40 29 -69t69 -29q42 0 69 29q29 29 29 69v119q-47 -22 -98 -22q-94 0 -162 68q-67 67 -67 162q0 94 67 161t162 67q97 0 162 -67zM272 714q66 0 112.5 -46.5t46.5 -111.5q0 -66 -46.5 -112.5
t-112.5 -47.5q-66 1 -112.5 47.5t-46.5 112.5q0 65 46.5 111.5t112.5 46.5zM341 486q29 29 29 70t-29 68q-27 29 -69 29q-40 0 -69 -29q-29 -27 -29 -68t29 -70q30 -28 69 -28q41 0 69 28z" />
    <glyph glyph-name="zero.alt" horiz-adv-x="555" 
d="M434 555q0 66 -46.5 112.5t-112.5 46.5t-112.5 -46.5t-46.5 -112.5v-83l61 -61v144q0 42 29 69q29 29 69 29t69 -29q28 -28 28 -69v-144l62 61v83zM437 717q67 -67 67 -162v-144l-61 61v83q0 70 -49.5 119t-118.5 49q-70 0 -119 -49t-49 -119v-83l-61 -61v144
q0 97 67 162q65 67 162 67q95 0 162 -67zM443 312l61 61v-144q0 -95 -67 -162t-162 -67q-97 0 -162 67q-67 65 -67 162v144l61 -61v-83q0 -70 49 -119t119 -49q69 0 118.5 49t49.5 119v83zM275 70q-66 0 -112.5 46.5t-46.5 112.5v83l61 61v-144q0 -42 29 -69q29 -29 69 -29
t69 29q28 28 28 69v144l62 -61v-83q0 -66 -46.5 -112.5t-112.5 -46.5z" />
    <glyph glyph-name="A.alt" 
d="M301 714q66 0 112.5 -46.5t46.5 -112.5v-158h-318v158q0 66 46.5 112.5t112.5 46.5zM399 459v96q0 42 -29 69q-29 29 -69 29t-69 -29q-29 -27 -29 -69v-96h196zM463 717q67 -67 67 -162v-555l-61 61v494q0 70 -49 119t-119 49t-119 -49t-49 -119v-494l-61 -61v555
q0 95 67 162q65 67 162 67q95 0 162 -67zM142 389h318v-328l-61 -61v327h-196v-327l-61 61v328z" />
    <glyph glyph-name="B.alt" 
d="M299 388q65 -1 111 -47t46 -111q0 -66 -46.5 -112.5t-112.5 -47.5h-159v645h159q66 0 112.5 -46.5t46.5 -112.5q0 -63 -49 -110t-107 -49v0h-1h-9l-61 61h73q40 3 64 29q29 29 29 69t-29 69q-27 29 -69 29v0h-98v-522h98q41 0 69 28q29 29 29 69q0 42 -29 69
q-27 29 -69 29v0h-68l61 61h9zM458 393q0 -1 0.5 -1t0.5 -1q67 -67 67 -162q0 -93 -67 -162q-67 -67 -162 -67h-229v785h229q95 0 162 -67t67 -162q0 -93 -67 -162zM297 62q70 0 119 49t49 119q0 59 -37 104.5t-93 58.5q56 13 93 58.5t37 104.5q0 70 -49 119t-119 49h-168
v-662h168z" />
    <glyph glyph-name="C.alt" horiz-adv-x="813" 
d="M438 55q140 0 239 99h86l-43 -44q-113 -113 -282 -113t-282 113q-117 117 -117 283q0 165 117 282q113 113 282 113t282 -113v0l43 -44h-86q-97 99 -239 99q-140 0 -239 -99t-99 -238q0 -140 99 -239t239 -99zM438 662q-111 0 -189.5 -79t-78.5 -190t78.5 -190.5
t189.5 -79.5q112 0 190 80l42 43v-86q-95 -97 -232 -97q-136 0 -232.5 96.5t-96.5 233.5q0 136 96.5 232.5t232.5 96.5q137 0 232 -97v-86l-42 43q-80 80 -190 80z" />
    <glyph glyph-name="D.alt" horiz-adv-x="636" 
d="M49 131h61v522h-61l61 62h61v-645h-61zM180 715h159v0q66 -1 112.5 -47.5t46.5 -111.5v-327q0 -66 -46.5 -112.5t-112.5 -46.5v0h-159v645zM339 653h-97h-1v-522h98q40 0 69 29t29 69v327q0 40 -29 69q-30 28 -69 28zM501 718q67 -69 67 -162v-327q0 -93 -67 -162
q-67 -67 -162 -67h-97h-193l61 61h229q70 0 119 49.5t49 118.5v327q0 69 -49 118t-119 49v0h-229l-61 62h290q95 0 162 -67z" />
    <glyph glyph-name="E.alt" horiz-adv-x="641" 
d="M115 61h394l61 -61h-517zM115 131v522h-62l62 61h61v-583v-61h-61l-61 61h61zM246 336v-205h324l-61 -61h-324v61v267h262l62 -62h-263zM115 723l-61 61h516l-61 -61h-333h-61zM247 653h-1v-185h263l-62 -62h-262v308h324l61 -61h-323z" />
    <glyph glyph-name="F.alt" horiz-adv-x="641" 
d="M113 721h61v-660l-61 -61v660h-61zM183 404h263l61 -61h-263v-343l-61 61v343zM568 791l-61 -61h-333h-61l-61 61h516zM183 721h324l61 -61h-323h-1v-186h263l-61 -61h-263v308z" />
    <glyph glyph-name="G.alt" horiz-adv-x="878" 
d="M838 406l-62 -61h-204l-61 61h327zM776 336l62 -61h-83v-147l-18 -18q-14 -14 -44 -38q-102 -75 -238 -75q-168 0 -283 113q-117 117 -117 282t117 282q114 114 283 114q168 0 282 -114v0l43 -43h-87q-99 99 -238 99q-140 0 -239 -99t-99 -239t99 -239t239 -99
q139 0 238 99v183h83zM455 662q-111 0 -189.5 -79.5t-78.5 -190.5t78.5 -190t189.5 -79q95 0 168 60v92h-112l61 61h113v-179v-1h-2q-96 -93 -228 -93q-136 0 -233 96.5t-97 232.5t96.5 232.5t233.5 96.5q134 0 232 -96v-87l-43 44q-78 80 -189 80z" />
    <glyph glyph-name="H.alt" horiz-adv-x="657" 
d="M170 723l61 61v-316h193v316l61 -61v-317h-315v317zM100 406l-61 62h61v316l61 -61v-317h-61zM494 723l61 61v-316h61l-61 -62h-61v317zM555 398l61 -62h-61v-336l-61 61v337h61zM161 61l-61 -61v336h-61l61 62h61v-337zM485 61l-61 -61v336h-193v-336l-61 61v337h315
v-337z" />
    <glyph glyph-name="J.alt" horiz-adv-x="559" 
d="M239 70q-38 0 -65.5 27.5t-27.5 66.5l61 61v-61q0 -13 9.5 -22.5t22.5 -9.5t22.5 9t9.5 23v490h-102l62 61h102v0v-551q-1 -39 -28 -66.5t-66 -27.5zM444 724h-214l-61 61h336zM505 654h-102v-490q0 -68 -48 -116t-116 -48t-115.5 48t-47.5 116v61l61 -61q0 -43 30 -72.5
t72 -29.5q43 0 72.5 29.5t29.5 72.5v551h102z" />
    <glyph glyph-name="K.alt" 
d="M73 784l61 -61v-662l-61 -61v784zM531 0l-61 61v165v3q0 59 -37 104.5t-93 58.5q56 13 93 58.5t37 104.5v168l61 61v-229q0 -94 -67 -161l-2 -2h1l1 -1q67 -69 67 -162v-229zM305 396h-162v327l61 61v-326h102q37 1 65 28q29 29 29 69v229l61 -61v-168q0 -63 -49 -110
t-107 -49zM461 228v0v-167l-61 -61v229q0 40 -29 69q-30 28 -69 28v0h-98v-326l-61 61v327h161q65 -1 111 -47.5t46 -111.5v-1z" />
    <glyph glyph-name="M.alt" horiz-adv-x="767" 
d="M119 565l256 -363l-44 -44l-3 5l-148 210v-373l-61 62v503zM382 314l333 471v-785l-61 62v530l-272 -383v0l-272 383v-530l-61 -62v785zM645 62l-61 -62v373l-149 -210l-3 -5l-44 44l257 363v-503z" />
    <glyph glyph-name="N.alt" 
d="M129 724v-662l-62 -61v784zM464 724l61 61v-784l-61 61v662zM137 724l62 61v-131l195 -196v327l61 -61v-413l-318 318v95zM455 62l-61 -61v272l-195 195v-467l-62 61v554l318 -318v-236z" />
    <glyph glyph-name="O.alt" horiz-adv-x="897" 
d="M449 721q136 0 232.5 -96.5t96.5 -232.5t-96.5 -232.5t-232.5 -96.5t-232.5 96.5t-96.5 232.5t96.5 232.5t232.5 96.5zM449 122q111 0 189.5 79.5t78.5 190.5t-78.5 190.5t-189.5 79.5t-189.5 -79.5t-78.5 -190.5t78.5 -190.5t189.5 -79.5zM731 674q117 -115 117 -282
t-117 -282q-113 -114 -282 -114t-282 114q-117 115 -117 282t117 282q113 114 282 114t282 -114zM449 54q139 0 238.5 99t99.5 239t-99.5 239t-238.5 99t-238.5 -99t-99.5 -239t99.5 -239t238.5 -99z" />
    <glyph glyph-name="P.alt" 
d="M139 556v161l-62 62v-779l62 61v494v1zM147 556q1 65 47.5 111.5t111.5 46.5q66 0 112.5 -46.5t46.5 -112.5q0 -65 -46.5 -112t-112.5 -47q-65 0 -111.5 47t-47.5 112v0v1zM209 555q0 -39 28 -69q30 -28 69 -28q41 0 69 28q29 29 29 69q0 42 -29 69q-27 29 -69 29
q-40 0 -69 -29q-28 -28 -28 -69zM147 502v-441l61 -61l1 348q46 -22 97 -22q96 0 162 68q67 65 67 161q0 97 -67 162q-65 67 -162 67q-92 0 -159 -64v-111q18 50 61 82t98 32q70 0 119 -49t49 -119q0 -69 -49 -118t-119 -49q-55 0 -98 32t-61 82z" />
    <glyph glyph-name="Q.alt" horiz-adv-x="892" 
d="M746 133l133 -133h-86l-133 134q27 24 43 43q78 92 78 216q0 139 -99 238t-239 99t-239 -99t-99 -238q0 -140 99 -239t239 -99q84 0 157 39q27 13 53 34l134 -134v-86l-142 141q-91 -52 -202 -52q-169 0 -282 113q-117 117 -117 283q0 165 117 282q113 113 282 113
t282 -113q117 -117 117 -282q0 -149 -96 -260zM535 345l118 -119q58 74 58 167q0 111 -78.5 190t-189.5 79t-189.5 -79t-78.5 -190t78.5 -190.5t189.5 -79.5q56 0 106 22l-107 107h87l118 -118q-26 -20 -53 -34q-72 -37 -151 -37q-136 0 -232.5 97t-96.5 233t96.5 232.5
t232.5 96.5t232.5 -96.5t96.5 -232.5q0 -119 -75 -210q-17 -21 -44 -43l-118 118v87z" />
    <glyph glyph-name="R.alt" 
d="M377 339l247 -247h-86l-259 259l-53 54q33 -18 74 -18q70 0 119 49t49 119t-49 119t-119 49q-55 0 -98.5 -32t-60.5 -83v112q67 64 159 64q93 0 162 -67q67 -69 67 -162q0 -95 -67 -162q-35 -35 -85 -54zM71 0v778l61 -61v-162v0v-494zM189 441q-48 46 -48 114v0
q0 66 46.5 112.5t112.5 46.5t112.5 -46.5t46.5 -112.5t-46.5 -112.5t-112.5 -46.5q-65 0 -110 45h-1zM231 624q-29 -29 -29 -69t29 -69q27 -29 69 -29q40 0 69 29t29 69t-29 69q-27 27 -69 29q-43 -2 -69 -29zM292 326l240 -240v-87l-330 330v-329l-61 61v441q12 -38 42 -67
z" />
    <glyph glyph-name="W.alt" horiz-adv-x="908" 
d="M290 70q-66 0 -112.5 46.5t-46.5 112.5v495l61 61v-556q0 -40 29 -69q28 -28 69 -28q43 0 69 28q29 29 29 69v145v0l61 -62v-83q0 -57 -37 -102q-47 -57 -122 -57zM128 67q-67 69 -67 162v556l61 -61v-495q0 -69 49.5 -118t118.5 -49q76 0 126 57q27 30 38 72
q9 -41 37 -72q49 -57 126 -57q69 0 118 49t49 118v495l62 61v-556q0 -93 -67 -162q-69 -67 -162 -67q-95 0 -162 67q-1 1 -1 2l-2 -2q-67 -67 -162 -67q-93 0 -162 67zM617 70q-75 0 -122 57q-37 45 -37 102v83l61 62v-145q0 -40 29 -69q26 -28 69 -28q41 0 69 28
q28 30 28 69v556l62 -61v-495q0 -66 -46.5 -112.5t-112.5 -46.5z" />
    <glyph glyph-name="X.alt" horiz-adv-x="869" 
d="M741 93l-299 299l299 299h86l-299 -299l299 -299h-86zM435 398l-299 300v86l299 -299l300 299v-86zM735 87v-87l-300 299l-299 -299v87l299 299zM130 692l299 -300l-299 -299h-87l299 299l-299 300h87z" />
    <glyph glyph-name="Y.alt" 
d="M299 396q-65 0 -111.5 46.5t-47.5 112.5v168l62 61v-229q0 -39 28 -69q29 -29 69 -29q42 0 69 29q29 29 29 69v229l61 -61v-168q0 -77 -61 -125q-44 -34 -98 -34zM299 326q-93 0 -162 67q-67 69 -67 162v229l62 -61v-168q0 -70 49 -119t118 -49q55 0 98 32q44 32 61 82
v-273q0 -65 -46.5 -111.5t-112.5 -47.5q-65 1 -111.5 47.5t-47.5 111.5v11l62 61v-72q0 -39 28 -69q30 -28 69 -28q41 0 69 28q29 29 29 69v120q-46 -22 -98 -22zM467 723l61 61v-556q0 -95 -67 -162t-162 -67q-93 0 -162 67q-67 69 -67 162v72l62 -61v-11q0 -69 49 -118
t118 -49q70 0 119 49t49 118v495z" />
    <glyph glyph-name="anarchy" horiz-adv-x="1359" 
d="M675 -17q-115 0 -214 58q-31 19 -52 36l24 59l102 251h279l102 -251l24 -60q-29 -22 -52 -35q-99 -58 -213 -58zM576 326l-92 -228q87 -54 190 -54q104 0 191 54l-92 228h-197zM1161 326q-26 -157 -137 -268l-1 -1l45 -112l-79 34l-15 36l-24 59q27 22 48 46
q78 87 101 206q5 27 7 61h62h37l61 -61h-105zM974 107l-27 -25l-25 61l-98 244h105h107h62q-1 -28 -8 -61q-21 -111 -96 -197q-6 -8 -20 -22zM914 326l54 -132q44 62 60 132h-37h-77zM1098 407v-11h-61h-108h-109l-146 360l-145 -360h-109h-108h-61v11q0 25 3 50
q16 144 121 249q124 124 300 124q175 0 299 -124q105 -105 121 -249q3 -25 3 -50zM488 457l123 307q-113 -21 -193 -101q-86 -87 -102 -206h42h130zM991 457h42q-16 119 -102 206q-81 81 -194 101l124 -307h130zM398 74l-24 -59l-14 -36l-80 -34l46 112q0 1 -1 1
q-111 111 -137 268h-110l61 61h42h62q2 -34 7 -61q23 -119 101 -206q24 -27 47 -46zM181 396h-42l-61 61h105q18 175 142 299q146 144 349 144q204 0 350 -144q124 -124 142 -299h100l-61 -61h-37h-61v11q0 25 -3 50q-19 162 -141.5 272t-287.5 110q-166 0 -288.5 -110
t-141.5 -272q-3 -25 -3 -50v-11h-61zM420 387h105l-99 -244l-24 -61l-27 25q-14 14 -20 22q-75 86 -96 197q-7 33 -8 61h62h107zM381 194l54 132h-77h-37q16 -70 60 -132zM538 396l136 337l137 -337h-273zM629 457h91l-46 112zM943 68l24 -59l13 -33l-33 -80l-32 79
q-114 -62 -240 -62h-1q-127 0 -240 62l-32 -79l-34 80l14 33l24 59q26 -21 51 -35q102 -59 218 -59t216 59q28 16 52 35z" />
    <glyph glyph-name="grayhood" horiz-adv-x="513" 
d="M291 307h-16v16h16v-16zM212 307v16h16v-16h-16zM307 434h48v-143h-32v-16h-143v16h-32v143h48v96h111v-96zM339 307v111h-48v96h-79v-96h-48v-111h16v80h16v-96h47v32h-15v16h15v95h-15v64h47v-64h-16v-95h16v-16h-16v-32h48v96h16v-80h16zM55 393q0 -81 57.5 -138.5
t138.5 -57.5q82 0 139.5 57.5t57.5 138.5q0 82 -57.5 139.5t-139.5 57.5q-81 0 -138.5 -57.5t-57.5 -139.5zM75 393q0 73 51.5 125t124.5 52t125 -52t52 -125t-52 -124.5t-125 -51.5t-124.5 51.5t-51.5 124.5z" />
    <glyph glyph-name="peace" horiz-adv-x="951" 
d="M731 181l85 -86v-86l-84 85q-107 -94 -261 -94q-150 0 -257 91l-78 -79v87l78 78q47 -56 114.5 -87.5t142.5 -31.5q77 0 145 33t115 90zM209 184l-79 -79h-87l86 86q-56 92 -56 205q0 168 116 281q90 91 220 110v102l61 -61v-95q-139 0 -238 -99t-99 -238q0 -118 76 -212
zM470 724v-278l-255 -256q-72 91 -72 206q0 135 96 231.5t231 96.5zM409 471v187q-89 -21 -147.5 -94.5t-58.5 -167.5q0 -54 23 -108zM221 183l249 250v-366q-73 0 -138 31t-111 85zM409 133v153l-102 -103q49 -37 102 -50zM479 67v366l246 -246q-45 -55 -109 -87t-137 -33z
M540 286v-151q54 15 100 51zM870 396q0 -108 -54 -201l93 -93h-86l-86 86q72 91 72 208q0 137 -96.5 235.5t-233.5 101.5v95l61 61v-103q126 -20 213 -109q117 -114 117 -281zM731 194l-252 252v278q134 -3 227.5 -99t93.5 -229q0 -112 -69 -202zM540 471l178 -178
q21 47 21 103q0 92 -56 164.5t-143 95.5v-185z" />
    <glyph glyph-name="bow" horiz-adv-x="1136" 
d="M286 688q35 0 64.5 -12t55 -38.5t41 -48t40.5 -60.5q-25 -39 -40.5 -60.5t-41 -48t-55 -38.5t-64.5 -12q-66 0 -112.5 46.5t-46.5 112.5t46.5 112.5t112.5 46.5zM399 507q3 3 8 11t8 11q-29 44 -51 65q-36 32 -78 33q-40 0 -69 -28.5t-29 -69.5q0 -40 28.5 -68.5
t69.5 -29.5q33 1 60 19q26 17 53 57zM492 521v-108q-14 -19 -39 -44q-69 -69 -165 -69h-2q-94 0 -161.5 67t-67.5 162t67 161.5t162 66.5q75 3 134 -41q34 -23 72 -70v-109q-23 37 -39.5 60t-42 49t-56.5 38.5t-68 12.5q-70 0 -119 -49t-49 -119q0 -69 49 -118.5t119 -49.5
q37 0 68 13t56.5 39t42 48.5t39.5 59.5zM849 370q-36 0 -65 12t-55 39t-41 47.5t-41 60.5q26 40 41 60.5t41 47.5t55 39t65 12q66 0 112.5 -46.5t46.5 -112.5t-46.5 -112.5t-112.5 -46.5zM735 551l-15 -22q29 -44 51 -65q36 -32 78 -33q41 0 69.5 28.5t28.5 69.5
q0 40 -28.5 68.5t-69.5 29.5q-33 -1 -60 -19q-25 -17 -54 -57zM642 537v108q20 25 39 44q71 69 166 69h2q94 0 161 -67t67 -162t-66.5 -162t-161.5 -67q-75 -1 -135 42q-36 25 -72 70v109q24 -38 40 -60t42 -48.5t57 -39t68 -12.5q70 0 119 49t49 119q0 69 -49 118.5
t-119 49.5q-30 0 -57 -10t-46 -23t-40 -37.5t-33 -42zM297 292q71 3 129 44l-306 -307v86zM212 304q33 -11 73 -13l-171 -170h-85zM709 335q58 -42 129 -43l177 -177v-86zM923 303l183 -182h-85l-171 171q37 0 73 11zM571 659h62v-261h-62v261zM563 659v-261h-62v261h62z
" />
    <glyph glyph-name="anchor" horiz-adv-x="903" 
d="M542 787q0 -38 -27.5 -65.5t-65.5 -27.5q-39 0 -66.5 27.5t-27.5 65.5q0 39 27.5 66.5t66.5 27.5q38 0 65.5 -27.5t27.5 -66.5zM449 755q13 0 22.5 9.5t9.5 22.5t-9.5 23t-22.5 10t-22.5 -9.5t-9.5 -23.5q0 -13 9.5 -22.5t22.5 -9.5zM708 534l62 -61h-256v-361
q44 22 98 22h1q39 1 68 29q29 29 29 69v61l61 -61q0 -66 -46.5 -112.5t-112.5 -46.5v0v0q-77 0 -126 -57q-22 -26 -33 -57v575h255zM780 232l61 61v-61q0 -93 -67 -162q-69 -67 -162 -67v0q-40 0 -69 -29q-29 -27 -29 -68v-13l-61 -61v73q0 59 37 102q47 57 122 57
q70 0 119 49t49 119zM444 -168l-61 61v12q0 42 -29 69q-27 29 -69 29v0q-93 0 -162 67q-67 69 -67 162v61l61 -61q1 -70 50 -119t118 -49q75 0 122 -57q37 -43 37 -101v-74zM126 604h257v34q-43 19 -70.5 59.5t-27.5 89.5q0 68 48 116t116 48t115.5 -48t47.5 -116
q0 -49 -27 -89.5t-71 -59.5v-34h256l-62 -61h-255v143q41 2 69.5 31.5t28.5 69.5q0 43 -30 73t-72 30q-43 0 -72.5 -30t-29.5 -73q0 -41 28.5 -70.5t68.5 -30.5v-143h-256zM285 73q-66 0 -112 46.5t-47 112.5l62 61v-61q0 -39 28 -69q27 -27 69 -29q54 0 98 -22v361h-257
l62 61h256v-575q-10 31 -33 57q-49 57 -126 57z" />
    <glyph glyph-name="anchor.alt" horiz-adv-x="821" 
d="M675 168l86 14l-36 -50q-64 -86 -148 -133q-54 -31 -110 -41v-22l-61 -61v138q157 3 269 155zM569 533l62 -61h-164v-379q87 28 152 117l36 49l13 -85q-52 -72 -119.5 -111t-142.5 -41v511h163zM495 787q0 -39 -27.5 -66.5t-65.5 -27.5q-39 0 -66.5 27.5t-27.5 66.5
q0 38 27.5 65.5t66.5 27.5q38 0 65.5 -27.5t27.5 -65.5zM402 754q13 1 22.5 10.5t9.5 22.5t-9.5 22.5t-22.5 9.5t-22.5 -9.5t-9.5 -22.5t9 -22.5t23 -10.5zM397 -125l-61 61v22q-56 10 -110 41q-83 46 -147 133l-37 50l86 -14q112 -152 269 -155v-138zM173 604h163v33
q-44 19 -71 60t-27 90q0 68 48 115.5t116 47.5t115.5 -48t47.5 -115q0 -50 -27 -90.5t-71 -59.5v-33h163l-61 -62h-163v143q41 2 69.5 31.5t28.5 70.5q0 42 -30 72t-72 30q-43 0 -72.5 -30t-29.5 -72q0 -41 28 -70.5t69 -31.5v-143h-163zM397 22q-75 2 -142.5 41t-119.5 111
l14 85l36 -49q65 -89 151 -117v379h-163l61 61h163v-511z" />
    <glyph glyph-name="numbersign.alt" horiz-adv-x="1082" 
d="M799 714q66 0 112.5 -46.5t46.5 -112.5t-46.5 -112.5t-112.5 -46.5t-112.5 46.5t-46.5 112.5t46.5 112.5t112.5 46.5zM868 486q29 29 29 69t-29 69t-69 29t-69 -29t-29 -69t29 -69t69 -29t69 29zM961 717q67 -67 67 -162q0 -93 -67 -162q-67 -67 -162 -67q-93 0 -162 67
q-67 69 -67 162q0 95 67 162q69 67 162 67q95 0 162 -67zM799 387q70 0 119 49.5t49 118.5q0 70 -49 119t-119 49t-119 -49t-49 -119q0 -69 49 -118.5t119 -49.5zM1028 157l-61 61h-336l-61 -61h458zM631 227h336l61 61h-458zM112 61v662l-61 61v-784zM509 784l-62 -61v-662
l62 -61v784zM182 784l-61 -61v-95l318 -318v413l-61 61v-327l-196 196v131zM378 0l61 61v236l-318 318v-554l61 -61v467l196 -195v-272z" />
  </font>
</defs>
</svg>
